<?xml version="1.0" encoding="UTF-8"?>
<svg width="623px" height="541px" viewBox="0 0 623 541" version="1.1" xmlns="http://www.w3.org/2000/svg" xmlns:xlink="http://www.w3.org/1999/xlink">
    <!-- Generator: Sketch 63.1 (92452) - https://sketch.com -->
    <title>SVG</title>
    <desc>Created with Sketch.</desc>
    <defs>
        <polygon id="path-1" points="0 0.372791466 19.9946147 0.372791466 19.9946147 62.479494 0 62.479494"></polygon>
        <polygon id="path-3" points="0.0588005057 0.00193103268 316.213117 0.00193103268 316.213117 154.950894 0.0588005057 154.950894"></polygon>
    </defs>
    <g id="SVG" stroke="none" stroke-width="1" fill="none" fill-rule="evenodd">
        <g id="Group-113">
            <path d="M133.522006,84 L82.4779939,84 C80.0048618,84 78,81.9852857 78,79.5 C78,77.0147143 80.0048618,75 82.4779939,75 L133.522006,75 C135.995138,75 138,77.0147143 138,79.5 C138,81.9852857 135.995138,84 133.522006,84" id="Fill-1" fill="#231916"></path>
            <path d="M145.552822,104 L91.4471784,104 C88.9910653,104 87,101.985286 87,99.5 C87,97.0147143 88.9910653,95 91.4471784,95 L145.552822,95 C148.008935,95 150,97.0147143 150,99.5 C150,101.985286 148.008935,104 145.552822,104" id="Fill-3" fill="#231916"></path>
            <path d="M163.552822,125 L109.447178,125 C106.991065,125 105,122.985286 105,120.5 C105,118.014714 106.991065,116 109.447178,116 L163.552822,116 C166.008935,116 168,118.014714 168,120.5 C168,122.985286 166.008935,125 163.552822,125" id="Fill-5" fill="#231916"></path>
            <path d="M139.218317,28.0600503 C133.57523,28.0600503 128.981721,32.6923246 128.981721,38.3859191 C128.981721,38.6926665 128.998401,38.995531 129.025347,39.2971013 C129.047159,39.5494884 129.048442,39.8031698 129.027913,40.0568512 C128.999684,40.4166646 128.981721,40.8062468 128.981721,41.2346577 C128.981721,49.8080539 143.373004,58.844807 150.500642,62.450707 C157.628279,58.844807 172.018279,49.8080539 172.018279,41.2346577 C172.018279,40.7518865 172.004165,40.3144155 171.975937,39.9118904 C171.961822,39.6840948 171.963106,39.4575936 171.981069,39.2310923 C172.004165,38.9515251 172.018279,38.6693692 172.018279,38.3859191 C172.018279,32.6923246 167.426053,28.0600503 161.782966,28.0600503 C158.75356,28.0600503 155.893523,29.4061149 153.940641,31.7539622 C153.087377,32.7790422 151.82737,33.3718284 150.500642,33.3718284 C149.173913,33.3718284 147.913906,32.7790422 147.060642,31.7539622 C145.10776,29.4061149 142.247723,28.0600503 139.218317,28.0600503 M150.500642,72 C149.87577,72 149.248333,71.8692764 148.665804,71.6052407 C148.383522,71.4771057 141.661345,68.4212801 134.862182,63.4563726 C125.001536,56.2549269 120,48.7790911 120,41.2346577 C120,40.6897604 120.017963,40.1836919 120.048758,39.7086864 C120.017963,39.2712154 120,38.8298615 120,38.3859191 C120,27.696354 128.621169,19 139.218317,19 C143.319114,19 147.251825,20.312413 150.500642,22.6926176 C153.749458,20.312413 157.682169,19 161.782966,19 C172.380114,19 181,27.696354 181,38.3859191 C181,38.8026814 180.985886,39.2181494 180.957658,39.6284403 C180.985886,40.1241544 181,40.6574031 181,41.2346577 C181,48.7790911 175.999748,56.2549269 166.137818,63.4563726 C159.339938,68.4212801 152.617762,71.4771057 152.335479,71.6052407 C151.75295,71.8692764 151.125513,72 150.500642,72" id="Fill-7" fill="#231916"></path>
            <path d="M256,45 C256,53.284085 250.000656,60 250.000656,60 C250.000656,60 244,53.284085 244,45 C244,36.715915 250.000656,30 250.000656,30 C250.000656,30 256,36.715915 256,45" id="Fill-9" fill="#231916"></path>
            <path d="M377.137473,494.264681 C376.403155,495.43899 375.619054,496.712412 374.759032,497.980817 C371.712238,502.726982 367.978422,506.490793 363,509 C365.489211,505.236189 364.244605,501.472378 364.571937,497.76377 C364.900512,496.376179 365.307498,495.003642 365.721952,493.611032 C366.136406,492.219677 366.559571,490.806993 366.915529,489.342871 C369.020156,484.273018 372.753972,480.509207 377.732394,478 C377.732394,479.254604 378.976999,480.509207 378.715632,481.463961 C378.983222,483.39605 379.154978,485.947914 378.796532,488.651584 C378.530186,490.480796 378.02861,492.391558 377.137473,494.264681" id="Fill-11" fill="#231916"></path>
            <g id="Group-15" transform="translate(0.000000, 208.000000)">
                <mask id="mask-2" fill="white">
                    <use xlink:href="#path-1"></use>
                </mask>
                <g id="Clip-14"></g>
                <path d="M15.6742765,62.479494 C14.3203941,62.479494 12.9862765,61.833114 12.1450412,60.620994 C1.66480588,45.551394 -2.51048824,23.275854 1.50545294,3.870594 C2.00080588,1.487934 4.30462941,-0.027846 6.62945294,0.466074 C8.96539412,0.970074 10.4601,3.309894 9.96721765,5.692554 C6.42562941,22.804614 10.0475118,42.361074 19.1973353,55.517994 C20.5783941,57.505014 20.1201,60.256854 18.1720412,61.665534 C17.4123353,62.216154 16.5389824,62.479494 15.6742765,62.479494" id="Fill-13" fill="#231916" mask="url(#mask-2)"></path>
            </g>
            <path d="M250.017563,36.1077176 C249.596048,36.1077176 249.169329,36.1350407 248.746513,36.1883859 C246.126356,36.5227693 243.793713,37.8590016 242.177906,39.9485722 C240.560797,42.0394439 239.85437,44.6338424 240.188719,47.2529617 C240.81839,52.1789358 245.028335,55.8922824 249.981136,55.8922824 C250.40135,55.8922824 250.82937,55.8649593 251.252186,55.8116141 C253.873644,55.4772307 256.206287,54.1409984 257.822094,52.0514278 C259.439203,49.9618572 260.144329,47.3674587 259.80998,44.7483394 C259.180309,39.8223653 254.971665,36.1077176 250.017563,36.1077176 M249.981136,65 C240.45672,65 232.364674,57.867356 231.156071,48.4070396 C230.51339,43.373074 231.869003,38.3898514 234.974424,34.3759501 C238.078543,30.3620489 242.560391,27.7975758 247.593852,27.1548312 C248.396552,27.0520441 249.212261,27 250.017563,27 C259.540678,27 267.635326,34.1339451 268.843929,43.5942615 C269.48661,48.6282271 268.130997,53.6101486 265.025576,57.6240499 C261.920156,61.6379511 257.439609,64.2024242 252.406148,64.8451688 C251.603448,64.9479559 250.786438,65 249.981136,65" id="Fill-16" fill="#231916"></path>
            <path d="M280.81983,329 C248.258066,329 213.313858,327.626773 175.143717,324.862535 C172.683432,324.684689 170.834391,322.554345 171.011766,320.105149 C171.192969,317.654682 173.349547,315.841921 175.79069,315.99309 C233.265388,320.155962 283.357956,321.14809 328.934473,319.025368 C367.932791,317.210066 401.803814,313.651872 432.482083,308.148802 C466.229326,302.094408 498.607335,295.032643 523.78697,275.464478 C523.860982,275.093542 523.915854,274.524434 523.950308,274.148416 C524.005179,273.579308 524.062603,273.061014 524.14172,272.639264 C524.588349,270.224367 526.917197,268.628832 529.344303,269.074718 C531.768858,269.520604 533.372892,271.838956 532.924987,274.253854 C532.886705,274.458377 532.871392,274.713713 532.843318,274.989375 C532.662114,276.885978 532.359683,280.059262 529.775619,282.09052 C502.934526,303.183081 467.775937,310.852064 434.066976,316.900106 C402.99695,322.473044 368.744378,326.07443 329.350475,327.908786 C313.735069,328.635415 297.591366,329 280.81983,329" id="Fill-18" fill="#231916"></path>
            <path d="M175.55914,325 C175.402933,325 175.245457,324.99246 175.08671,324.974866 C144.44865,321.765233 54.2082906,299.349329 30.9830533,284.061474 C28.9396693,282.716796 28.3846918,279.985969 29.7448312,277.962669 C31.1024306,275.939368 33.8658884,275.391444 35.9067325,276.737378 C57.7578607,291.120403 146.851436,313.170606 176.021409,316.228177 C178.463564,316.483288 180.233904,318.648597 179.97483,321.065247 C179.732266,323.323551 177.804449,325 175.55914,325" id="Fill-20" fill="#231916"></path>
            <path d="M12.4968882,200 C12.0216272,200 11.5386592,199.922893 11.0633981,199.763537 C8.71021357,198.970617 7.44370706,196.420934 8.236237,194.066589 C9.50274351,190.302465 11.3023131,186.645006 13.5887042,183.199593 C26.5029603,163.717135 50.6231016,154.166104 74.7637948,146.747092 C97.8897413,139.639079 123.764495,135.276088 156.190145,133.010417 C158.662787,132.843351 160.815591,134.705493 160.988997,137.18321 C161.161119,139.662211 159.293471,141.810936 156.816976,141.983142 C125.092657,144.199979 99.8588635,148.446024 77.4021359,155.345847 C39.2566552,167.07002 27.7900186,178.051392 21.0824152,188.171732 C19.228897,190.966874 17.7735705,193.914945 16.7575395,196.934983 C16.1255707,198.813832 14.3748117,200 12.4968882,200" id="Fill-22" fill="#231916"></path>
            <path d="M178.440476,141 C176.079778,141 174.114011,139.104476 174.004801,136.673852 C173.891783,134.170671 175.787707,132.051001 178.239836,131.935689 C200.467735,130.891402 222.72865,130.388693 243.474604,130.001296 C243.502542,130 243.530479,130 243.557146,130 C245.974989,130 247.955994,131.975854 247.99917,134.45053 C248.046156,136.955006 246.091817,139.02285 243.638418,139.068198 C222.955958,139.455595 200.767425,139.955713 178.648736,140.994817 C178.578893,140.998704 178.510319,141 178.440476,141" id="Fill-24" fill="#231916"></path>
            <path d="M258.510698,139 C256.038227,139 254.023382,136.951265 254,134.405907 C253.978264,131.845981 255.980218,129.753543 258.472026,129.729705 L270.006788,129.63038 C286.199027,129.493974 302.942996,129.35492 319.393052,129.001324 C319.426568,129 319.457506,129 319.489734,129 C321.937712,129 323.947401,131.012978 323.998965,133.538472 C324.051817,136.098398 322.074356,138.215998 319.582548,138.268971 C303.073194,138.623891 286.300865,138.76427 270.080266,138.900675 L258.551949,139 L258.510698,139 Z" id="Fill-26" fill="#231916"></path>
            <path d="M347.450443,136 C345.058005,136 343.075589,134.103366 342.984898,131.687142 C342.894208,129.214607 344.819144,127.136244 347.285668,127.0441 C359.720473,126.58082 374.402101,125.93837 389.004535,124.696984 C390.085156,124.604839 391.168331,124.519094 392.25023,124.433349 C402.350076,123.632207 411.889175,122.875857 419.735811,117.38816 C425.780136,113.159767 431.908764,105.623143 430.980145,97.1484405 C429.720698,85.6547368 417.517089,80.5791295 413.806446,79.29679 C392.946374,72.0903492 369.650434,73.1397687 347.123447,74.1533544 L343.016832,74.336363 C333.550541,74.7497319 324.656494,75.6353396 319.863953,81.8486712 C312.883346,90.9005548 304.719931,100.226311 292.355379,107.117926 C277.485984,115.408341 248.213418,128.258611 219.262739,121.163511 C217.399115,120.707909 216.032372,119.110744 215.868874,117.196193 C215.705375,115.281642 216.77961,113.474593 218.537216,112.706725 C229.918224,107.73862 241.872753,102.202291 251.936834,93.9963425 C254.548973,91.8667886 257.067867,89.5875006 259.516509,87.2160683 C252.907604,89.5350296 245.971704,91.0208541 238.909348,91.5826775 C236.690626,91.7592871 234.485955,91.8258357 232.352814,91.8898247 C226.291884,92.074113 220.56817,92.2468833 215.575088,94.9113851 C209.236978,98.291284 203.81599,103.397606 200.312275,109.288433 C199.046441,111.414148 196.301459,112.105229 194.182369,110.843366 C192.062002,109.576384 191.367134,106.826136 192.630414,104.701702 C196.959284,97.4261527 203.615449,91.1411534 211.37395,87.0023451 C218.210219,83.356252 225.263634,83.1425288 232.083298,82.9364842 C234.20111,82.8712154 236.200131,82.8110658 238.201707,82.6510933 C250.585419,81.6656627 262.529729,77.5038183 272.644904,70.7504196 C273.846871,68.9664063 276.227814,67.1695953 280.409791,64.7597697 L280.612887,64.6433097 C281.100827,64.3476805 281.630919,64.1544337 282.173784,64.0622896 C282.579975,63.9919017 282.993829,63.9829432 283.40002,64.0264558 C283.521367,64.0392536 283.641436,64.0558907 283.761505,64.0802065 C283.764059,64.0802065 283.765337,64.0789267 283.767891,64.0814863 L283.773001,64.0814863 L283.773001,64.0827661 C284.60071,64.2427386 285.387545,64.635631 286.027488,65.2576041 L286.030042,65.2601636 C286.096463,65.3228728 286.16033,65.3894214 286.221642,65.4585295 C286.408132,65.6620145 286.57163,65.8782973 286.713414,66.1048184 C287.17453,66.8406918 287.396785,67.6763882 287.391676,68.5082451 C287.389121,68.9945615 287.307372,69.4795981 287.146428,69.9467178 C286.981653,70.4240757 286.735128,70.875838 286.408132,71.2840878 L286.235692,71.5067695 C284.218789,74.1431162 282.61063,75.9604037 281.183853,77.1480395 C273.896687,85.3501492 266.348945,93.7941372 257.580077,100.944268 C250.976282,106.328302 243.773419,110.591249 236.47348,114.270616 C236.610154,114.271896 236.742996,114.271896 236.879671,114.271896 C257.549421,114.271896 277.010817,105.420938 288.008626,99.2882325 C298.352442,93.5241037 305.395639,85.9567649 312.788823,76.3724929 C320.516668,66.3518159 333.822612,65.7707958 342.628523,65.3855821 L346.722365,65.2038533 C370.086004,64.153154 394.250528,63.0640612 416.720036,70.8284862 C429.977441,75.4075388 438.63135,84.8830295 439.869083,96.1706886 C440.756827,104.280654 437.278658,116.043112 424.854072,124.734097 C415.016078,131.614194 403.801123,132.503641 392.956593,133.363653 C391.890023,133.448119 390.82473,133.532584 389.760714,133.623449 C374.97179,134.880193 360.158597,135.529041 347.620328,135.99744 C347.562848,135.99872 347.506646,136 347.450443,136" id="Fill-28" fill="#231916"></path>
            <path d="M188.022942,119 C187.218119,119.00127 186.404382,118.781933 185.670873,118.325407 C182.721553,116.486551 179.455144,114.875957 175.997717,113.169723 C166.052042,108.26398 154.780702,102.704054 151.437886,90.4301334 C151.411143,90.331942 151.386948,90.2312002 151.367846,90.1304584 C148.380323,75.1785917 164.317598,71.4919523 172.879029,69.5115473 C174.463205,69.1455613 175.96206,68.7999787 177.243155,68.441644 C190.821994,63.0959532 195.675126,48.3902025 200.369077,34.1664821 L201.1739,31.7346519 C201.241393,31.5344435 201.321621,31.339336 201.415856,31.1493293 C202.760624,28.4548053 204.286221,25.4019465 207.345057,22.3388861 C207.55263,22.1310264 207.780579,21.9448454 208.023808,21.7816182 C209.567234,20.7512465 210.961666,19.3536136 212.438873,17.8756423 C214.13766,16.1745088 215.893753,14.4159907 218.133759,12.9074143 C249.725602,-10.0438605 286.565349,2.36268207 311.573436,13.7363025 C315.272819,15.2027969 319.100822,15.7128819 323.149132,16.253572 C325.187931,16.5264674 327.291677,16.805739 329.427259,17.220183 C334.477777,17.3706581 339.565225,17.4867025 344.675596,17.6014716 C382.354549,18.455864 421.31587,19.3408615 456.332031,34.7250252 C458.587317,35.7145901 459.612448,38.3479039 458.622974,40.6050301 C457.6335,42.8634315 455.005092,43.8925279 452.751078,42.8991374 C419.349657,28.2239918 381.284847,27.3619482 344.471843,26.5254087 C339.217572,26.406814 333.98495,26.2882192 328.791806,26.1300929 C328.544756,26.1224416 328.296432,26.0956621 328.053202,26.0446536 C326.071708,25.6493378 324.080026,25.3828183 321.971187,25.1009964 C317.525559,24.5080226 312.930938,23.8946453 308.170767,21.9882026 C308.107094,21.9614232 308.043422,21.9359189 307.981023,21.906589 C259.966718,0.0532722138 236.658692,10.4526302 223.305255,20.1786761 C223.256863,20.2131068 223.207199,20.2488128 223.156261,20.2819683 C221.612835,21.31234 220.218403,22.7086977 218.741196,24.186669 C217.126457,25.8049137 215.459505,27.4754421 213.373588,28.9317348 C211.595846,30.7973707 210.611467,32.6948869 209.532851,34.8563721 L208.833725,36.9668488 C203.716987,52.4696073 197.918952,70.0420357 180.259967,76.842744 C180.136442,76.8912021 180.011644,76.9332841 179.884298,76.9689901 C178.342146,77.4102136 176.663733,77.7978782 174.885992,78.2097719 C162.395956,81.0981282 159.158837,83.2698151 160.080817,88.2329422 C162.426519,96.5256492 170.933191,100.721098 179.935236,105.161388 C183.437235,106.889301 187.057664,108.674599 190.382652,110.748094 C192.47239,112.051361 193.111664,114.80327 191.810194,116.895894 C190.965894,118.253995 189.510336,119 188.022942,119" id="Fill-30" fill="#231916"></path>
            <path d="M310.482972,197 C308.032185,197 306.02979,195.036205 306,192.588799 C305.970859,190.122253 307.952755,188.098486 310.429165,188.067861 L315.191097,188.01044 C359.612739,187.485996 405.544825,186.941136 448.139586,171.184842 C458.710128,167.273842 468.212214,161.718051 474.89583,155.539563 C481.956096,149.012721 487.399586,140.339615 490.636982,130.460669 C497.124587,110.660669 494.22925,88.2537603 483.083484,71.9832312 C481.687061,69.9467035 482.213602,67.1675323 484.259555,65.7779467 C486.302945,64.387085 489.094511,64.9115292 490.489653,66.9493329 C503.170204,85.4580008 506.493436,110.8559 499.161572,133.230908 C495.452722,144.55048 489.171378,154.528955 480.996535,162.086821 C473.469941,169.043681 462.909648,175.248966 451.262963,179.558085 C407.209003,195.85541 360.483903,196.407927 315.29743,196.942579 L310.539341,197 L310.482972,197 Z" id="Fill-32" fill="#231916"></path>
            <path d="M280.564505,198 L280.516337,198 L269.801567,197.870033 C255.263806,197.688078 240.226622,197.500652 225.467036,197.610098 C223.019358,197.626515 221.01533,195.500522 221,192.85466 C220.982373,190.210166 222.955979,188.052708 225.404925,188.033555 C240.253241,187.921372 255.325917,188.111535 269.904241,188.293489 L280.610138,188.423457 C283.060351,188.452186 285.026352,190.617853 285,193.262347 C284.974381,195.889056 282.991902,198 280.564505,198" id="Fill-34" fill="#231916"></path>
            <path d="M257.342452,279 C226.024899,279 193.873881,277.485158 161.427572,273.819113 C153.718026,272.969788 146.507025,271.017606 139.533791,269.130075 C135.709059,268.093137 131.75266,267.02324 127.727231,266.137153 C124.45729,265.327124 121.795828,263.81862 119.447555,262.488855 C117.421418,261.340364 115.509052,260.256523 113.551945,259.771013 C113.234921,259.693686 112.926846,259.580865 112.635389,259.435085 C107.384052,256.832599 102.955953,252.910489 98.2734682,246.719285 C98.2057172,246.629282 98.1405229,246.536744 98.0778853,246.439135 C94.2633795,240.495123 93.0949953,233.79052 94.6992865,227.051691 C96.8353586,218.072924 103.907023,209.266558 113.612026,203.492411 C113.711735,203.434099 113.811444,203.378322 113.913709,203.327616 C124.200347,198.226591 136.371229,192.830204 148.657159,191.477621 C159.954948,190.234056 173.048776,188.927109 185.61338,189.003168 C188.084372,189.022183 190.072159,191.022535 190.054262,193.471635 C190.036366,195.911862 188.037074,197.87672 185.581422,197.87672 L185.548186,197.87672 C173.47957,197.799393 160.688703,199.07972 149.6453,200.296664 C138.816654,201.489523 127.619852,206.458712 118.073361,211.187048 C110.579851,215.688474 104.968028,222.536321 103.408478,229.090073 C102.369204,233.454593 103.086342,237.641642 105.539437,241.535863 C109.224833,246.384626 112.456425,249.335716 116.246642,251.300574 C119.173994,252.113137 121.669274,253.527835 123.887159,254.782809 C125.913296,255.9313 127.825662,257.015141 129.782769,257.500651 C133.904072,258.407021 137.964015,259.506074 141.891013,260.569632 C148.83868,262.449558 155.400295,264.226804 162.428496,265.001338 C272.592805,277.444593 379.776073,264.839079 460.844548,252.465544 C463.279747,252.086517 465.571774,253.753477 465.9476,256.175957 C466.322148,258.597169 464.648828,260.86246 462.205959,261.235149 C404.399066,270.059263 333.369235,279 257.342452,279" id="Fill-36" fill="#231916"></path>
            <path d="M253.032524,336 C250.74579,336 248.796318,334.263147 248.585529,331.949888 C248.360689,329.501753 250.173468,327.33355 252.632665,327.112149 C298.846402,322.922071 345.107407,324.265746 389.844348,325.562341 C417.4755,326.365238 446.053283,327.189766 474.298915,326.708792 C492.70265,326.707519 524.837006,323.424676 534.130854,301.439809 C536.895374,294.897027 536.648816,289.330191 533.373293,284.418651 C527.9324,276.254807 514.197946,269.643314 493.655668,265.296728 C475.920069,261.54309 457.936633,260.541696 450.105529,260.541696 C449.979056,260.541696 449.85386,260.536606 449.729942,260.526427 C394.092052,255.854102 337.428325,257.916694 279.434716,260.646034 L266.979044,261.23771 C243.193182,262.372708 218.596104,263.545879 194.359282,264.168092 C179.224682,264.557452 165.630753,264.701236 152.81227,264.62998 C150.224045,264.599442 147.151646,264.783943 143.924669,264.967172 C134.611659,265.488864 124.053081,266.080539 116.191317,262.726441 C97.3941105,254.702562 94.8505984,242.468247 95.006454,235.89111 C95.3334952,222.136253 107.589877,208.05184 124.815752,201.642662 C139.067596,196.337944 154.137043,194.898837 168.710818,193.509355 C175.662999,192.845152 182.854074,192.158045 189.739825,191.057402 C192.179859,190.665497 194.471702,192.322188 194.863896,194.748692 C195.253535,197.176469 193.595334,199.461734 191.156577,199.852367 C183.991053,200.997545 176.656898,201.697376 169.564191,202.374303 C155.56657,203.710344 141.093718,205.092191 127.944361,209.985917 C114.277614,215.073051 104.184049,226.055306 103.946433,236.101059 C103.717759,245.681107 112.394572,251.415902 119.714675,254.539692 C125.644852,257.071808 135.092001,256.541209 143.421332,256.074231 C146.792667,255.88464 149.965989,255.705229 152.867203,255.723043 C165.587318,255.795571 179.089267,255.650515 194.130609,255.263699 C218.266507,254.644031 242.813763,253.473405 266.55108,252.340951 L279.01314,251.749276 C337.26225,249.009756 394.19553,246.93444 450.318872,251.637303 C454.694326,251.695834 523.250345,253.128579 540.823702,279.491842 C545.813635,286.976215 546.334857,295.523058 542.372037,304.896973 C531.075062,331.624149 494.921676,335.614457 474.376843,335.614457 C445.997073,336.100521 417.318367,335.270904 389.583737,334.465462 C345.109962,333.175228 299.119788,331.84046 253.442603,335.980914 C253.304632,335.993638 253.167939,336 253.032524,336" id="Fill-38" fill="#231916"></path>
            <path d="M225.458744,195 C223.170558,195 221.221646,193.213099 221.017572,190.839687 C220.800743,188.329423 222.615731,186.116324 225.071003,185.894754 C241.884194,184.380254 259.502205,183.406647 277.437807,183.00391 C279.905834,182.898338 281.944028,184.944607 281.998873,187.463995 C282.053718,189.982079 280.099704,192.070055 277.634229,192.124796 C259.895049,192.523623 242.474735,193.4855 225.85669,194.981753 C225.722766,194.994787 225.590117,195 225.458744,195" id="Fill-40" fill="#231916"></path>
            <g id="Group-44" transform="translate(306.000000, 188.000000)">
                <mask id="mask-4" fill="white">
                    <use xlink:href="#path-3"></use>
                </mask>
                <g id="Clip-43"></g>
                <path d="M294.131588,154.950894 C293.011301,154.950894 291.889737,154.533098 291.021099,153.692394 C289.248057,151.972657 289.20207,149.142629 290.918907,147.367953 C306.118784,131.67184 311.36893,108.318682 303.98679,89.2571998 C299.223336,76.9583979 287.39837,59.0940878 258.111239,43.8221597 C234.376999,31.4454202 207.603806,25.7687553 182.215323,21.015842 C150.673567,15.110475 119.268493,12.0095824 95.4320605,9.96787393 C77.8651465,8.46278472 58.2467154,8.93807605 39.2695431,9.3980354 C27.6259698,9.681677 15.5915096,9.97426225 4.45123498,9.7762242 C1.98200544,9.73406126 0.0160746253,7.69618581 0.0588005057,5.22645963 C0.101660957,2.78484208 2.09569475,0.833847843 4.52787946,0.833847843 C4.55470502,0.833847843 4.58025318,0.833847843 4.60835616,0.835125508 C15.5544648,1.02421991 26.9693821,0.750799627 39.0523838,0.45693671 C58.2709862,-0.0068556346 78.1436214,-0.491090617 96.1959504,1.05743919 C120.238045,3.11575728 151.930536,6.24603619 183.859347,12.2242301 C209.909528,17.1010768 237.421062,22.9476712 262.244931,35.8916939 C287.381764,48.9992577 304.698306,66.3358922 312.324431,86.0259854 C320.94438,108.282907 314.922679,135.434563 297.344269,153.590181 C296.466689,154.496045 295.299138,154.950894 294.131588,154.950894" id="Fill-42" fill="#231916" mask="url(#mask-4)"></path>
            </g>
            <path d="M541.495215,371 C539.468442,371 537.628024,369.635157 537.128078,367.6006 C536.542023,365.214031 538.022583,362.80967 540.437489,362.228913 C550.223065,359.877926 559.345473,355.192473 568.165857,350.660787 C573.89146,347.720148 579.809844,344.677844 585.843896,342.31542 C588.15213,341.406795 590.767529,342.528915 591.682597,344.812549 C592.597665,347.094912 591.466682,349.680998 589.157163,350.58581 C583.55237,352.781759 578.092805,355.585151 572.313224,358.55502 C563.017313,363.329429 553.40524,368.267772 542.560653,370.87292 C542.20465,370.959334 541.846077,371 541.495215,371" id="Fill-45" fill="#231916"></path>
            <path d="M516.438321,378 C514.45502,378 512.646828,376.694728 512.136728,374.734348 C511.535266,372.417984 512.974206,370.065775 515.352137,369.47865 C522.634391,367.681429 529.926796,365.921289 537.217932,364.159913 L541.489071,363.127809 C543.870809,362.55428 546.279193,363.964617 546.867966,366.283453 C547.459276,368.602288 546.008916,370.949553 543.628448,371.524318 L539.35604,372.557658 C532.078861,374.315326 524.800414,376.071757 517.532118,377.866506 C517.166673,377.956738 516.799959,378 516.438321,378" id="Fill-47" fill="#231916"></path>
            <path d="M455.52327,517 C451.615152,517 447.698084,516.19518 443.878176,514.586822 C435.605545,511.102258 428.667579,504.062646 425.283612,495.72994 C421.395948,488.066208 413.795763,482.656741 402.057345,479.193964 C400.281625,478.669806 398.439427,478.195628 396.423364,477.741956 C395.887708,477.621489 395.37762,477.404906 394.921225,477.098613 C390.165517,473.92675 385.843191,469.595076 381.664048,465.405654 C372.403201,456.128438 364.309547,448.012315 352.411327,450.897107 C351.35152,452.228649 350.023246,453.442287 348.266702,454.324 C346.741551,455.086529 344.90958,454.917363 343.549346,453.875454 C342.191667,452.836109 341.542232,451.111128 341.877177,449.431002 C344.223071,437.670121 350.745551,425.750327 361.815357,412.992391 C363.506702,411.137973 365.212109,409.446313 366.96354,407.877683 C371.384303,403.915098 376.216717,400.617643 381.373848,398.042988 C377.598685,399.018255 373.63048,400.417719 369.469235,402.24138 C347.998234,411.650598 330.276828,428.428788 325.35876,433.347417 C324.470261,434.232976 323.590711,435.135194 322.708603,436.038695 C317.869798,440.999615 312.864798,446.128421 306.250272,449.357953 C297.949515,453.410248 288.723185,453.652463 280.58223,453.867765 C256.773006,454.495729 232.14943,455.142918 208.534524,447.884159 C193.634583,443.303861 177.789891,432.554131 178,416.124525 C178.12995,406.288548 184.566776,396.751175 194.801777,391.231493 C203.130659,386.739624 212.473325,385.338878 222.113862,384.191881 C304.496285,374.395633 371.23345,373.412676 432.14615,381.096913 C434.596874,381.405769 436.334242,383.649781 436.026144,386.107814 C435.716767,388.563284 433.480817,390.307488 431.027536,389.997351 C370.856317,382.406668 304.80694,383.392188 223.167277,393.100009 C214.084129,394.181646 205.996868,395.381186 199.041005,399.131033 C191.779601,403.047482 187.034119,409.762859 186.951022,416.241147 C186.802726,427.727774 199.898822,435.84646 211.159113,439.307956 C233.374153,446.13611 257.251133,445.508145 280.34828,444.899404 C287.579003,444.709733 295.774929,444.493149 302.333205,441.293093 C307.552979,438.744069 311.807548,434.382918 316.311408,429.766737 C317.219084,428.836324 318.125481,427.907193 319.03827,426.994722 C324.238868,421.796712 342.981729,404.058633 365.884556,394.021451 C388.630139,384.053473 407.713058,385.404238 421.076344,397.919958 C421.425351,398.239066 421.720665,398.609437 421.949502,399.015692 C421.95078,399.015692 421.952059,399.016974 421.952059,399.018255 C421.953337,399.020818 421.954616,399.0221 421.955894,399.024663 L421.957172,399.025945 C422.035156,399.165635 422.105469,399.306606 422.168111,399.451423 C422.168111,399.451423 422.168111,399.452704 422.16939,399.452704 C422.170668,399.455267 422.171946,399.459112 422.173225,399.461675 C422.173225,399.46552 422.173225,399.466801 422.17706,399.470646 C422.527346,400.290845 422.636012,401.21485 422.449363,402.133729 L422.449363,402.136292 C422.448084,402.138855 422.448084,402.140137 422.448084,402.1427 C422.430186,402.223438 422.412289,402.304177 422.390556,402.383633 C422.390556,402.384915 422.390556,402.386196 422.389277,402.38876 L422.389277,402.391323 C422.180895,403.176919 421.771802,403.870244 421.222083,404.416188 C421.222083,404.418751 421.218248,404.421315 421.218248,404.421315 C421.023929,404.61483 420.81299,404.790404 420.584153,404.945473 C420.412846,405.062095 420.233867,405.167183 420.047219,405.260737 C416.329584,407.145912 412.072458,407.13566 408.356102,405.232542 C408.324141,405.214601 408.290902,405.19794 408.257664,405.179998 C407.205527,405.056969 406.162339,404.926249 405.128101,404.794249 C399.312585,404.059914 393.815395,403.364027 388.568775,404.600733 C382.916896,406.974183 377.657492,410.325464 372.92863,414.564866 C371.398366,415.936136 369.906454,417.416338 368.491247,418.964464 C362.004563,426.443651 357.255246,433.539652 354.172985,440.399845 C354.536055,440.690759 354.844153,441.030373 355.093444,441.403307 C369.297928,440.34602 379.504803,450.558775 387.989652,459.06193 C391.81723,462.896359 395.445376,466.530864 399.221817,469.181132 C401.110038,469.619425 402.871696,470.08335 404.584774,470.588285 C418.715109,474.75592 428.397834,481.91728 433.364481,491.872443 C433.419453,491.982657 433.470589,492.096716 433.516612,492.212056 C436.001854,498.444285 441.171769,503.716625 447.345241,506.31563 C450.938869,507.829153 456.510208,509.077393 462.874164,506.623204 C465.00017,504.766223 466.361683,501.440574 467.681009,498.221293 C468.572065,496.041359 469.495082,493.789657 470.712134,491.801957 C472.00717,489.691226 474.762157,489.032504 476.86643,490.328162 C478.97326,491.62382 479.630366,494.386864 478.337887,496.497595 C477.497968,497.866301 476.750094,499.692525 475.958754,501.6264 C474.185591,505.959356 472.174642,510.869014 467.842089,514.126741 C467.544218,514.351014 467.220779,514.535559 466.878164,514.677812 C463.173313,516.225937 459.353405,517 455.52327,517" id="Fill-49" fill="#231916"></path>
            <path d="M446.65777,541 C444.449859,541 442.177988,540.830858 439.898441,540.496418 C439.538984,540.443881 439.187202,540.349059 438.850771,540.211952 C427.016828,535.367056 414.378265,530.497815 401.426296,528.824334 C399.978234,528.670568 398.674722,528.578309 397.456917,528.543711 C387.575045,534.480342 377.951572,537.991321 368.834665,538.98439 C367.189605,539.197099 365.375689,539.353428 363.073117,539.479003 C358.890111,540.496418 354.822233,540.732192 350.971821,540.19145 C347.271075,539.666084 343.730231,538.410332 340.447786,536.461354 C333.275274,532.69538 328.610006,526.151376 324.095685,519.823925 C318.502993,511.981883 313.662475,505.19698 305.181333,505.19698 C305.070042,505.19698 304.960031,505.19698 304.850019,505.199543 C304.660696,505.204668 304.47649,505.195698 304.285889,505.175196 C300.157888,504.738246 295.715203,504.374334 292.306117,504.105245 C286.961591,503.683671 281.610669,503.291569 276.249513,502.899467 C256.86825,501.479698 236.826917,500.012519 216.795817,497.075598 C205.085958,495.316264 185.992517,490.462399 167.470882,482.109087 C153.220518,475.681688 135.037872,465.101339 129.336447,451.189403 C128.397509,448.898297 129.491231,446.277876 131.778453,445.338625 C134.059279,444.39553 136.681653,445.489828 137.619311,447.783497 C145.857403,467.880651 193.661362,484.529612 218.108284,488.203327 C237.802952,491.090275 257.680547,492.547203 276.903187,493.952876 C282.279694,494.347541 287.647246,494.739643 293.008401,495.16378 C296.399579,495.430307 300.801329,495.791656 304.958751,496.227324 C305.043179,496.227324 305.127607,496.226043 305.212034,496.226043 C318.271457,496.226043 325.230342,505.985028 331.382047,514.608711 C335.485743,520.363386 339.36174,525.798997 344.688357,528.560369 C344.771505,528.602655 344.852095,528.648785 344.931406,528.696196 C347.217349,530.068553 349.672147,530.947579 352.229281,531.310209 C355.047374,531.713844 358.099561,531.498572 361.297578,530.677208 C361.586679,530.604169 361.882176,530.559321 362.178952,530.543945 C364.453381,530.427339 366.18159,530.283825 367.780598,530.077523 C375.993106,529.181838 384.742881,525.872036 393.873859,520.228841 C394.573585,519.795735 395.379485,519.563805 396.203295,519.561242 C398.115709,519.554835 400.093363,519.665034 402.470129,519.916184 C416.385341,521.712678 429.994822,526.90739 441.718752,531.694623 C443.440565,531.92399 445.145747,532.04444 446.794645,532.030345 C453.244406,532.003436 459.389715,530.21463 465.581076,526.558855 C466.685032,525.887412 467.690488,525.212125 468.605121,524.527869 C468.731763,524.433047 468.860963,524.345913 468.996559,524.265186 C474.549595,520.955383 474.839975,514.973904 474.856605,505.490416 C474.865559,500.493036 474.874514,495.325233 476.201051,490.420113 C476.845772,488.027778 479.306966,486.614417 481.691407,487.262795 C484.078407,487.909891 485.489372,490.372702 484.843373,492.762475 C483.827682,496.525886 483.820007,500.887701 483.811053,505.505792 C483.794423,514.996969 483.776514,525.74646 473.78335,531.848389 C472.689629,532.65822 471.508921,533.446269 470.181104,534.254819 C462.636342,538.708894 454.798642,540.967966 446.833021,541 L446.65777,541 Z" id="Fill-51" fill="#231916"></path>
            <path d="M133.699759,454 C132.283347,454 130.889883,453.323666 130.024227,452.05955 C112.703455,426.80932 109.017724,386.542422 132.826454,362.865599 C147.635675,348.142822 167.935884,341.270396 183.966458,336.928768 C207.498535,330.556855 231.637464,327.838685 252.145482,326.020155 C254.609861,325.785299 256.766989,327.63078 256.982447,330.099976 C257.19918,332.57174 255.383724,334.750896 252.929544,334.969068 C232.805271,336.75423 209.150804,339.413365 186.284224,345.604324 C171.31309,349.658477 152.421644,356.01114 139.098954,369.258046 C123.018659,385.247506 117.973886,418.681762 137.367642,446.956886 C138.768756,448.997439 138.258796,451.795177 136.230433,453.204313 C135.457844,453.742043 134.57434,454 133.699759,454" id="Fill-53" fill="#231916"></path>
            <path d="M555.405999,223 C554.958074,223 554.502599,222.929982 554.053415,222.783581 C551.738295,222.028659 550.467495,219.518193 551.213618,217.175771 C556.827785,199.555408 557.694697,182.514286 553.792964,166.527254 C553.209151,164.139001 554.64981,161.722742 557.011485,161.133317 C559.361835,160.536254 561.75874,162.001541 562.342553,164.391066 C566.644399,182.010156 565.719609,200.689701 559.595864,219.910294 C558.995694,221.798236 557.266903,223 555.405999,223" id="Fill-55" fill="#231916"></path>
            <path d="M558.526866,171 C556.519597,171 554.694924,169.620351 554.19183,167.557988 C552.847267,162.043269 550.915335,156.642336 548.449664,151.503886 C547.371971,149.256621 548.297715,146.54775 550.518223,145.455151 C552.740008,144.363844 555.412535,145.302575 556.490229,147.548546 C559.229154,153.257217 561.374326,159.259403 562.868285,165.388305 C563.460761,167.815298 561.998724,170.268152 559.602005,170.865526 C559.2432,170.95733 558.88184,171 558.526866,171" id="Fill-57" fill="#231916"></path>
            <path d="M544.504013,141 C543.11568,141 541.746629,140.353477 540.866066,139.134429 C529.944512,124.022917 514.906807,113.669454 498.520619,109.981154 C496.096178,109.437192 494.567726,107.006887 495.108919,104.558406 C495.648826,102.108628 498.044986,100.559827 500.479711,101.111579 C518.997248,105.278929 535.922057,116.880001 548.134247,133.777892 C549.59971,135.804444 549.160071,138.647589 547.153416,140.126285 C546.352553,140.715685 545.424427,141 544.504013,141" id="Fill-59" fill="#231916"></path>
            <path d="M507.862373,203 C506.948353,203 506.026717,202.717474 505.233297,202.129412 C503.256729,200.665647 502.832725,197.86468 504.28754,195.874216 C509.477142,188.767608 511.256942,180.96683 509.431441,173.314346 C507.322848,164.46784 500.404225,156.507262 490.450294,151.474214 C488.257916,150.365844 487.371824,147.677375 488.473726,145.468305 C489.574358,143.261792 492.241519,142.366914 494.437706,143.476563 C506.735082,149.695964 515.34972,159.809361 518.072737,171.226724 C520.492351,181.374638 518.140019,192.012179 511.444823,201.177006 C510.575235,202.36975 509.227056,203 507.862373,203" id="Fill-61" fill="#231916"></path>
            <path d="M51.2356014,294.492778 C45.8982801,314.427946 50.1181631,336.392282 62.492428,351.612318 C77.6875585,370.302896 100.986336,373.250811 124.318091,373.051472 C126.677268,369.593709 131.566853,362.885188 137.535825,357.255142 C136.280134,357.230864 135.50262,357.207863 135.462032,357.206585 C119.120291,356.591957 108.814745,354.1475 103.951796,349.733932 C93.7261582,340.458284 88.8010588,325.518089 90.8888037,310.829624 L73.3750841,303.797816 L51.2356014,294.492778 Z M126.684878,382 C126.531405,382 126.377932,381.992333 126.224458,381.975722 C101.289477,382.291341 73.608465,379.403483 55.6229099,357.280699 C40.1487369,338.245111 35.790601,311.312637 44.2519295,286.993291 C44.6565411,285.830481 45.5177676,284.887455 46.6339375,284.386552 C47.7488389,283.886927 49.0210189,283.870315 50.1511409,284.344384 L76.7286671,295.516307 L97.5579186,303.879596 C99.5911235,304.693563 100.728856,306.879902 100.243068,309.029184 C97.396835,321.581146 101.275525,335.269084 109.892864,343.088024 C115.816174,348.462508 140.832331,348.787072 152.034618,348.272114 C153.020145,348.03444 154.005672,347.88877 154.987394,347.846602 C157.80826,347.726487 160.742011,347.601262 161.792225,350.936355 C162.398508,352.860742 161.645094,354.961467 159.960692,356.056553 C159.141322,356.588124 156.651502,356.905021 153.554131,357.087749 C146.744226,359.012136 137.608122,369.471039 132.081813,377.456095 C132.095765,379.900552 130.15642,381.907997 127.723677,381.951443 C127.575277,381.955277 127.425609,381.957832 127.277209,381.960388 C127.080611,381.987222 126.884013,382 126.684878,382 L126.684878,382 Z" id="Fill-63" fill="#231916"></path>
            <path d="M420.224176,112 C419.383186,112 418.53325,111.763902 417.777892,111.271288 C408.259881,105.04852 367.039875,99.1767072 351.960851,97.4397943 C349.923559,97.2049728 348.305484,95.6173757 348.038361,93.5856597 C347.771238,91.5552199 348.92025,89.6026286 350.827176,88.8496685 C379.700735,77.432752 430.171629,86.1798508 432.306056,86.5563308 C434.738281,86.9864114 436.361468,89.3052732 435.930748,91.7338884 C435.500028,94.1625037 433.159827,95.7743487 430.745496,95.3532015 C430.383794,95.2881152 404.005086,90.7269639 379.460452,92.2801035 C396.001623,94.9933122 415.354615,99.0095246 422.678128,103.795288 C424.744816,105.148063 425.323795,107.916149 423.971565,109.97977 C423.112682,111.289155 421.682488,112 420.224176,112" id="Fill-65" fill="#231916"></path>
            <path d="M363.243596,482.410617 C362.200986,483.703175 361.342214,485.169782 360.691708,486.772043 C360.672424,486.816834 360.65314,486.862906 360.633856,486.907697 C359.911357,488.525315 359.415121,490.270909 359.158004,492.093289 C358.497212,496.790013 359.872789,502.031914 362.582805,505.135335 C364.426335,507.245661 366.645257,508.172208 369.40541,508.025035 C373.915246,507.751166 378.143538,504.715573 380.71471,499.901112 C383.176608,495.290133 383.681843,489.775642 382.035007,485.508918 C381.501489,484.10502 380.767419,482.871331 379.841797,481.824486 C379.79166,481.768177 379.744093,481.710587 379.697812,481.652998 C377.825998,479.304636 374.792015,477.958328 371.376213,477.958328 C369.782087,477.958328 368.151963,478.259072 366.647828,478.828565 C365.867477,479.273922 365.18226,480.135201 364.574178,480.897939 C364.147363,481.432879 363.739832,481.947343 363.243596,482.410617 M368.807612,517 C363.71412,517 359.213284,514.930626 355.792339,511.014557 C351.404634,505.991495 349.229422,498.074893 350.247607,490.848082 C350.617855,488.224571 351.333927,485.699603 352.377823,483.341003 C353.423004,480.792999 354.825579,478.461274 356.548264,476.411097 C356.714104,476.212734 356.896658,476.031008 357.092067,475.864639 C357.221911,475.718746 357.36204,475.53574 357.521452,475.334818 C358.499783,474.106247 360.136334,472.049671 362.761501,470.743035 C362.873347,470.688005 362.987764,470.636814 363.103467,470.590743 C365.715778,469.550297 368.576207,469 371.376213,469 C377.513601,469 383.08276,471.548004 386.674687,475.993894 C388.28167,477.834191 389.549258,479.961154 390.444026,482.318474 C393.029339,489.014184 392.364691,497.167542 388.660918,504.106407 C384.606179,511.69539 377.612591,516.503453 369.950498,516.965446 C369.564823,516.989762 369.181718,517 368.807612,517" id="Fill-67" fill="#231916"></path>
            <path d="M457.430747,510 C456.425133,510 455.413186,509.651591 454.583618,508.93923 C452.707907,507.328 452.46347,504.46949 454.03775,502.552593 C454.879983,501.525498 455.660157,500.151289 456.352941,498.466232 C456.684769,497.660617 456.996332,496.77988 457.282564,495.852516 C459.177273,487.376719 459.472371,479.206589 459.81433,469.755505 C459.859925,468.491389 459.90552,467.215615 459.95618,465.921709 C459.84726,462.881872 459.686412,460.940365 459.685146,460.919642 C459.548362,459.278622 460.29434,457.686819 461.631781,456.768522 C462.971756,455.850224 464.689152,455.747903 466.126648,456.49912 C466.705446,456.804787 467.267779,457.115636 467.811114,457.436846 C469.170086,458.23469 470.465733,459.114131 471.663857,460.045381 C480.943622,466.376325 480.833435,477.450296 480.742246,486.3561 C480.713116,489.357082 480.683986,492.192277 480.968952,494.675178 C481.256452,497.161965 479.514992,499.413025 477.084547,499.70574 C474.636371,500.002341 472.450364,498.217554 472.165398,495.732062 C471.812039,492.676683 471.846235,489.415366 471.877898,486.262846 C471.958955,478.336214 471.756313,472.857512 468.701475,469.321613 C468.69261,469.578063 468.683744,469.834512 468.673612,470.090962 C468.327853,479.649548 468.002358,488.680987 465.883477,498.056949 C465.858146,498.163155 465.831549,498.269362 465.79862,498.374273 C465.417399,499.639685 464.989316,500.853288 464.527038,501.980114 C463.485961,504.505756 462.242242,506.658381 460.82881,508.380998 C459.951114,509.449539 458.695997,510 457.430747,510" id="Fill-69" fill="#231916"></path>
            <path d="M441.430305,512 C440.423407,512 439.411442,511.650296 438.580593,510.937935 C436.707382,509.328 436.464206,506.468195 438.038514,504.550002 C438.880762,503.525498 439.659684,502.151289 440.351214,500.467528 C440.683047,499.660617 440.995883,498.781176 441.28212,497.853811 C443.178129,489.372833 443.471966,481.198818 443.813932,471.743848 C443.858261,470.483617 443.905123,469.21173 443.954518,467.923004 C443.846862,464.881872 443.686011,462.940365 443.684745,462.919642 C443.547959,461.278622 444.29395,459.686819 445.631415,458.768522 C446.971414,457.850224 448.690107,457.747903 450.126362,458.49912 C450.702637,458.803492 451.261181,459.11434 451.801993,459.431665 C453.166056,460.233394 454.462992,461.111541 455.662404,462.045381 C464.942335,468.37503 464.832147,479.447706 464.742222,488.35351 C464.713092,491.355786 464.682695,494.190982 464.968933,496.673883 C465.256437,499.160669 463.516213,501.413025 461.085724,501.70574 C458.647637,501.99716 456.448925,500.217554 456.16522,497.733358 C455.811856,494.675387 455.846052,491.41407 455.876449,488.261551 C455.957508,480.333623 455.754862,474.856217 452.699969,471.321613 C452.69237,471.574177 452.682238,471.825446 452.673372,472.07801 C452.327607,481.643072 452.002106,490.675806 449.883187,500.058244 C449.857856,500.165746 449.831259,500.271952 449.798329,500.376864 C449.415834,501.642275 448.987744,502.854584 448.526723,503.980114 C447.485628,506.507051 446.241887,508.660971 444.827163,510.383589 C443.949452,511.449539 442.694311,512 441.430305,512" id="Fill-71" fill="#231916"></path>
            <path d="M355.506284,445 C353.819655,445 352.203784,444.095748 351.433157,442.551187 C350.37049,440.416418 351.330235,437.866181 353.577789,436.855618 C366.369673,431.107505 382.066522,427.260766 397.773664,426.027806 C397.852142,426.021696 397.931906,426.016808 398.010384,426.015586 C400.834299,425.936158 403.170622,426.159778 405.158298,426.698663 C405.844014,426.885623 406.471836,427.222885 406.994164,427.684787 L415.570117,435.289062 C417.387972,436.900831 417.485748,439.607478 415.787539,441.334112 C414.090617,443.060745 411.242258,443.153614 409.423117,441.541845 L401.738724,434.726959 C400.824007,434.586433 399.697014,434.531445 398.393768,434.561994 C383.988586,435.708195 369.063649,439.35942 357.429634,444.588199 C356.808244,444.868028 356.152118,445 355.506284,445" id="Fill-73" fill="#231916"></path>
            <path d="M401.411622,435 C399.68818,435 398.050406,433.976148 397.343643,432.276909 C396.402553,430.016325 397.460807,427.418681 399.707077,426.473392 L411.885816,421.345263 C414.127047,420.399974 416.71473,421.46184 417.65708,423.723691 C418.59691,425.983008 417.538656,428.581919 415.292386,429.527208 L403.113647,434.655337 C402.556804,434.888491 401.979804,435 401.411622,435" id="Fill-75" fill="#231916"></path>
            <path d="M369.243047,452 C367.448284,452 365.751581,450.91741 365.047095,449.141185 C359.945374,436.27587 364.59292,422.020692 376.609188,413.638725 C378.93296,411.89232 381.57672,410.253525 384.466921,408.761237 C397.705072,401.935087 412.330262,400.109595 412.944429,400.035693 C415.454001,399.721937 417.670681,401.512423 417.967443,404.000435 C418.264205,406.48715 416.499118,408.746975 414.023093,409.045173 C413.771491,409.077586 400.297221,410.799358 388.589327,416.837226 C386.123625,418.107811 383.892751,419.492488 381.95993,420.951067 C381.91219,420.98737 381.863159,421.021079 381.814129,421.057382 C375.237632,425.61852 369.095956,434.83285 373.436418,445.780619 C374.36025,448.10916 373.229975,450.748863 370.913944,451.675871 C370.36429,451.896279 369.800442,452 369.243047,452" id="Fill-77" fill="#231916"></path>
            <path d="M477.439812,362.898342 C457.070713,362.898342 439.413003,378.114508 436.367299,398.293406 C432.946602,420.972739 448.612401,442.207997 471.291201,445.630045 C473.365738,445.942759 475.473324,446.101658 477.554216,446.101658 C497.924586,446.101658 515.582297,430.884221 518.625458,410.705323 C519.950009,401.930286 518.489444,393.146351 514.400116,385.303097 C508.270573,373.544574 496.795794,365.345387 483.704098,363.369955 C481.62829,363.057241 479.520704,362.898342 477.439812,362.898342 M477.554216,455 C475.029689,455 472.477196,454.80805 469.962837,454.429235 C442.433283,450.273709 423.41543,424.496482 427.569587,396.965011 C431.266126,372.470416 452.705543,354 477.439812,354 C479.963068,354 482.518104,354.19195 485.032462,354.570765 C500.924528,356.969504 514.85265,366.919122 522.290218,381.189521 C527.255377,390.715832 529.032461,401.37986 527.424441,412.033718 C523.729173,436.528312 502.289756,455 477.554216,455" id="Fill-79" fill="#231916"></path>
            <path d="M472.319008,435.947491 C470.648295,435.693853 468.534695,434.05744 468.810382,432.212451 C469.014594,430.847701 473.711482,426.638861 474.191382,423.430409 C474.708295,419.979907 465.706351,420.332683 467.158813,410.624927 C467.927163,405.489087 472.746578,401.544185 477.916984,402.332136 C485.155042,403.432949 487.43967,411.003453 486.479871,417.422931 C485.411584,424.56341 478.602373,436.904104 472.319008,435.947491 M478.810414,398.528859 C473.481743,397.717733 469.835273,392.731243 470.63936,387.35464 C471.443447,381.979325 476.386667,378.300935 481.715337,379.112061 C487.045284,379.923186 490.693031,384.909676 489.888944,390.284992 C489.083581,395.661595 484.140361,399.339984 478.810414,398.528859" id="Fill-81" fill="#231916"></path>
            <path d="M187.733466,184.974571 L206.999524,204.25747 L226.265582,184.974571 L206.999524,165.691672 L187.733466,184.974571 Z M206.999524,215 C205.862565,215 204.724335,214.565162 203.855419,213.696758 L178.302422,188.121424 C176.565859,186.383344 176.565859,183.565798 178.302422,181.827718 L203.855419,156.251113 C205.523382,154.582962 208.475665,154.582962 210.143628,156.251113 L235.697896,181.827718 C236.531243,182.663064 237,183.793388 237,184.974571 C237,186.155753 236.531243,187.286078 235.697896,188.121424 L210.143628,213.696758 C209.274712,214.565162 208.137753,215 206.999524,215 L206.999524,215 Z" id="Fill-83" fill="#231916"></path>
            <path d="M146.734418,154.999524 L166.000476,174.265582 L185.266534,154.999524 L166.000476,135.733466 L146.734418,154.999524 Z M166.000476,185 C164.820326,185 163.690988,184.531243 162.856372,183.697896 L137.302104,158.143628 C136.468757,157.309012 136,156.179674 136,154.999524 C136,153.819373 136.468757,152.690036 137.302104,151.855419 L162.856372,126.302422 C164.594204,124.565859 167.406749,124.565859 169.144581,126.302422 L194.697578,151.855419 C196.434141,153.591981 196.434141,156.407066 194.697578,158.143628 L169.144581,183.697896 C168.309964,184.531243 167.180627,185 166.000476,185 L166.000476,185 Z" id="Fill-85" fill="#231916"></path>
            <path d="M230.733466,152.974571 L249.999524,172.25747 L269.265582,152.974571 L249.999524,133.691672 L230.733466,152.974571 Z M249.999524,183 C248.862565,183 247.724335,182.565162 246.855419,181.696758 L221.302422,156.121424 C219.565859,154.383344 219.565859,151.565798 221.302422,149.827718 L246.855419,124.251113 C248.523382,122.582962 251.475665,122.582962 253.143628,124.251113 L278.697896,149.827718 C279.531243,150.663064 280,151.793388 280,152.974571 C280,154.155753 279.531243,155.286078 278.697896,156.121424 L253.143628,181.696758 C252.274712,182.565162 251.137753,183 249.999524,183 L249.999524,183 Z" id="Fill-87" fill="#231916"></path>
            <path d="M275.734418,180.000635 L295.000476,199.266795 L314.266534,180.000635 L295.000476,160.734475 L275.734418,180.000635 Z M295.000476,210 C293.863517,210 292.725288,209.56554 291.856372,208.697889 L266.302104,183.144757 C265.468757,182.310135 265,181.180792 265,180.000635 C265,178.820478 265.468757,177.691135 266.302104,176.856514 L291.856372,151.302111 C292.690988,150.46876 293.821596,150 295.000476,150 C296.180627,150 297.309964,150.46876 298.144581,151.302111 L323.697578,176.856514 C325.434141,178.593085 325.434141,181.408185 323.697578,183.144757 L298.144581,208.697889 C297.275665,209.56554 296.138706,210 295.000476,210 L295.000476,210 Z" id="Fill-89" fill="#231916"></path>
            <path d="M314.733466,146.999524 L333.999524,166.265582 L353.265582,146.999524 L333.999524,127.733466 L314.733466,146.999524 Z M333.999524,177 L333.999524,177 C332.819373,177 331.690036,176.531243 330.855419,175.697896 L305.302422,150.143628 C303.565859,148.407066 303.565859,145.591981 305.302422,143.855419 L330.855419,118.302422 C332.593251,116.565859 335.405796,116.565859 337.143628,118.302422 L362.697896,143.855419 C363.531243,144.690036 364,145.819373 364,146.999524 C364,148.179674 363.531243,149.309012 362.697896,150.143628 L337.143628,175.697896 C336.309012,176.531243 335.178404,177 333.999524,177 L333.999524,177 Z" id="Fill-91" fill="#231916"></path>
            <line x1="43" y1="214" x2="77" y2="255" id="Fill-93" fill="#FEFEFE"></line>
            <path d="M78.5122813,259 C77.2447721,259 75.9836774,258.47675 75.0959079,257.456663 L40.076477,217.261988 C38.4651495,215.41426 38.6883748,212.634493 40.5742437,211.055938 C42.4588297,209.474867 45.2927647,209.694984 46.9040921,211.54397 L81.923523,251.738645 C83.5348505,253.586372 83.3116252,256.366139 81.4257563,257.944695 C80.5803225,258.654101 79.5437361,259 78.5122813,259" id="Fill-95" fill="#231916"></path>
            <line x1="77" y1="214" x2="43" y2="255" id="Fill-97" fill="#FEFEFE"></line>
            <path d="M43.4877187,259 C42.4562639,259 41.4196775,258.654101 40.5742437,257.944695 C38.6883748,256.366139 38.4651495,253.586372 40.076477,251.738645 L75.0959079,211.54397 C76.7072353,209.694984 79.5411703,209.474867 81.4257563,211.055938 C83.3116252,212.634493 83.5348505,215.41426 81.923523,217.261988 L46.9040921,257.456663 C46.0163226,258.47675 44.7552279,259 43.4877187,259" id="Fill-99" fill="#231916"></path>
            <path d="M47.7192778,217 L35.2807222,217 C32.9165405,217 31,214.985286 31,212.5 C31,210.014714 32.9165405,208 35.2807222,208 L47.7192778,208 C50.0834595,208 52,210.014714 52,212.5 C52,214.985286 50.0834595,217 47.7192778,217" id="Fill-101" fill="#231916"></path>
            <path d="M84.7190285,217 L72.2809715,217 C69.9166521,217 68,214.985286 68,212.5 C68,210.014714 69.9166521,208 72.2809715,208 L84.7190285,208 C87.0833479,208 89,210.014714 89,212.5 C89,214.985286 87.0833479,217 84.7190285,217" id="Fill-103" fill="#231916"></path>
            <path d="M47.7192778,261 L35.2807222,261 C32.9165405,261 31,258.985286 31,256.5 C31,254.014714 32.9165405,252 35.2807222,252 L47.7192778,252 C50.0834595,252 52,254.014714 52,256.5 C52,258.985286 50.0834595,261 47.7192778,261" id="Fill-105" fill="#231916"></path>
            <path d="M84.7190285,261 L72.2809715,261 C69.9166521,261 68,258.985286 68,256.5 C68,254.014714 69.9166521,252 72.2809715,252 L84.7190285,252 C87.0833479,252 89,254.014714 89,256.5 C89,258.985286 87.0833479,261 84.7190285,261" id="Fill-107" fill="#231916"></path>
            <path d="M430.513608,502 C429.350365,502 428.185831,501.549107 427.303726,500.649919 C425.551123,498.863239 425.567888,495.983761 427.339836,494.217871 L444.312619,477.312628 C446.087146,475.549337 448.94496,475.563631 450.696274,477.349011 C452.448877,479.135692 452.432112,482.01517 450.660164,483.78106 L433.687381,500.686303 C432.806565,501.562101 431.660087,502 430.513608,502" id="Fill-109" fill="#231916"></path>
            <path d="M480.423584,62 C478.783084,62 477.196221,61.1348257 476.373355,59.6182109 L475.405277,57.8315491 C471.951594,54.6293802 468.165624,51.7510118 464.138943,49.2693949 C461.998706,47.9498761 461.357681,45.1854137 462.705141,43.0928693 C464.052601,40.9977652 466.87965,40.3719216 469.018579,41.6901606 C473.780476,44.6235623 478.2441,48.0509837 482.28648,51.8738768 C482.631848,52.2015168 482.92358,52.5803505 483.1499,52.9962997 L484.465963,55.4203236 C485.649896,57.6062966 484.799558,60.3182854 482.565129,61.4778238 C481.880933,61.8310606 481.147026,62 480.423584,62" id="Fill-111" fill="#231916"></path>
        </g>
    </g>
</svg>