<?xml version="1.0" encoding="utf-8"?>
<!-- Generator: Adobe Illustrator 17.1.0, SVG Export Plug-In . SVG Version: 6.00 Build 0)  -->
<!DOCTYPE svg PUBLIC "-//W3C//DTD SVG 1.1//EN" "http://www.w3.org/Graphics/SVG/1.1/DTD/svg11.dtd" [
	<!ENTITY ns_flows "http://ns.adobe.com/Flows/1.0/">
	<!ENTITY ns_extend "http://ns.adobe.com/Extensibility/1.0/">
	<!ENTITY ns_ai "http://ns.adobe.com/AdobeIllustrator/10.0/">
	<!ENTITY ns_graphs "http://ns.adobe.com/Graphs/1.0/">
]>
<svg version="1.1" id="圖層_1" xmlns:x="&ns_extend;" xmlns:i="&ns_ai;" xmlns:graph="&ns_graphs;"
	 xmlns="http://www.w3.org/2000/svg" xmlns:xlink="http://www.w3.org/1999/xlink" xmlns:a="http://ns.adobe.com/AdobeSVGViewerExtensions/3.0/"
	 x="0px" y="0px" viewBox="0 0 595.3 944.5" enable-background="new 0 0 595.3 944.5" xml:space="preserve">
<g>
	<g>
		<path fill="none" stroke="#000000" stroke-width="7" stroke-linejoin="round" stroke-miterlimit="10" d="M60.6,275.1
			c-11,6.6-13.8,22.1-13.8,22.1s15,4.9,26-1.6c11-6.6,13.8-22.1,13.8-22.1S71.6,268.6,60.6,275.1z"/>
		<g>
			<path fill="none" stroke="#000000" stroke-width="7" stroke-linejoin="round" stroke-miterlimit="10" d="M53,313.5
				c-11,6.6-13.8,22.1-13.8,22.1s15,4.9,26-1.6S79,311.9,79,311.9S64,306.9,53,313.5z"/>
			<path fill="none" stroke="#000000" stroke-width="7" stroke-linejoin="round" stroke-miterlimit="10" d="M108,322.5
				c-8.2-9.8-24-10.2-24-10.2s-2.6,15.6,5.6,25.5c8.2,9.8,24,10.2,24,10.2S116.2,332.3,108,322.5z"/>
		</g>
		<g>
			<path fill="none" stroke="#000000" stroke-width="7" stroke-linejoin="round" stroke-miterlimit="10" d="M81.1,235.7
				c-12.3,3.5-18.9,17.9-18.9,17.9s13.3,8.6,25.6,5.1c12.3-3.5,18.9-17.9,18.9-17.9S93.4,232.1,81.1,235.7z"/>
			<path fill="none" stroke="#000000" stroke-width="7" stroke-linejoin="round" stroke-miterlimit="10" d="M132,258.4
				c-5.4-11.6-20.6-16-20.6-16s-6.5,14.4-1.1,26c5.4,11.6,20.6,16,20.6,16S137.4,270,132,258.4z"/>
		</g>
		<g>
			<path fill="none" stroke="#000000" stroke-width="7" stroke-linejoin="round" stroke-miterlimit="10" d="M110.7,201.3
				c-12.8,0.7-22.5,13.2-22.5,13.2s11,11.4,23.8,10.6s22.5-13.2,22.5-13.2S123.5,200.6,110.7,201.3z"/>
			<path fill="none" stroke="#000000" stroke-width="7" stroke-linejoin="round" stroke-miterlimit="10" d="M155.2,234.8
				c-2.7-12.5-16.5-20.2-16.5-20.2s-9.5,12.6-6.9,25.1c2.7,12.5,16.5,20.2,16.5,20.2S157.9,247.3,155.2,234.8z"/>
		</g>
		<g>
			<path fill="none" stroke="#000000" stroke-width="7" stroke-linejoin="round" stroke-miterlimit="10" d="M147.3,173.2
				c-12.7-1.7-24.5,8.9-24.5,8.9s8.7,13.2,21.4,14.8c12.7,1.7,24.5-8.9,24.5-8.9S160,174.8,147.3,173.2z"/>
			<path fill="none" stroke="#000000" stroke-width="7" stroke-linejoin="round" stroke-miterlimit="10" d="M184.9,214.3
				c-0.3-12.8-12.5-22.9-12.5-22.9s-11.7,10.7-11.4,23.4s12.5,22.9,12.5,22.9S185.2,227.1,184.9,214.3z"/>
		</g>
		<path fill="none" stroke="#000000" stroke-width="7" stroke-linejoin="round" stroke-miterlimit="10" d="M116.1,287.7
			c-8.2-9.8-24-10.2-24-10.2s-2.6,15.6,5.6,25.5s24,10.2,24,10.2S124.2,297.6,116.1,287.7z"/>
		<path fill="none" stroke="#000000" stroke-width="7" stroke-linecap="round" stroke-miterlimit="10" d="M88.8,358.1
			c-12.9-33.1-7.1-69.6,10.6-99.3c19.5-32.7,49.7-58.4,82.9-76.5"/>
	</g>
</g>
<g>
	<g>
		<path fill="none" stroke="#000000" stroke-width="7" stroke-linejoin="round" stroke-miterlimit="10" d="M534.7,274.6
			c11,6.6,13.8,22.1,13.8,22.1s-15,4.9-26-1.6c-11-6.6-13.8-22.1-13.8-22.1S523.7,268,534.7,274.6z"/>
		<g>
			<path fill="none" stroke="#000000" stroke-width="7" stroke-linejoin="round" stroke-miterlimit="10" d="M542.3,313
				c11,6.6,13.8,22.1,13.8,22.1s-15,4.9-26-1.6s-13.8-22.1-13.8-22.1S531.3,306.4,542.3,313z"/>
			<path fill="none" stroke="#000000" stroke-width="7" stroke-linejoin="round" stroke-miterlimit="10" d="M487.3,322
				c8.2-9.8,24-10.2,24-10.2s2.6,15.6-5.6,25.5c-8.2,9.8-24,10.2-24,10.2S479.1,331.8,487.3,322z"/>
		</g>
		<g>
			<path fill="none" stroke="#000000" stroke-width="7" stroke-linejoin="round" stroke-miterlimit="10" d="M514.2,235.2
				c12.3,3.5,18.9,17.9,18.9,17.9s-13.3,8.6-25.6,5.1c-12.3-3.5-18.9-17.9-18.9-17.9S501.9,231.6,514.2,235.2z"/>
			<path fill="none" stroke="#000000" stroke-width="7" stroke-linejoin="round" stroke-miterlimit="10" d="M463.3,257.8
				c5.4-11.6,20.6-16,20.6-16s6.5,14.4,1.1,26c-5.4,11.6-20.6,16-20.6,16S457.9,269.4,463.3,257.8z"/>
		</g>
		<g>
			<path fill="none" stroke="#000000" stroke-width="7" stroke-linejoin="round" stroke-miterlimit="10" d="M484.6,200.8
				C497.4,201.5,507,214,507,214s-11,11.4-23.8,10.6c-12.8-0.7-22.5-13.2-22.5-13.2S471.8,200.1,484.6,200.8z"/>
			<path fill="none" stroke="#000000" stroke-width="7" stroke-linejoin="round" stroke-miterlimit="10" d="M440.1,234.3
				c2.7-12.5,16.5-20.2,16.5-20.2s9.5,12.6,6.9,25.1c-2.7,12.5-16.5,20.2-16.5,20.2S437.4,246.8,440.1,234.3z"/>
		</g>
		<g>
			<path fill="none" stroke="#000000" stroke-width="7" stroke-linejoin="round" stroke-miterlimit="10" d="M448,172.7
				c12.7-1.7,24.5,8.9,24.5,8.9s-8.7,13.2-21.4,14.8c-12.7,1.7-24.5-8.9-24.5-8.9S435.3,174.3,448,172.7z"/>
			<path fill="none" stroke="#000000" stroke-width="7" stroke-linejoin="round" stroke-miterlimit="10" d="M410.4,213.8
				c0.3-12.8,12.5-22.9,12.5-22.9s11.7,10.7,11.4,23.4c-0.3,12.8-12.5,22.9-12.5,22.9S410.1,226.6,410.4,213.8z"/>
		</g>
		<path fill="none" stroke="#000000" stroke-width="7" stroke-linejoin="round" stroke-miterlimit="10" d="M479.2,287.2
			c8.2-9.8,24-10.2,24-10.2s2.6,15.6-5.6,25.5c-8.2,9.8-24,10.2-24,10.2S471.1,297,479.2,287.2z"/>
		<path fill="none" stroke="#000000" stroke-width="7" stroke-linecap="round" stroke-miterlimit="10" d="M506.5,357.5
			c12.9-33.1,7.1-69.6-10.6-99.3c-19.5-32.7-49.7-58.4-82.9-76.5"/>
	</g>
</g>
<path stroke="#000000" stroke-width="7" stroke-linecap="round" stroke-linejoin="round" stroke-miterlimit="10" d="M170.7,799.3
	c-9.8-0.7-25.3-6.1-49.7-14.9l35.2-14.7l15.6,30.2"/>
<path stroke="#000000" stroke-width="7" stroke-linecap="round" stroke-linejoin="round" stroke-miterlimit="10" d="M435.3,772.4
	L422.8,798c9.6-1.7,28.4-6.8,46.9-13.5L435.3,772.4"/>
<path fill="none" stroke="#000000" stroke-width="7" stroke-linecap="round" stroke-linejoin="round" stroke-miterlimit="10" d="
	M215.5,255.2c-16.5-15.5-27.9-36.3-30.6-58.9"/>
<path fill="none" stroke="#000000" stroke-width="7" stroke-linecap="round" stroke-linejoin="round" stroke-miterlimit="10" d="
	M411.1,196.3c-2.5,20.8-12.1,39.7-26.5,54.8"/>
<g>
	<path d="M360.6,251.5c-1,0-2-0.4-2.7-1.3c-1.2-1.5-1-3.7,0.5-4.9c22.3-18.4,35.1-45.5,35.1-74.4c0-53.2-43.2-96.4-96.4-96.4
		c-53.2,0-96.4,43.2-96.4,96.4c0,26.1,10.3,50.6,29,68.9c1.4,1.4,1.4,3.6,0.1,4.9c-1.4,1.4-3.6,1.4-4.9,0.1
		c-20-19.6-31.1-45.9-31.1-73.9c0-57,46.4-103.4,103.4-103.4s103.4,46.4,103.4,103.4c0,31-13.7,60.1-37.6,79.8
		C362.2,251.2,361.4,251.5,360.6,251.5z"/>
</g>
<g>
	<g>
		<path fill="none" stroke="#000000" stroke-width="7" stroke-linecap="round" stroke-linejoin="round" stroke-miterlimit="10" d="
			M88.9,359.8"/>
		<path fill="none" stroke="#000000" stroke-width="10" stroke-linecap="round" stroke-linejoin="round" stroke-miterlimit="10" d="
			M209.9,805.5C186.8,785,174.8,756,169.8,726c-27,0-54,0-80.8-0.1c0-7.2,6.8,0,0,0c-0.2-88.9-0.2-177.9,0-266.7"/>
		<path fill="none" stroke="#000000" stroke-width="10" stroke-linecap="round" stroke-linejoin="round" stroke-miterlimit="10" d="
			M505.4,511.6v214.3h-81.5c-2.9,29.8-16.2,56.6-36.1,76.8"/>
		<path fill="none" stroke="#000000" stroke-width="7" stroke-linecap="round" stroke-linejoin="round" stroke-miterlimit="10" d="
			M505.4,508.6"/>
		<path fill="none" stroke="#000000" stroke-width="7" stroke-linecap="round" stroke-linejoin="round" stroke-miterlimit="10" d="
			M505.4,410.3"/>
		<path fill="none" stroke="#000000" stroke-width="7" stroke-linecap="round" stroke-linejoin="round" stroke-miterlimit="10" d="
			M361.3,808.5c30.5-20.6,50.6-55.5,50.6-95.2h80.9V514.7"/>
		<path fill="none" stroke="#000000" stroke-width="7" stroke-linecap="round" stroke-linejoin="round" stroke-miterlimit="10" d="
			M101.5,509.4v203.9h80.9c0,39.5,19.9,74.3,50.3,94.9"/>
		<path fill="none" stroke="#000000" stroke-width="7" stroke-linecap="round" stroke-linejoin="round" stroke-miterlimit="10" d="
			M101.5,510.4"/>
		<path fill="none" stroke="#000000" stroke-width="7" stroke-linecap="round" stroke-linejoin="round" stroke-miterlimit="10" d="
			M101.5,437.3"/>
		<path fill="none" stroke="#000000" stroke-width="7" stroke-linecap="round" stroke-linejoin="round" stroke-miterlimit="10" d="
			M101.5,353.1"/>
	</g>
</g>
<path fill="none" stroke="#000000" stroke-width="7" stroke-linecap="round" stroke-linejoin="round" stroke-miterlimit="10" d="
	M401.8,617.7"/>
<path fill="none" stroke="#000000" stroke-width="7" stroke-linecap="round" stroke-linejoin="round" stroke-miterlimit="10" d="
	M228.5,647.1"/>
<g>
	<g>
		<path fill="none" stroke="#000000" stroke-width="7" stroke-linejoin="round" stroke-miterlimit="10" d="M271.8,727.8
			c-5.3-3.7-12.8-2.3-16.5,3.1c3.8-5.4,2.5-12.9-2.8-16.6s-12.8-2.3-16.5,3.1l-10.6,15.2c-3.8,5.4-2.5,12.9,2.8,16.6
			s12.8,2.3,16.5-3.1c-3.8,5.4-2.5,12.9,2.8,16.6c5.3,3.7,12.8,2.3,16.5-3.1c-3.8,5.4-2.5,12.9,2.8,16.6c5.3,3.7,12.8,2.3,16.5-3.1
			c-3.8,5.4-2.5,12.9,2.8,16.6c5.3,3.7,12.8,2.3,16.5-3.1l10.6-15.2c3.8-5.4,2.5-12.9-2.8-16.6c-5.3-3.7-12.8-2.3-16.5,3.1
			c3.8-5.4,2.5-12.9-2.8-16.6s-12.8-2.3-16.5,3.1C278.4,739,277.1,731.5,271.8,727.8z"/>
		
			<line fill="none" stroke="#000000" stroke-width="7" stroke-linejoin="round" stroke-miterlimit="10" x1="244.1" y1="746.8" x2="255.2" y2="730.9"/>
		
			<line fill="none" stroke="#000000" stroke-width="7" stroke-linejoin="round" stroke-miterlimit="10" x1="263.5" y1="760.3" x2="275.1" y2="743.6"/>
		
			<line fill="none" stroke="#000000" stroke-width="7" stroke-linejoin="round" stroke-miterlimit="10" x1="283.4" y1="773.1" x2="294.5" y2="757.2"/>
		<g>
			<path fill="none" stroke="#000000" stroke-width="7" stroke-linecap="round" stroke-linejoin="round" stroke-miterlimit="10" d="
				M365.9,643l-21.5,15.9c-3,2.2-7,2.7-10.5,1.3l-29.7-12c-2.2-0.9-4.7-0.6-6.7,0.8l-37.3,27.5c-2.3,1.7-2.8,5-1.1,7.3l22,29.9
				c3.9,5.3,11.4,6.5,16.6,2.6c5.2-3.9,6.3-11.3,2.4-16.7l-12.7-17.3l9-6.7c0,0,21,3.6,27.9,8.5c6.9,5,28.9,22.1,28.9,22.1"/>
			<path fill="none" stroke="#000000" stroke-width="7" stroke-linecap="round" stroke-linejoin="round" stroke-miterlimit="10" d="
				M370.1,718.6c-0.4-2.6,4.1-12,6.2-13.6l14.4-10.6"/>
		</g>
		<g>
			<path fill="none" stroke="#000000" stroke-width="7" stroke-linecap="round" stroke-linejoin="round" stroke-miterlimit="10" d="
				M353.3,706.4l14.2,9.8c5.4,3.7,6.8,11.2,3.1,16.5c-3.7,5.3-11.1,6.7-16.6,2.9c5.4,3.7,6.8,11.2,3.1,16.5s-11.1,6.7-16.6,2.9
				c5.4,3.7,6.8,11.2,3.1,16.5s-11.1,6.7-16.6,2.9c5.4,3.7,0.2,10.3-1.1,12.2c-2.1,3-11.1,6.7-16.6,2.9l-6.6-3.2"/>
			
				<line fill="none" stroke="#000000" stroke-width="7" stroke-linecap="round" stroke-linejoin="round" stroke-miterlimit="10" x1="354.5" y1="735.9" x2="344.7" y2="729.1"/>
			
				<line fill="none" stroke="#000000" stroke-width="7" stroke-linecap="round" stroke-linejoin="round" stroke-miterlimit="10" x1="341" y1="755.4" x2="331.2" y2="748.6"/>
			
				<line fill="none" stroke="#000000" stroke-width="7" stroke-linecap="round" stroke-linejoin="round" stroke-miterlimit="10" x1="327.6" y1="774.8" x2="327.2" y2="774.5"/>
		</g>
		<path fill="none" stroke="#000000" stroke-width="7" stroke-linecap="round" stroke-linejoin="round" stroke-miterlimit="10" d="
			M148.5,583l109.6,81.4c2.7,1.9,5.9,3,9.1,3.2l4.7,0.3"/>
		<path fill="none" stroke="#000000" stroke-width="7" stroke-linecap="round" stroke-linejoin="round" stroke-miterlimit="10" d="
			M217.2,693.5"/>
		<path fill="none" stroke="#000000" stroke-width="7" stroke-linecap="round" stroke-linejoin="round" stroke-miterlimit="10" d="
			M228.7,727.6c-0.1-1,0-2.1,0.1-3.2l0.8-5.9c0.4-3.1-0.9-6.2-3.5-8l-14-9.7"/>
		
			<line fill="none" stroke="#000000" stroke-width="7" stroke-linecap="round" stroke-linejoin="round" stroke-miterlimit="10" x1="327.6" y1="774.8" x2="320.1" y2="770"/>
	</g>
	
		<line fill="none" stroke="#000000" stroke-width="7" stroke-linecap="round" stroke-linejoin="round" stroke-miterlimit="10" x1="462.7" y1="564.3" x2="492.8" y2="540.6"/>
	
		<line fill="none" stroke="#000000" stroke-width="7" stroke-linecap="round" stroke-linejoin="round" stroke-miterlimit="10" x1="425.5" y1="593.6" x2="439" y2="583"/>
	
		<line fill="none" stroke="#000000" stroke-width="7" stroke-linecap="round" stroke-linejoin="round" stroke-miterlimit="10" x1="390.7" y1="694.5" x2="492.8" y2="618.5"/>
	
		<line fill="none" stroke="#000000" stroke-width="7" stroke-linecap="round" stroke-linejoin="round" stroke-miterlimit="10" x1="148.5" y1="583" x2="101.5" y2="547.8"/>
	
		<line fill="none" stroke="#000000" stroke-width="7" stroke-linecap="round" stroke-linejoin="round" stroke-miterlimit="10" x1="151.3" y1="661.4" x2="101.5" y2="629.3"/>
	
		<line fill="none" stroke="#000000" stroke-width="7" stroke-linecap="round" stroke-linejoin="round" stroke-miterlimit="10" x1="162.8" y1="668.9" x2="151.3" y2="661.4"/>
	
		<line fill="none" stroke="#000000" stroke-width="7" stroke-linecap="round" stroke-linejoin="round" stroke-miterlimit="10" x1="165.3" y1="670.5" x2="162.8" y2="668.9"/>
	
		<line fill="none" stroke="#000000" stroke-width="7" stroke-linecap="round" stroke-linejoin="round" stroke-miterlimit="10" x1="212.2" y1="700.8" x2="165.3" y2="670.5"/>
</g>
<path fill="none" stroke="#000000" stroke-width="7" stroke-linecap="round" stroke-linejoin="round" stroke-miterlimit="10" d="
	M175.6,800.7c-15.5-21.1-25.8-46.6-29.3-74.8"/>
<path fill="none" stroke="#000000" stroke-width="7" stroke-linecap="round" stroke-linejoin="round" stroke-miterlimit="10" d="
	M448.1,725.9c-1.2,11.5-3.7,22.6-7.4,33.1c-5.1,14.8-12.5,28.5-21.6,40.8"/>
<g>
	<path fill="none" stroke="#000000" stroke-width="7" stroke-linecap="round" stroke-linejoin="round" stroke-miterlimit="10" d="
		M464.2,567.6"/>
	<path fill="none" stroke="#000000" stroke-width="7" stroke-linecap="round" stroke-linejoin="round" stroke-miterlimit="10" d="
		M443.9,567.6"/>
</g>
<line fill="none" stroke="#000000" stroke-width="7" stroke-linecap="round" stroke-linejoin="round" stroke-miterlimit="10" x1="380.4" y1="564.3" x2="370.7" y2="568.3"/>
<path fill="none" stroke="#000000" stroke-width="7" stroke-linecap="round" stroke-linejoin="round" stroke-miterlimit="10" d="
	M381.7,544.8c0,0-14.4,2.9-22.3,10c-1.6,1.5-16.1,19.2-12.5,28.3"/>
<path fill="none" stroke="#000000" stroke-width="7" stroke-linecap="round" stroke-linejoin="round" stroke-miterlimit="10" d="
	M419,799.9c17.1-4,34-8.8,50.8-14.5c0,25.5,19.4,55.2,19.4,83.5c-125.6,42.5-262,42.5-387.6,0c0-28.4,19.4-58,19.4-83.5
	C217.3,818,320.6,822.8,419,799.9"/>
<g>
	<g>
		<path d="M248.2,144.6c-3.2,0-5.8,0.1-9.7,0.5v-19.3c3.4,0.5,5.9,0.7,9.9,0.7h5.1v-8.9c0-6.8-0.1-9.6-0.7-13.6h20.8
			c-0.5,4.1-0.7,6.4-0.7,13.4v9.1h4.1c2.1,0,3.7-0.1,5.9-0.4v19l-0.9-0.1c-2-0.1-3.4-0.3-5-0.3H273v14.5c3.8-0.9,4.7-1.2,9.6-2.5
			v17.8c-4.7,1.6-5.7,1.8-9.6,3v34.1c0,11.6-5.4,15.7-21.2,15.7c-2.5,0-4.7-0.1-9.7-0.4c-0.7-7.8-1.6-11.5-4.3-19.6
			c5.7,0.5,8.9,0.8,12.1,0.8c3.2,0,3.7-0.7,3.7-4.1v-21.2c-6.7,1.7-10.9,2.9-13.2,3.7l-3.2-20.4c3.6-0.1,4.3-0.1,7.6-0.8
			c0.7-0.1,0.9-0.1,8.7-1.6v-19H248.2z M306.4,123.6c3.6-9.2,4.9-14,5.7-20l22.1,2.1c-0.8,2.1-0.8,2.1-3.6,10
			c-0.1,0.7-1.3,3.3-3.3,7.9h13.8c8.3,0,10.3-0.1,14.3-0.5c-0.5,4.3-0.7,7.6-0.7,14.1v71.7c0,5.8,0.3,12.2,0.8,18.2h-20.9v-5.8
			h-29.2v5.8h-20.4c0.5-5.9,0.8-13.2,0.8-18v-71.7c0-7.6,0-9.9-0.4-14.2c3.9,0.4,6.6,0.5,14.6,0.5H306.4z M305.5,162.4h29.2v-20.1
			h-29.2V162.4z M305.5,202.5h29.2v-22.1h-29.2V202.5z"/>
	</g>
</g>
<path fill="none" stroke="#000000" stroke-width="7" stroke-linecap="round" stroke-linejoin="round" stroke-miterlimit="10" d="
	M240.6,223.1"/>
<path fill="none" stroke="#000000" stroke-width="7" stroke-linecap="round" stroke-linejoin="round" stroke-miterlimit="10" d="
	M256.3,223.1"/>
<path fill="none" stroke="#000000" stroke-width="7" stroke-linecap="round" stroke-linejoin="round" stroke-miterlimit="10" d="
	M256.3,99.3"/>
<path fill="none" stroke="#000000" stroke-width="7" stroke-linecap="round" stroke-linejoin="round" stroke-miterlimit="10" d="
	M273.1,125.9"/>
<path fill="none" stroke="#000000" stroke-width="7" stroke-linecap="round" stroke-linejoin="round" stroke-miterlimit="10" d="
	M234.9,125.9"/>
<path fill="none" stroke="#000000" stroke-width="7" stroke-linecap="round" stroke-linejoin="round" stroke-miterlimit="10" d="
	M269.5,165.9"/>
<path fill="none" stroke="#000000" stroke-width="7" stroke-linecap="round" stroke-linejoin="round" stroke-miterlimit="10" d="
	M237.5,173.7"/>
<path fill="none" stroke="#000000" stroke-width="7" stroke-linecap="round" stroke-linejoin="round" stroke-miterlimit="10" d="
	M350.9,169.8"/>
<path fill="none" stroke="#000000" stroke-width="7" stroke-linecap="round" stroke-linejoin="round" stroke-miterlimit="10" d="
	M294,223.1"/>
<path fill="none" stroke="#000000" stroke-width="7" stroke-linecap="round" stroke-linejoin="round" stroke-miterlimit="10" d="
	M294,122.6"/>
<path fill="none" stroke="#000000" stroke-width="7" stroke-linecap="round" stroke-linejoin="round" stroke-miterlimit="10" d="
	M356.2,223.1"/>
<path fill="none" stroke="#000000" stroke-width="7" stroke-linecap="round" stroke-linejoin="round" stroke-miterlimit="10" d="
	M356.2,122.6"/>
<path fill="none" stroke="#000000" stroke-width="7" stroke-linecap="round" stroke-linejoin="round" stroke-miterlimit="10" d="
	M352.7,169.8"/>
<path fill="none" stroke="#000000" stroke-width="7" stroke-linecap="round" stroke-linejoin="round" stroke-miterlimit="10" d="
	M296.4,169.8"/>
<path fill="none" stroke="#000000" stroke-width="7" stroke-linecap="round" stroke-linejoin="round" stroke-miterlimit="10" d="
	M352.7,216.5"/>
<path fill="none" stroke="#000000" stroke-width="7" stroke-linecap="round" stroke-linejoin="round" stroke-miterlimit="10" d="
	M296.4,216.5"/>
<path fill="none" stroke="#000000" stroke-width="7" stroke-linecap="round" stroke-linejoin="round" stroke-miterlimit="10" d="
	M355,125.9"/>
<path fill="none" stroke="#000000" stroke-width="7" stroke-linecap="round" stroke-linejoin="round" stroke-miterlimit="10" d="
	M295,125.9"/>
<path fill="none" stroke="#000000" stroke-width="7" stroke-linecap="round" stroke-linejoin="round" stroke-miterlimit="10" d="
	M325,101.3"/>
<line fill="none" stroke="#000000" stroke-width="7" stroke-linecap="round" stroke-linejoin="round" stroke-miterlimit="10" x1="393.3" y1="620.5" x2="406.4" y2="607.5"/>
<line fill="none" stroke="#000000" stroke-width="7" stroke-linecap="round" stroke-linejoin="round" stroke-miterlimit="10" x1="360.9" y1="673.3" x2="375.4" y2="661.3"/>
<line fill="none" stroke="#000000" stroke-width="7" stroke-linecap="round" stroke-linejoin="round" stroke-miterlimit="10" x1="368.2" y1="682.8" x2="381.9" y2="673.3"/>
<g>
	<g>
		<path fill="none" stroke="#000000" stroke-width="7" stroke-linecap="round" stroke-linejoin="round" stroke-miterlimit="10" d="
			M120.6,293.2c13.3,0,26.6,0,39.9,0"/>
		
			<line fill="none" stroke="#000000" stroke-width="7" stroke-linecap="round" stroke-linejoin="round" stroke-miterlimit="10" x1="127.8" y1="308.6" x2="170.3" y2="308.6"/>
		
			<line fill="none" stroke="#000000" stroke-width="7" stroke-linecap="round" stroke-linejoin="round" stroke-miterlimit="10" x1="141.7" y1="324.8" x2="184.3" y2="324.8"/>
	</g>
	<path fill="none" stroke="#000000" stroke-width="7" stroke-linecap="round" stroke-linejoin="round" stroke-miterlimit="10" d="
		M194.5,261.1c0-6.3-5.1-11.5-11.5-11.5c-3.5,0-6.7,1.6-8.8,4.1c-2.1-2.5-5.3-4.1-8.8-4.1c-6.3,0-11.5,5.1-11.5,11.5
		c0,0.3,0,0.7,0,1c0,0.4,0,0.8,0,1.2c0,11.2,20.3,20.3,20.3,20.3s20.3-9.1,20.3-20.3c0-0.5,0-0.9,0-1.3
		C194.5,261.7,194.5,261.4,194.5,261.1z"/>
	<g>
		<path d="M256.3,266.3c0,6.4-4.6,11.6-4.6,11.6s-4.6-5.2-4.6-11.6c0-6.4,4.6-11.6,4.6-11.6S256.3,259.9,256.3,266.3z"/>
		<path d="M351.3,618c-0.6,0.9-1.2,2-1.9,3c-2.4,3.8-5.4,6.8-9.4,8.8c0-3.4-0.7-8.5,1.2-12.7c2.5-5.4,6.6-10,10.6-12
			c0,1,1.1,6.3,0.9,8.5C352.4,614.9,352,616.5,351.3,618z"/>
		<g>
			<g>
				<g>
					
						<rect x="203.6" y="360.8" transform="matrix(0.7071 0.7071 -0.7071 0.7071 329.0196 -44.1776)" fill="none" stroke="#000000" stroke-width="7" stroke-linecap="round" stroke-linejoin="round" stroke-miterlimit="10" width="28.4" height="28.4"/>
					
						<rect x="171.9" y="337.5" transform="matrix(0.7071 0.7071 -0.7071 0.7071 303.1984 -28.5865)" fill="none" stroke="#000000" stroke-width="7" stroke-linecap="round" stroke-linejoin="round" stroke-miterlimit="10" width="28.4" height="28.4"/>
					
						<rect x="237.7" y="336.6" transform="matrix(0.7071 0.7071 -0.7071 0.7071 321.884 -75.3726)" fill="none" stroke="#000000" stroke-width="7" stroke-linecap="round" stroke-linejoin="round" stroke-miterlimit="10" width="28.4" height="28.4"/>
					
						<rect x="273.1" y="357.6" transform="matrix(0.7071 0.7071 -0.7071 0.7071 347.0574 -94.2401)" fill="none" stroke="#000000" stroke-width="7" stroke-linecap="round" stroke-linejoin="round" stroke-miterlimit="10" width="28.4" height="28.4"/>
					
						<rect x="303" y="331.4" transform="matrix(0.7071 0.7071 -0.7071 0.7071 337.2948 -123.1155)" fill="none" stroke="#000000" stroke-width="7" stroke-linecap="round" stroke-linejoin="round" stroke-miterlimit="10" width="28.4" height="28.4"/>
				</g>
				<g>
					<g>
						
							<path fill="none" stroke="#000000" stroke-width="7" stroke-linecap="round" stroke-linejoin="round" stroke-miterlimit="10" d="
							M60.4,397.2c-2.9,13.9-0.2,30.6,8,42.3"/>
						<g>
							
								<path fill="none" stroke="#000000" stroke-width="7" stroke-linecap="round" stroke-linejoin="round" stroke-miterlimit="10" d="
								M334.1,576.6c7.3-3.4,26-7.9,33.1-8.5c1.7-0.1,3.2,0.1,4.5,0.4l6.7,6.2"/>
							<g>
								
									<path fill="none" stroke="#000000" stroke-width="7" stroke-linecap="round" stroke-linejoin="round" stroke-miterlimit="10" d="
									M412.8,608.8"/>
								<g>
									
										<circle fill="none" stroke="#000000" stroke-width="7" stroke-linecap="round" stroke-linejoin="round" stroke-miterlimit="10" cx="251.7" cy="266" r="11.1"/>
									
										<path fill="none" stroke="#000000" stroke-width="7" stroke-linecap="round" stroke-linejoin="round" stroke-miterlimit="10" d="
										M193.3,482.5c40.1,2.9,80.3,4.3,120.4,2.4c27.3-1.3,54.7-3.8,81.6-8.6c25.5-4.6,52.7-10.3,73.5-26.7c1.1-0.9,1-3,1.2-4.1"
										/>
									
										<path fill="none" stroke="#000000" stroke-width="7" stroke-linecap="round" stroke-linejoin="round" stroke-miterlimit="10" d="
										M81.4,450.5c18.1,12.1,88.8,29.5,111.9,32"/>
									
										<path fill="none" stroke="#000000" stroke-width="7" stroke-linecap="round" stroke-linejoin="round" stroke-miterlimit="10" d="
										M178.4,338c-21.1,1.5-42.3,4.3-62.6,10.5c-16.4,5-35.8,12-45.7,27c-1.6,2.4-2.9,4.9-3.8,7.6"/>
									
										<path fill="none" stroke="#000000" stroke-width="7" stroke-linecap="round" stroke-linejoin="round" stroke-miterlimit="10" d="
										M246.8,335.5c-17.1,0.3-34.2,0.7-51.3,1.5"/>
									
										<path fill="none" stroke="#000000" stroke-width="7" stroke-linecap="round" stroke-linejoin="round" stroke-miterlimit="10" d="
										M305.9,334.8c-15.8,0.3-31.5,0.4-47.3,0.6"/>
									
										<path fill="none" stroke="#000000" stroke-width="7" stroke-linecap="round" stroke-linejoin="round" stroke-miterlimit="10" d="
										M210.3,315c3.1-5.2,7.9-9.7,13.3-12.5c6.1-3.3,12.9-2.5,19.6-3c12.7-1,25.2-6.1,34.7-14.6c-0.8,0.7-1.7,1.4-2.5,2.1
										c0.8-0.7,1.7-1.4,2.5-2.1c-0.6,0.7-4.2,5.7-5.2,4.6c-1.1-1.1,4.4-4.1,5.2-4.6c-7.1,7.8-13.9,16-22,22.7
										c-8.1,6.6-17.5,11-27,15.1c18.3,4.5,38.7-1.7,54.7-10.6c8.6-4.8,14.5-11.1,20.5-18.8c4.8-6.3,13.4-6.9,20.7-7.2
										c18.7-0.8,38.7-2.1,56.7,4.1c7.7,2.6,14.8,8.3,15.8,16.9c0.9,7.8-4.2,14.8-10.3,19.1c-7.6,5.3-16.8,5.6-25.8,6.3
										c-10.9,0.9-21.9,1.4-32.8,1.8"/>
									
										<path fill="none" stroke="#000000" stroke-width="7" stroke-linecap="round" stroke-linejoin="round" stroke-miterlimit="10" d="
										M411.4,261c-30.6-13.4-65.6-12.4-98.6-13.4c-5-1-10-1-15-3c-22-10-48-17-70-1c-3,2-5,5-8,7c-2,2-3,4-4,6c-4,12-8,26-21,31
										c-7,2-20,3-18,13c3,11,16,14,25.4,19.8"/>
									
										<path fill="none" stroke="#000000" stroke-width="7" stroke-linecap="round" stroke-linejoin="round" stroke-miterlimit="10" d="
										M299.1,381.4c36.7-0.5,73.7-0.5,108.7-13.5c7.8-2.9,15.9-7.3,22-13c6.2-5.7,10.6-13.1,13.2-21.1
										c5.2-16.1,3.3-34.8-6.3-48.9"/>
									
										<path fill="none" stroke="#000000" stroke-width="7" stroke-linecap="round" stroke-linejoin="round" stroke-miterlimit="10" d="
										M232.5,381.2c14.5-0.1,29,0.1,43.5,0.3"/>
									
										<path fill="none" stroke="#000000" stroke-width="7" stroke-linecap="round" stroke-linejoin="round" stroke-miterlimit="10" d="
										M417.1,432.1C339.8,444,261.8,451,182.8,442c-9-1-17-4-26-6c-4-1-7-4-11-5c-4-2-7-5-10-9c-7-11,1-23,11-29c8-4,17-8,26-9
										s19-2,28.5-1.9"/>
									<g>
										
											<path fill="none" stroke="#000000" stroke-width="7" stroke-linecap="round" stroke-linejoin="round" stroke-miterlimit="10" d="
											M204.5,383.3c-16.7,2.7-34.1,2.2-50.2,8.1c-20.5,7.7-31.8,30.7-6.6,41.5c7.4,3.2,19.4,1.2,27.3,1.2
											c10.8,0.1,21.6-0.1,32.4-0.4c22.2-0.6,44.4-1.7,66.5-2.8c44.5-2.1,89.3-3.8,133.8-0.1c16.8,0,82.3,5.4,69,37
											c-7.7,18.3-32.4,22-50,22c-58,1-115-5-173.3,0.3"/>
										
											<path fill="none" stroke="#000000" stroke-width="7" stroke-linecap="round" stroke-linejoin="round" stroke-miterlimit="10" d="
											M273.6,378c-13.6,0.3-27.2,1-40.8,2.2"/>
										
											<path fill="none" stroke="#000000" stroke-width="7" stroke-linecap="round" stroke-linejoin="round" stroke-miterlimit="10" d="
											M525.8,495.1c12.3-12.7,17.5-32.4,11-49.2c-6.6-17-21.8-29.2-37.6-37.4c-18.8-9.8-39.7-14.3-60.4-18.2
											c-22.6-4.2-45.4-6.7-68.3-8.7c-22.6-1.9-48.8,0.2-71.5-0.2"/>
										
											<path fill="none" stroke="#000000" stroke-width="7" stroke-linecap="round" stroke-linejoin="round" stroke-miterlimit="10" d="
											M480.3,518.2c13.1-3.2,25.1-8.6,35.8-15.8"/>
										
											<path fill="none" stroke="#000000" stroke-width="7" stroke-linecap="round" stroke-linejoin="round" stroke-miterlimit="10" d="
											M459.7,523.4c6.9-1.7,13.7-3.4,20.6-5.1"/>
										
											<path fill="none" stroke="#000000" stroke-width="7" stroke-linecap="round" stroke-linejoin="round" stroke-miterlimit="10" d="
											M427.1,617.2c-2.3,3.8-3.3,9.8-7.3,12.8c-12,5-24-3-28-13c-4.2-8.3-12.5-12.5-20.4-14.8c-1.6-0.5-3.1-0.9-4.6-1.2
											c-12-8-21-27-39-20c1-1,7-17,13.8-24.8c1.2-1.3,2.4-2.5,3.7-3.7c3.9-3.5,8.4-6.4,13.5-8.5c8-2,21.9,0.5,24.2,0.7
											c-21.5-20.2-58.6,6.2-75,22.6c-4.3,4.3-8.5,9.1-14,11.8c-5.7,2.8-12.3,3-18.6,3.2c-18.6,0.5-37.5,0.9-55.2-4.5
											c-10.4-3.2-21.5-10.5-21.4-21.4c0.1-7,5.2-13.1,11.3-16.4c6.1-3.3,13.2-4.3,20.1-5.1c54.2-6.4,109.3-9.2,163.4-2.4"/>
										
											<path fill="none" stroke="#000000" stroke-width="7" stroke-linecap="round" stroke-linejoin="round" stroke-miterlimit="10" d="
											M160.3,583c7.2,17.5,45.6,30.7,65.6,33.7c19.8,2.9,39.4,3.9,58.8,5.5c3.2,0.3,6.5,0.5,9.5,0.8
											c14.7-0.3,17.7,18.7,29.6,24.8c2.1,1.3,4.4,2.1,7,2.5c2.6,0.4,5.4,0.2,8.4-0.6c1.6-0.1,3.1-0.2,4.6-0.4
											c7.5-0.8,14.9-3.9,21.8-8.2c1.5,0,3,0.1,4.5,0.3c10.2,1.3,20,5,30.1,9.1c1.6,0.2,3.2,0.4,4.9,0.4c5.1,0,10.5-1.3,16.4-4.8
											c0.9-0.5,1.8-1.1,2.7-1.8c9.6-5.7,4.6-18.7,7.2-28.5"/>
										
											<path fill="none" stroke="#000000" stroke-width="7" stroke-linecap="round" stroke-linejoin="round" stroke-miterlimit="10" d="
											M253.5,490.3c-17.8,1.6-35.6,3.8-52.9,8.4c-13.8,3.7-28.2,9.1-38.6,19.3c-17.1,16.9-14.7,46.3-1.8,65"/>
									</g>
									<g>
										
											<path fill="none" stroke="#000000" stroke-width="7" stroke-linecap="round" stroke-linejoin="round" stroke-miterlimit="10" d="
											M492.9,360.6c3.3,13.2,2.5,27.4-2.1,41.7"/>
										
											<path fill="none" stroke="#000000" stroke-width="7" stroke-linecap="round" stroke-linejoin="round" stroke-miterlimit="10" d="
											M488.2,347.5c2,4.2,3.6,8.6,4.7,13.1"/>
										
											<path fill="none" stroke="#000000" stroke-width="7" stroke-linecap="round" stroke-linejoin="round" stroke-miterlimit="10" d="
											M446.7,313c14.2,3.2,26.5,12.2,35,23.8"/>
										
											<path fill="none" stroke="#000000" stroke-width="7" stroke-linecap="round" stroke-linejoin="round" stroke-miterlimit="10" d="
											M453.4,386.2c10.7-14.5,4.5-31.6-12.1-39.9"/>
									</g>
									
										<path fill="none" stroke="#000000" stroke-width="7" stroke-linecap="round" stroke-linejoin="round" stroke-miterlimit="10" d="
										M155.3,526.6c0,0,12.4-19.3,22.5-19.7c0,0-29.4,3.1-38-4.6c-8.2-7.4-11.1-19.5-8.7-30l-16.5-6.6l-21-8.7l0,0
										c-6,17.2-3.3,37.4,8.4,51.6C115.4,524.9,135.6,527,155.3,526.6"/>
									
										<path fill="none" stroke="#000000" stroke-width="7" stroke-linecap="round" stroke-linejoin="round" stroke-miterlimit="10" d="
										M393.5,302c0,0-39.9-7.1-61.9,1.6c0,0,43.2,5,53,11.4"/>
								</g>
								
									<path fill="none" stroke="#000000" stroke-width="7" stroke-linecap="round" stroke-linejoin="round" stroke-miterlimit="10" d="
									M333.9,616.1c0.2-1.7,0.7-3.4,1.4-5c0.7-1.7,4.5-7.8,8.1-8.6c5.3-1.2,9.3-0.5,12.7,3.8c1,1.2,1.8,2.5,2.3,3.9
									c1.6,4.3,1.2,9.6-1.2,14.1c-2.4,4.4-6.5,7.9-11.7,8.2C336.9,633,332.9,623.5,333.9,616.1z"/>
								<g>
									
										<path fill="none" stroke="#000000" stroke-width="7" stroke-linecap="round" stroke-linejoin="round" stroke-miterlimit="10" d="
										M429.5,618.3c-1-8.1,1-17-5.9-24.3c-0.7-0.8-3.5-2.3-3.9-2.5c0,0,1.1,2.6,1.2,5.1c0.4,8.4-0.7,21-3.7,31"/>
									
										<path fill="none" stroke="#000000" stroke-width="7" stroke-linecap="round" stroke-linejoin="round" stroke-miterlimit="10" d="
										M417.2,624.1c-1-8.1,0.5-21.1-6.7-28c-0.8-0.7-2.5-2.3-2.9-2.5c0,0,0.2,3.7,0.3,6.3c-0.3,8.5-0.2,19.3-3.8,27.3"/>
								</g>
								<g>
									
										<path fill="none" stroke="#000000" stroke-width="7" stroke-linecap="round" stroke-linejoin="round" stroke-miterlimit="10" d="
										M462.6,531c3.4,6.6,4.9,14.2,3.7,22.1c-3,19.8-21.4,33.4-41.2,30.4s-33.4-21.4-30.4-41.2c3-19.8,21.4-33.4,41.2-30.4
										C447.8,513.7,457.4,521.1,462.6,531"/>
									<g>
										<path d="M431.2,543.1c-4.2-0.6-7-4.5-6.4-8.7c0.6-4.2,4.5-7,8.7-6.4c4.2,0.6,7,4.5,6.4,8.7
											C439.2,540.9,435.3,543.8,431.2,543.1z M426.1,572.2c-1.3-0.2-3-1.5-2.7-2.9c0.2-1.1,3.8-4.3,4.2-6.8
											c0.4-2.7-6.6-2.4-5.5-9.9c0.6-4,4.4-7.1,8.4-6.4c5.7,0.9,7.5,6.7,6.7,11.7C436.3,563.4,431,573,426.1,572.2z"/>
									</g>
								</g>
							</g>
						</g>
					</g>
					<g>
						<g>
							
								<line fill="#FFFFFF" stroke="#000000" stroke-width="7" stroke-linecap="round" stroke-linejoin="round" stroke-miterlimit="10" x1="89.3" y1="397.9" x2="116.6" y2="429.9"/>
							
								<line fill="#FFFFFF" stroke="#000000" stroke-width="7" stroke-linecap="round" stroke-linejoin="round" stroke-miterlimit="10" x1="116.6" y1="397.9" x2="89.3" y2="429.9"/>
						</g>
						<g>
							
								<line fill="none" stroke="#000000" stroke-width="7" stroke-linecap="round" stroke-linejoin="round" stroke-miterlimit="10" x1="83.6" y1="396.9" x2="93.7" y2="396.9"/>
							
								<line fill="none" stroke="#000000" stroke-width="7" stroke-linecap="round" stroke-linejoin="round" stroke-miterlimit="10" x1="112.1" y1="396.9" x2="122.3" y2="396.9"/>
						</g>
						<g>
							
								<line fill="none" stroke="#000000" stroke-width="7" stroke-linecap="round" stroke-linejoin="round" stroke-miterlimit="10" x1="83.6" y1="431.3" x2="93.7" y2="431.3"/>
							
								<line fill="none" stroke="#000000" stroke-width="7" stroke-linecap="round" stroke-linejoin="round" stroke-miterlimit="10" x1="112.1" y1="431.3" x2="122.3" y2="431.3"/>
						</g>
					</g>
				</g>
			</g>
			<path fill="none" stroke="#000000" stroke-width="7" stroke-linecap="round" stroke-linejoin="round" stroke-miterlimit="10" d="
				M420.8,266.3c3.4,2.2,6.7,4.7,9.6,7.5c0.3,0.6,0.7,1.3,1,1.9"/>
		</g>
	</g>
</g>
<line fill="none" stroke="#000000" stroke-width="10" stroke-linecap="round" stroke-linejoin="round" stroke-miterlimit="10" x1="508.7" y1="411.1" x2="508.7" y2="371"/>
<g>
	<path d="M143,839.7c-0.9,3.6-1.8,7.2-2.7,10.7c-0.7,2.7-0.9,4.5-0.7,5.4c0.2,0.9,1.8,1.7,4.7,2.4c-0.2,1-0.5,2-0.7,3
		c-7-1.7-14-3.5-20.9-5.4c0.3-1,0.5-2,0.8-3c3.1,0.9,5,0.4,5.4-1.4c0.4-1.2,0.8-2.5,1.1-3.7c2.5-9.4,5-18.9,7.5-28.3
		c0.3-1.3,0.6-2.5,0.9-3.8c0.4-1.6-0.8-2.8-3.7-3.8c0.3-1,0.5-2,0.8-3c4.7,1.3,9.4,2.5,14.2,3.7c0.9,0.2,1.7,0.4,2.6,0.6
		c0.9,0.2,1.9,0.4,2.8,0.6c0.8,0.2,1.5,0.3,2.3,0.5c8.8,2.1,12.4,7,10.7,15.3c-2.1,10.1-9.6,14-22.4,10.9
		C144.8,840.1,143.9,839.9,143,839.7z M143.8,836.6c0.5,0.1,1.1,0.3,1.6,0.4c6.8,1.7,11.1-1.4,12.8-9.1c1.5-6.5-0.7-10.3-6.3-11.7
		c-0.9-0.2-1.9-0.5-2.8-0.7C147.2,822.6,145.5,829.6,143.8,836.6z"/>
	<path d="M175.9,868.1c0.2-1,0.4-2,0.6-3.1c3.2,0.6,4.9,0,5.3-1.8c0.3-1.3,0.6-2.5,0.8-3.8c0.4-2.3,0.8-4.7,1.2-7
		c-2.4-5.3-4.7-10.6-6.9-15.9c-1.4-3.4-2.9-5.2-4.5-5.7c0.2-1,0.4-2,0.6-3.1c6,1.2,12,2.3,18,3.4c-0.2,1-0.4,2-0.5,3.1
		c-0.5-0.1-1.1-0.2-1.6-0.3c-1.3-0.2-2-0.1-2.1,0.4c-0.1,0.5,0.4,1.9,1.5,4.2c1.7,3.9,3.5,7.8,5.3,11.6c0,0,0,0,0.1,0
		c2.9-3.1,5.8-6.2,8.6-9.3c1.9-2,2.8-3.2,2.8-3.6c0.1-0.5-1-1-3.1-1.3c0.2-1,0.3-2.1,0.5-3.1c3.2,0.5,6.5,1,9.7,1.4
		c-0.1,1-0.3,2.1-0.4,3.1c-1.5-0.1-2.8,0.5-4,1.8c-0.6,0.7-1.2,1.4-1.9,2.2c-3.8,4.3-7.7,8.5-11.7,12.7c-0.4,2.3-0.8,4.7-1.1,7
		c-0.2,1.3-0.3,2.6-0.5,3.9c-0.3,1.8,1.2,3,4.4,3.5c-0.2,1-0.3,2.1-0.5,3.1C189.6,870.5,182.8,869.3,175.9,868.1z"/>
	<path d="M248.9,839.2c0-0.7,0.1-1.4,0.1-2.1c0.3-4-2.2-6.2-7.6-6.7c-8.2-0.8-13.1,6.1-14.8,20.8c-1.6,14.3,2.5,22,12.4,22.9
		c4,0.4,7.9-0.3,11.7-2c-0.1,1.4-0.2,2.7-0.3,4.1c-4.3,1.5-9.1,2.1-14.3,1.6c-7.5-0.7-13.2-3.6-16.8-8.6c-3.6-5-4.9-11.5-3.8-19.4
		c1-8,3.8-14,8.2-18c4.4-4,9.9-5.6,16.8-4.9c4.2,0.4,8.5,1.5,13.2,3.2c-0.2,3.2-0.4,6.4-0.7,9.5
		C251.6,839.4,250.3,839.3,248.9,839.2z"/>
	<path d="M275.6,880c-5.6-0.2-10.1-2.3-13.1-6.2c-3.1-3.9-4.4-9-4-15.3c0.4-6.4,2.3-11.3,5.6-14.8c3.3-3.5,7.7-5.2,13.1-5
		c5.4,0.2,9.6,2.1,12.8,5.8c3.1,3.7,4.7,8.7,4.7,15.1c0,6.5-1.7,11.6-5,15.2C286.2,878.5,281.5,880.2,275.6,880z M276.1,876.9
		c4.7,0.1,7.1-5.8,7.3-17.6c0.2-11.5-1.9-17.3-6.4-17.5c-4.5-0.1-6.9,5.6-7.4,17.2C269.1,870.8,271.2,876.8,276.1,876.9z"/>
	<path d="M301.4,879.2c0-1,0-2.1,0-3.1c2.5,0,3.9-0.4,4.3-1.2c0.4-0.8,0.6-2.6,0.6-5.5c-0.1-6.5-0.2-13-0.3-19.5
		c0-2.8-0.3-4.6-0.7-5.4c-0.4-0.8-1.8-1.2-4.1-1.1c0-1,0-2.1,0-3.1c3.2,0,6.5-0.1,9.7-0.1c6.9,8,14,15.8,21.4,23.5
		c-0.3-4.9-0.5-9.7-0.8-14.6c-0.1-1.3-0.2-2.6-0.4-3.9c-0.1-1.8-1.7-2.6-4.7-2.5c0-1-0.1-2.1-0.1-3.1c4.8-0.2,9.6-0.5,14.4-0.9
		c0.1,1,0.1,2.1,0.2,3.1c-3,0.2-4.5,1.2-4.4,3c0,1.3,0,2.6,0.1,3.9c0.6,9.8,1.3,19.7,1.9,29.5c-1.8,0.1-3.6,0.2-5.3,0.3
		c-7.6-7.8-14.8-15.8-21.9-23.8c0.1,4.9,0.2,9.7,0.3,14.6c0.1,1.3,0.2,2.6,0.2,3.9c0,1.8,1.7,2.7,4.9,2.6c0,1,0.1,2.1,0.1,3.1
		C311.7,879,306.5,879.1,301.4,879.2z"/>
	<path d="M379.1,874c-0.1-1-0.3-2.1-0.4-3.1c3.2-0.4,4.7-1.5,4.4-3.3c-0.1-1.3-0.2-2.6-0.3-3.9c-1.6-11.6-3.1-23.2-4.7-34.8
		c-1.7,0.2-3.3,0.4-5,0.7c-1.9,0.2-3,0.7-3.2,1.4c-0.2,0.7-0.1,2,0.1,4.1c0,0.3,0.1,0.5,0.1,0.8c-1.1,0.1-2.1,0.3-3.2,0.4
		c-0.4-3.2-0.7-6.5-1.1-9.7c11.1-1.3,22.2-2.9,33.3-4.7c0.5,3.2,1.1,6.4,1.6,9.6c-1.1,0.2-2.1,0.4-3.2,0.5c0-0.3-0.1-0.5-0.1-0.8
		c-0.3-2-0.7-3.4-1-4c-0.4-0.6-1.5-0.7-3.5-0.4c-1.7,0.3-3.3,0.5-5,0.8c1.7,11.6,3.5,23.1,5.2,34.7c0.2,1.3,0.5,2.5,0.7,3.8
		c0.3,1.8,2,2.5,5.2,2c0.2,1,0.3,2.1,0.5,3.1C392.8,872.2,386,873.1,379.1,874z"/>
	<path d="M426.9,866.6c-6.1-12.2-12.1-24.4-17.8-36.7c-1.2-2.5-2-4.2-2.6-5c-0.6-0.8-1.7-1-3.4-0.7c-0.2-1-0.4-2-0.5-3.1
		c5.7-1,11.3-2.1,17-3.2c0.2,1,0.4,2,0.6,3c-0.3,0.1-0.5,0.1-0.8,0.2c-2.1,0.4-3.1,1.1-3,1.9c0.2,0.7,0.9,2.4,2.1,5
		c3.4,6.9,6.8,13.8,10.3,20.7c0,0,0,0,0,0c0.9-10.8,1.7-21.6,2.4-32.4c1.4-0.3,2.9-0.7,4.3-1c5.3,9.5,10.7,19,16.3,28.4
		c0,0,0,0,0.1,0c0.1-7.8,0.2-15.6,0.2-23.4c0-0.8,0-1.6-0.1-2.3c-0.1-1.7-0.1-2.6-0.2-2.9c-0.3-1-1.5-1.2-3.9-0.6
		c-0.3-1-0.5-2-0.8-3c3.4-0.9,6.8-1.8,10.2-2.7c0.3,1,0.5,2,0.8,3c-2,0.5-3,1.7-3,3.4c0,1.4,0,2.9,0,4.3c0.1,13.6-0.1,27.2-0.4,40.8
		c-1.3,0.3-2.5,0.6-3.8,0.9c-6.2-10.1-12.2-20.2-18-30.4c-0.6,11.6-1.5,23.3-2.4,35C429.4,866.1,428.1,866.3,426.9,866.6z"/>
</g>
<path fill="none" stroke="#000000" stroke-width="7" stroke-linecap="round" stroke-linejoin="round" stroke-miterlimit="10" d="
	M671.8,349.5"/>
<path fill="none" stroke="#000000" stroke-width="7" stroke-linecap="round" stroke-linejoin="round" stroke-miterlimit="10" d="
	M684.4,427"/>
<path fill="none" stroke="#000000" stroke-width="7" stroke-linecap="round" stroke-linejoin="round" stroke-miterlimit="10" d="
	M684.4,342.9"/>
<g>
	<path fill="none" stroke="#000000" stroke-width="10" stroke-linecap="round" stroke-linejoin="round" stroke-miterlimit="10" d="
		M89.4,198.1v-40.2h81.5c6.3-64.3,60.8-114.8,126.7-114.8S418,93.5,424.4,157.8h81.5v40.2"/>
	<path fill="none" stroke="#000000" stroke-width="7" stroke-linecap="round" stroke-linejoin="round" stroke-miterlimit="10" d="
		M492.4,190l0.3-19.4l-79,0c0-38.5-23.8-77.9-55.7-98.2C322,49.6,279,51,241.7,69.6c-17.5,8.8-31.7,23.2-41.6,40.1
		c-5,8.5-9,17.7-11.8,27.1c-3.3,11.1-3.8,22.7-6.6,33.8c-27,0-64.2,0-80,0c0,61,0-38.4,0.3,22.4"/>
</g>
</svg>
