<?xml version="1.0" encoding="utf-8"?>
<!-- Generator: Adobe Illustrator 17.1.0, SVG Export Plug-In . SVG Version: 6.00 Build 0)  -->
<!DOCTYPE svg PUBLIC "-//W3C//DTD SVG 1.1//EN" "http://www.w3.org/Graphics/SVG/1.1/DTD/svg11.dtd" [
	<!ENTITY ns_flows "http://ns.adobe.com/Flows/1.0/">
	<!ENTITY ns_extend "http://ns.adobe.com/Extensibility/1.0/">
	<!ENTITY ns_ai "http://ns.adobe.com/AdobeIllustrator/10.0/">
	<!ENTITY ns_graphs "http://ns.adobe.com/Graphs/1.0/">
]>
<svg version="1.1" id="圖層_1" xmlns:x="&ns_extend;" xmlns:i="&ns_ai;" xmlns:graph="&ns_graphs;"
	 xmlns="http://www.w3.org/2000/svg" xmlns:xlink="http://www.w3.org/1999/xlink" xmlns:a="http://ns.adobe.com/AdobeSVGViewerExtensions/3.0/"
	 x="0px" y="0px" viewBox="0 0 566.9 566.9" enable-background="new 0 0 566.9 566.9" xml:space="preserve">
<path fill="none" stroke="#000000" stroke-width="7" stroke-linecap="round" stroke-linejoin="round" stroke-miterlimit="10" d="
	M657.6,277"/>
<path fill="none" stroke="#000000" stroke-width="7" stroke-linecap="round" stroke-linejoin="round" stroke-miterlimit="10" d="
	M670.2,354.5"/>
<path fill="none" stroke="#000000" stroke-width="7" stroke-linecap="round" stroke-linejoin="round" stroke-miterlimit="10" d="
	M670.2,270.3"/>
<g>
	<g>
		<path fill="none" stroke="#000000" stroke-width="7" stroke-linecap="round" stroke-linejoin="round" stroke-miterlimit="10" d="
			M110.6,145.1c13.3,0,26.6,0,39.9,0"/>
		
			<line fill="none" stroke="#000000" stroke-width="7" stroke-linecap="round" stroke-linejoin="round" stroke-miterlimit="10" x1="117.7" y1="160.5" x2="160.3" y2="160.5"/>
		
			<line fill="none" stroke="#000000" stroke-width="7" stroke-linecap="round" stroke-linejoin="round" stroke-miterlimit="10" x1="131.7" y1="176.8" x2="174.3" y2="176.8"/>
	</g>
	<path fill="none" stroke="#000000" stroke-width="7" stroke-linecap="round" stroke-linejoin="round" stroke-miterlimit="10" d="
		M184.5,113c0-6.3-5.1-11.5-11.5-11.5c-3.5,0-6.7,1.6-8.8,4.1c-2.1-2.5-5.3-4.1-8.8-4.1c-6.3,0-11.5,5.1-11.5,11.5c0,0.3,0,0.7,0,1
		c0,0.4,0,0.8,0,1.2c0,11.2,20.3,20.3,20.3,20.3s20.3-9.1,20.3-20.3c0-0.5,0-0.9,0-1.3C184.5,113.6,184.5,113.3,184.5,113z"/>
	<g>
		<path d="M246.2,118.2c0,6.4-4.6,11.6-4.6,11.6s-4.6-5.2-4.6-11.6c0-6.4,4.6-11.6,4.6-11.6S246.2,111.8,246.2,118.2z"/>
		<path d="M341.3,469.9c-0.6,0.9-1.2,2-1.9,3c-2.4,3.8-5.4,6.8-9.4,8.8c0-3.4-0.7-8.5,1.2-12.7c2.5-5.4,6.6-10,10.6-12
			c0,1,1.1,6.3,0.9,8.5C342.4,466.8,342,468.4,341.3,469.9z"/>
		<g>
			<g>
				<g>
					
						<rect x="193.6" y="212.8" transform="matrix(0.7071 0.7071 -0.7071 0.7071 221.3635 -80.4706)" fill="none" stroke="#000000" stroke-width="7" stroke-linecap="round" stroke-linejoin="round" stroke-miterlimit="10" width="28.4" height="28.4"/>
					
						<rect x="161.9" y="189.4" transform="matrix(0.7071 0.7071 -0.7071 0.7071 195.5423 -64.8794)" fill="none" stroke="#000000" stroke-width="7" stroke-linecap="round" stroke-linejoin="round" stroke-miterlimit="10" width="28.4" height="28.4"/>
					
						<rect x="227.7" y="188.5" transform="matrix(0.7071 0.7071 -0.7071 0.7071 214.2279 -111.6655)" fill="none" stroke="#000000" stroke-width="7" stroke-linecap="round" stroke-linejoin="round" stroke-miterlimit="10" width="28.4" height="28.4"/>
					
						<rect x="263" y="209.5" transform="matrix(0.7071 0.7071 -0.7071 0.7071 239.4013 -130.5331)" fill="none" stroke="#000000" stroke-width="7" stroke-linecap="round" stroke-linejoin="round" stroke-miterlimit="10" width="28.4" height="28.4"/>
					
						<rect x="293" y="183.3" transform="matrix(0.7071 0.7071 -0.7071 0.7071 229.6387 -159.4084)" fill="none" stroke="#000000" stroke-width="7" stroke-linecap="round" stroke-linejoin="round" stroke-miterlimit="10" width="28.4" height="28.4"/>
				</g>
				<g>
					<g>
						
							<path fill="none" stroke="#000000" stroke-width="7" stroke-linecap="round" stroke-linejoin="round" stroke-miterlimit="10" d="
							M50.3,249.1c-2.9,13.9-0.2,30.6,8,42.3"/>
						<g>
							
								<path fill="none" stroke="#000000" stroke-width="7" stroke-linecap="round" stroke-linejoin="round" stroke-miterlimit="10" d="
								M324,428.5c7.3-3.4,26-7.9,33.1-8.5c1.7-0.1,3.2,0.1,4.5,0.4l6.7,6.2"/>
							<g>
								
									<path fill="none" stroke="#000000" stroke-width="7" stroke-linecap="round" stroke-linejoin="round" stroke-miterlimit="10" d="
									M402.8,460.7"/>
								<g>
									
										<circle fill="none" stroke="#000000" stroke-width="7" stroke-linecap="round" stroke-linejoin="round" stroke-miterlimit="10" cx="241.7" cy="117.9" r="11.1"/>
									
										<path fill="none" stroke="#000000" stroke-width="7" stroke-linecap="round" stroke-linejoin="round" stroke-miterlimit="10" d="
										M183.3,334.4c40.1,2.9,80.3,4.3,120.4,2.4c27.3-1.3,54.7-3.8,81.6-8.6c25.5-4.6,52.7-10.3,73.5-26.7c1.1-0.9,1-3,1.2-4.1"
										/>
									
										<path fill="none" stroke="#000000" stroke-width="7" stroke-linecap="round" stroke-linejoin="round" stroke-miterlimit="10" d="
										M71.4,302.4c18.1,12.1,88.8,29.5,111.9,32"/>
									
										<path fill="none" stroke="#000000" stroke-width="7" stroke-linecap="round" stroke-linejoin="round" stroke-miterlimit="10" d="
										M168.4,189.9c-21.1,1.5-42.3,4.3-62.6,10.5c-16.4,5-35.8,12-45.7,27c-1.6,2.4-2.9,4.9-3.8,7.6"/>
									
										<path fill="none" stroke="#000000" stroke-width="7" stroke-linecap="round" stroke-linejoin="round" stroke-miterlimit="10" d="
										M236.8,187.4c-17.1,0.3-34.2,0.7-51.3,1.5"/>
									
										<path fill="none" stroke="#000000" stroke-width="7" stroke-linecap="round" stroke-linejoin="round" stroke-miterlimit="10" d="
										M295.9,186.7c-15.8,0.3-31.5,0.4-47.3,0.6"/>
									
										<path fill="none" stroke="#000000" stroke-width="7" stroke-linecap="round" stroke-linejoin="round" stroke-miterlimit="10" d="
										M200.3,166.9c3.1-5.2,7.9-9.7,13.3-12.5c6.1-3.3,12.9-2.5,19.6-3c12.7-1,25.2-6.1,34.7-14.6c-0.8,0.7-1.7,1.4-2.5,2.1
										c0.8-0.7,1.7-1.4,2.5-2.1c-0.6,0.7-4.2,5.7-5.2,4.6c-1.1-1.1,4.4-4.1,5.2-4.6c-7.1,7.8-13.9,16-22,22.7
										c-8.1,6.6-17.5,11-27,15.1c18.3,4.5,38.7-1.7,54.7-10.6c8.6-4.8,14.5-11.1,20.5-18.8c4.8-6.3,13.4-6.9,20.7-7.2
										c18.7-0.8,38.7-2.1,56.7,4.1c7.7,2.6,14.8,8.3,15.8,16.9c0.9,7.8-4.2,14.8-10.3,19.1c-7.6,5.3-16.8,5.6-25.8,6.3
										c-10.9,0.9-21.9,1.4-32.8,1.8"/>
									
										<path fill="none" stroke="#000000" stroke-width="7" stroke-linecap="round" stroke-linejoin="round" stroke-miterlimit="10" d="
										M401.4,112.9c-30.6-13.4-65.6-12.4-98.6-13.4c-5-1-10-1-15-3c-22-10-48-17-70-1c-3,2-5,5-8,7c-2,2-3,4-4,6
										c-4,12-8,26-21,31c-7,2-20,3-18,13c3,11,16,14,25.4,19.8"/>
									
										<path fill="none" stroke="#000000" stroke-width="7" stroke-linecap="round" stroke-linejoin="round" stroke-miterlimit="10" d="
										M289.1,233.3c36.7-0.5,73.7-0.5,108.7-13.5c7.8-2.9,15.9-7.3,22-13c6.2-5.7,10.6-13.1,13.2-21.1
										c5.2-16.1,3.3-34.8-6.3-48.9"/>
									
										<path fill="none" stroke="#000000" stroke-width="7" stroke-linecap="round" stroke-linejoin="round" stroke-miterlimit="10" d="
										M222.5,233.1c14.5-0.1,29,0.1,43.5,0.3"/>
									
										<path fill="none" stroke="#000000" stroke-width="7" stroke-linecap="round" stroke-linejoin="round" stroke-miterlimit="10" d="
										M407.1,284c-77.4,11.9-155.4,18.9-234.4,9.9c-9-1-17-4-26-6c-4-1-7-4-11-5c-4-2-7-5-10-9c-7-11,1-23,11-29c8-4,17-8,26-9
										s19-2,28.5-1.9"/>
									<g>
										
											<path fill="none" stroke="#000000" stroke-width="7" stroke-linecap="round" stroke-linejoin="round" stroke-miterlimit="10" d="
											M194.5,235.2c-16.7,2.7-34.1,2.2-50.2,8.1c-20.5,7.7-31.8,30.7-6.6,41.5c7.4,3.2,19.4,1.2,27.3,1.2
											c10.8,0.1,21.6-0.1,32.4-0.4c22.2-0.6,44.4-1.7,66.5-2.8c44.5-2.1,89.3-3.8,133.8-0.1c16.8,0,82.3,5.4,69,37
											c-7.7,18.3-32.4,22-50,22c-58,1-115-5-173.3,0.3"/>
										
											<path fill="none" stroke="#000000" stroke-width="7" stroke-linecap="round" stroke-linejoin="round" stroke-miterlimit="10" d="
											M263.6,229.9c-13.6,0.3-27.2,1-40.8,2.2"/>
										
											<path fill="none" stroke="#000000" stroke-width="7" stroke-linecap="round" stroke-linejoin="round" stroke-miterlimit="10" d="
											M515.8,347c12.3-12.7,17.5-32.4,11-49.2c-6.6-17-21.8-29.2-37.6-37.4c-18.8-9.8-39.7-14.3-60.4-18.2
											c-22.6-4.2-45.4-6.7-68.3-8.7c-22.6-1.9-48.8,0.2-71.5-0.2"/>
										
											<path fill="none" stroke="#000000" stroke-width="7" stroke-linecap="round" stroke-linejoin="round" stroke-miterlimit="10" d="
											M470.3,370.1c13.1-3.2,25.1-8.6,35.8-15.8"/>
										
											<path fill="none" stroke="#000000" stroke-width="7" stroke-linecap="round" stroke-linejoin="round" stroke-miterlimit="10" d="
											M449.7,375.3c6.9-1.7,13.7-3.4,20.6-5.1"/>
										
											<path fill="none" stroke="#000000" stroke-width="7" stroke-linecap="round" stroke-linejoin="round" stroke-miterlimit="10" d="
											M417.1,469.1c-2.3,3.8-3.3,9.8-7.3,12.8c-12,5-24-3-28-13c-4.2-8.3-12.5-12.5-20.4-14.8c-1.6-0.5-3.1-0.9-4.6-1.2
											c-12-8-21-27-39-20c1-1,7-17,13.8-24.8c1.2-1.3,2.4-2.5,3.7-3.7c3.9-3.5,8.4-6.4,13.5-8.5c8-2,21.9,0.5,24.2,0.7
											c-21.5-20.2-58.6,6.2-75,22.6c-4.3,4.3-8.5,9.1-14,11.8c-5.7,2.8-12.3,3-18.6,3.2c-18.6,0.5-37.5,0.9-55.2-4.5
											c-10.4-3.2-21.5-10.5-21.4-21.4c0.1-7,5.2-13.1,11.3-16.4s13.2-4.3,20.1-5.1c54.2-6.4,109.3-9.2,163.4-2.4"/>
										
											<path fill="none" stroke="#000000" stroke-width="7" stroke-linecap="round" stroke-linejoin="round" stroke-miterlimit="10" d="
											M150.3,434.9c7.2,17.5,45.6,30.7,65.6,33.7c19.8,2.9,39.4,3.9,58.8,5.5c3.2,0.3,6.5,0.5,9.5,0.8
											c14.7-0.3,17.7,18.7,29.6,24.8c2.1,1.3,4.4,2.1,7,2.5s5.4,0.2,8.4-0.6c1.6-0.1,3.1-0.2,4.6-0.4c7.5-0.8,14.9-3.9,21.8-8.2
											c1.5,0,3,0.1,4.5,0.3c10.2,1.3,20,5,30.1,9.1c1.6,0.2,3.2,0.4,4.9,0.4c5.1,0,10.5-1.3,16.4-4.8c0.9-0.5,1.8-1.1,2.7-1.8
											c9.6-5.7,4.6-18.7,7.2-28.5"/>
										
											<path fill="none" stroke="#000000" stroke-width="7" stroke-linecap="round" stroke-linejoin="round" stroke-miterlimit="10" d="
											M243.5,342.2c-17.8,1.6-35.6,3.8-52.9,8.4c-13.8,3.7-28.2,9.1-38.6,19.3c-17.1,16.9-14.7,46.3-1.8,65"/>
									</g>
									<g>
										
											<path fill="none" stroke="#000000" stroke-width="7" stroke-linecap="round" stroke-linejoin="round" stroke-miterlimit="10" d="
											M482.9,212.5c3.3,13.2,2.5,27.4-2.1,41.7"/>
										
											<path fill="none" stroke="#000000" stroke-width="7" stroke-linecap="round" stroke-linejoin="round" stroke-miterlimit="10" d="
											M478.1,199.4c2,4.2,3.6,8.6,4.7,13.1"/>
										
											<path fill="none" stroke="#000000" stroke-width="7" stroke-linecap="round" stroke-linejoin="round" stroke-miterlimit="10" d="
											M436.7,164.9c14.2,3.2,26.5,12.2,35,23.8"/>
										
											<path fill="none" stroke="#000000" stroke-width="7" stroke-linecap="round" stroke-linejoin="round" stroke-miterlimit="10" d="
											M443.3,238.1c10.7-14.5,4.5-31.6-12.1-39.9"/>
									</g>
									
										<path fill="none" stroke="#000000" stroke-width="7" stroke-linecap="round" stroke-linejoin="round" stroke-miterlimit="10" d="
										M145.3,378.5c0,0,12.4-19.3,22.5-19.7c0,0-29.4,3.1-38-4.6c-8.2-7.4-11.1-19.5-8.7-30l-16.5-6.6l-21-8.7l0,0
										c-6,17.2-3.3,37.4,8.4,51.6C105.4,376.8,125.5,378.9,145.3,378.5"/>
									
										<path fill="none" stroke="#000000" stroke-width="7" stroke-linecap="round" stroke-linejoin="round" stroke-miterlimit="10" d="
										M383.5,153.9c0,0-39.9-7.1-61.9,1.6c0,0,43.2,5,53,11.4"/>
								</g>
								
									<path fill="none" stroke="#000000" stroke-width="7" stroke-linecap="round" stroke-linejoin="round" stroke-miterlimit="10" d="
									M323.9,468c0.2-1.7,0.7-3.4,1.4-5c0.7-1.7,4.5-7.8,8.1-8.6c5.3-1.2,9.3-0.5,12.7,3.8c1,1.2,1.8,2.5,2.3,3.9
									c1.6,4.3,1.2,9.6-1.2,14.1c-2.4,4.4-6.5,7.9-11.7,8.2C326.9,484.9,322.9,475.4,323.9,468z"/>
								<g>
									
										<path fill="none" stroke="#000000" stroke-width="7" stroke-linecap="round" stroke-linejoin="round" stroke-miterlimit="10" d="
										M419.4,470.2c-1-8.1,1-17-5.9-24.3c-0.7-0.8-3.5-2.3-3.9-2.5c0,0,1.1,2.6,1.2,5.1c0.4,8.4-0.7,21-3.7,31"/>
									
										<path fill="none" stroke="#000000" stroke-width="7" stroke-linecap="round" stroke-linejoin="round" stroke-miterlimit="10" d="
										M407.1,476c-1-8.1,0.5-21.1-6.7-28c-0.8-0.7-2.5-2.3-2.9-2.5c0,0,0.2,3.7,0.3,6.3c-0.3,8.5-0.2,19.3-3.8,27.3"/>
								</g>
								<g>
									
										<path fill="none" stroke="#000000" stroke-width="7" stroke-linecap="round" stroke-linejoin="round" stroke-miterlimit="10" d="
										M452.6,382.9c3.4,6.6,4.9,14.2,3.7,22.1c-3,19.8-21.4,33.4-41.2,30.4c-19.8-3-33.4-21.4-30.4-41.2
										c3-19.8,21.4-33.4,41.2-30.4C437.7,365.6,447.4,373,452.6,382.9"/>
									<g>
										<path d="M421.2,395.1c-4.2-0.6-7-4.5-6.4-8.7c0.6-4.2,4.5-7,8.7-6.4c4.2,0.6,7,4.5,6.4,8.7
											C429.2,392.8,425.3,395.7,421.2,395.1z M416.1,424.1c-1.3-0.2-3-1.5-2.7-2.9c0.2-1.1,3.8-4.3,4.2-6.8
											c0.4-2.7-6.6-2.4-5.5-9.9c0.6-4,4.4-7.1,8.4-6.4c5.7,0.9,7.5,6.7,6.7,11.7C426.3,415.3,421,424.9,416.1,424.1z"/>
									</g>
								</g>
							</g>
						</g>
					</g>
					<g>
						<g>
							
								<line fill="#FFFFFF" stroke="#000000" stroke-width="7" stroke-linecap="round" stroke-linejoin="round" stroke-miterlimit="10" x1="79.2" y1="249.8" x2="106.5" y2="281.8"/>
							
								<line fill="#FFFFFF" stroke="#000000" stroke-width="7" stroke-linecap="round" stroke-linejoin="round" stroke-miterlimit="10" x1="106.5" y1="249.8" x2="79.2" y2="281.8"/>
						</g>
						<g>
							
								<line fill="none" stroke="#000000" stroke-width="7" stroke-linecap="round" stroke-linejoin="round" stroke-miterlimit="10" x1="73.6" y1="248.8" x2="83.7" y2="248.8"/>
							
								<line fill="none" stroke="#000000" stroke-width="7" stroke-linecap="round" stroke-linejoin="round" stroke-miterlimit="10" x1="102.1" y1="248.8" x2="112.2" y2="248.8"/>
						</g>
						<g>
							
								<line fill="none" stroke="#000000" stroke-width="7" stroke-linecap="round" stroke-linejoin="round" stroke-miterlimit="10" x1="73.6" y1="283.2" x2="83.7" y2="283.2"/>
							
								<line fill="none" stroke="#000000" stroke-width="7" stroke-linecap="round" stroke-linejoin="round" stroke-miterlimit="10" x1="102.1" y1="283.2" x2="112.2" y2="283.2"/>
						</g>
					</g>
				</g>
			</g>
			<path fill="none" stroke="#000000" stroke-width="7" stroke-linecap="round" stroke-linejoin="round" stroke-miterlimit="10" d="
				M410.7,118.2c3.4,2.2,6.7,4.7,9.6,7.5c0.3,0.6,0.7,1.3,1,1.9"/>
		</g>
	</g>
</g>
</svg>
