<?xml version="1.0" encoding="utf-8"?>
<!-- Generator: Adobe Illustrator 17.1.0, SVG Export Plug-In . SVG Version: 6.00 Build 0)  -->
<!DOCTYPE svg PUBLIC "-//W3C//DTD SVG 1.1//EN" "http://www.w3.org/Graphics/SVG/1.1/DTD/svg11.dtd" [
	<!ENTITY ns_flows "http://ns.adobe.com/Flows/1.0/">
	<!ENTITY ns_extend "http://ns.adobe.com/Extensibility/1.0/">
	<!ENTITY ns_ai "http://ns.adobe.com/AdobeIllustrator/10.0/">
	<!ENTITY ns_graphs "http://ns.adobe.com/Graphs/1.0/">
]>
<svg version="1.1" xmlns:x="&ns_extend;" xmlns:i="&ns_ai;" xmlns:graph="&ns_graphs;"
	 xmlns="http://www.w3.org/2000/svg" xmlns:xlink="http://www.w3.org/1999/xlink" xmlns:a="http://ns.adobe.com/AdobeSVGViewerExtensions/3.0/"
	 x="0px" y="0px" viewBox="0 0 2093.6 3241.8" enable-background="new 0 0 2093.6 3241.8" xml:space="preserve">
<pattern  x="-3691.1" y="-3000" width="48" height="48" patternUnits="userSpaceOnUse" id="_x36__dpi_30_x25_" viewBox="3.6 -51.6 48 48" overflow="visible">
	<g>
		<polygon fill="none" points="3.6,-3.6 3.6,-51.6 51.6,-51.6 51.6,-3.6 		"/>
		<path d="M3.6,0c2,0,3.6-1.6,3.6-3.6c0-2-1.6-3.6-3.6-3.6C1.6-7.2,0-5.6,0-3.6C0-1.6,1.6,0,3.6,0z"/>
		<path d="M27.6,0c2,0,3.6-1.6,3.6-3.6c0-2-1.6-3.6-3.6-3.6c-2,0-3.6,1.6-3.6,3.6C24-1.6,25.6,0,27.6,0z"/>
		<path d="M51.6,0c2,0,3.6-1.6,3.6-3.6c0-2-1.6-3.6-3.6-3.6c-2,0-3.6,1.6-3.6,3.6C48-1.6,49.6,0,51.6,0z"/>
		<path d="M3.6-24c2,0,3.6-1.6,3.6-3.6c0-2-1.6-3.6-3.6-3.6c-2,0-3.6,1.6-3.6,3.6C0-25.6,1.6-24,3.6-24z"/>
		<path d="M27.6-24c2,0,3.6-1.6,3.6-3.6c0-2-1.6-3.6-3.6-3.6c-2,0-3.6,1.6-3.6,3.6C24-25.6,25.6-24,27.6-24z"/>
		<path d="M51.6-24c2,0,3.6-1.6,3.6-3.6c0-2-1.6-3.6-3.6-3.6c-2,0-3.6,1.6-3.6,3.6C48-25.6,49.6-24,51.6-24z"/>
		<path d="M3.6-48c2,0,3.6-1.6,3.6-3.6c0-2-1.6-3.6-3.6-3.6c-2,0-3.6,1.6-3.6,3.6C0-49.6,1.6-48,3.6-48z"/>
		<path d="M27.6-48c2,0,3.6-1.6,3.6-3.6c0-2-1.6-3.6-3.6-3.6c-2,0-3.6,1.6-3.6,3.6C24-49.6,25.6-48,27.6-48z"/>
		<path d="M51.6-48c2,0,3.6-1.6,3.6-3.6c0-2-1.6-3.6-3.6-3.6c-2,0-3.6,1.6-3.6,3.6C48-49.6,49.6-48,51.6-48z"/>
		<path d="M39.6-12c2,0,3.6-1.6,3.6-3.6c0-2-1.6-3.6-3.6-3.6c-2,0-3.6,1.6-3.6,3.6C36-13.6,37.6-12,39.6-12z"/>
		<path d="M15.6-12c2,0,3.6-1.6,3.6-3.6c0-2-1.6-3.6-3.6-3.6c-2,0-3.6,1.6-3.6,3.6C12-13.6,13.6-12,15.6-12z"/>
		<path d="M39.6-36c2,0,3.6-1.6,3.6-3.6c0-2-1.6-3.6-3.6-3.6c-2,0-3.6,1.6-3.6,3.6C36-37.6,37.6-36,39.6-36z"/>
		<path d="M15.6-36c2,0,3.6-1.6,3.6-3.6c0-2-1.6-3.6-3.6-3.6c-2,0-3.6,1.6-3.6,3.6C12-37.6,13.6-36,15.6-36z"/>
	</g>
</pattern>
<g id="圖層_1">
	<g>
		<path fill="none" stroke="#000000" stroke-width="25" stroke-linecap="round" stroke-linejoin="round" stroke-miterlimit="10" d="
			M814.2,867.1C743,801.4,698.3,707.3,698.3,602.8c0-198.5,160.9-359.4,359.4-359.4s359.4,160.9,359.4,359.4
			c0,119.6-58.4,225.6-148.3,290.9"/>
		<g>
			<path fill="none" stroke="#000000" stroke-width="25" stroke-linejoin="round" stroke-miterlimit="10" d="M1910.9,937.8
				c39.5,23.6,49.5,79.6,49.5,79.6s-54.1,17.8-93.6-5.8c-39.5-23.6-49.5-79.6-49.5-79.6S1871.4,914.2,1910.9,937.8z"/>
			<g>
				<path fill="none" stroke="#000000" stroke-width="25" stroke-linejoin="round" stroke-miterlimit="10" d="M1938.1,1075.8
					c39.5,23.6,49.5,79.6,49.5,79.6s-54.1,17.8-93.6-5.8c-39.5-23.6-49.5-79.6-49.5-79.6S1898.6,1052.2,1938.1,1075.8z"/>
				<path fill="none" stroke="#000000" stroke-width="25" stroke-linejoin="round" stroke-miterlimit="10" d="M1740.4,1108.2
					c29.4-35.4,86.3-36.7,86.3-36.7s9.3,56.2-20.1,91.6c-29.4,35.4-86.3,36.7-86.3,36.7S1711,1143.6,1740.4,1108.2z"/>
			</g>
			<g>
				<path fill="none" stroke="#000000" stroke-width="25" stroke-linejoin="round" stroke-miterlimit="10" d="M1837,795.9
					c44.2,12.8,68.1,64.4,68.1,64.4s-47.8,31-92,18.2c-44.2-12.8-68.1-64.4-68.1-64.4S1792.8,783.2,1837,795.9z"/>
				<path fill="none" stroke="#000000" stroke-width="25" stroke-linejoin="round" stroke-miterlimit="10" d="M1654,877.5
					c19.4-41.7,74.1-57.4,74.1-57.4s23.3,52,3.9,93.7c-19.4,41.7-74.1,57.4-74.1,57.4S1634.6,919.3,1654,877.5z"/>
			</g>
			<g>
				<path fill="none" stroke="#000000" stroke-width="25" stroke-linejoin="round" stroke-miterlimit="10" d="M1730.7,672.2
					c45.9,2.6,80.8,47.6,80.8,47.6s-39.6,40.9-85.6,38.3c-45.9-2.6-80.8-47.6-80.8-47.6S1684.7,669.7,1730.7,672.2z"/>
				<path fill="none" stroke="#000000" stroke-width="25" stroke-linejoin="round" stroke-miterlimit="10" d="M1570.5,792.7
					c9.6-45,59.4-72.5,59.4-72.5s34.3,45.4,24.7,90.4c-9.6,45-59.4,72.5-59.4,72.5S1560.9,837.7,1570.5,792.7z"/>
			</g>
			<g>
				<path fill="none" stroke="#000000" stroke-width="25" stroke-linejoin="round" stroke-miterlimit="10" d="M1598.9,571
					c45.6-5.9,88.2,31.9,88.2,31.9s-31.4,47.5-77.1,53.4s-88.2-31.9-88.2-31.9S1553.2,577,1598.9,571z"/>
				<path fill="none" stroke="#000000" stroke-width="25" stroke-linejoin="round" stroke-miterlimit="10" d="M1463.7,719
					c1.1-46,45-82.2,45-82.2s42.1,38.3,40.9,84.3s-45,82.2-45,82.2S1462.5,764.9,1463.7,719z"/>
			</g>
			<path fill="none" stroke="#000000" stroke-width="25" stroke-linejoin="round" stroke-miterlimit="10" d="M1711.3,983.1
				c29.4-35.4,86.3-36.7,86.3-36.7s9.3,56.2-20.1,91.6c-29.4,35.4-86.3,36.7-86.3,36.7S1682,1018.5,1711.3,983.1z"/>
			<path fill="none" stroke="#000000" stroke-width="25" stroke-linecap="round" stroke-miterlimit="10" d="M1817.7,1236.2
				c46.4-119.2,17.4-250.5-46.4-357.4c-70.2-117.7-178.9-210.2-298.4-275.3"/>
		</g>
		<g>
			<path fill="none" stroke="#000000" stroke-width="25" stroke-linejoin="round" stroke-miterlimit="10" d="M201.5,937.8
				c-39.5,23.6-49.5,79.6-49.5,79.6s54.1,17.8,93.6-5.8c39.5-23.6,49.5-79.6,49.5-79.6S241,914.2,201.5,937.8z"/>
			<g>
				<path fill="none" stroke="#000000" stroke-width="25" stroke-linejoin="round" stroke-miterlimit="10" d="M174.2,1075.8
					c-39.5,23.6-49.5,79.6-49.5,79.6s54.1,17.8,93.6-5.8c39.5-23.6,49.5-79.6,49.5-79.6S213.7,1052.2,174.2,1075.8z"/>
				<path fill="none" stroke="#000000" stroke-width="25" stroke-linejoin="round" stroke-miterlimit="10" d="M311.8,1169.5
					c30.5,29.2,80.4,30.3,80.4,30.3s9.3-56.2-20.1-91.6c-29.4-35.4-86.3-36.7-86.3-36.7s-9.3,56.2,20.1,91.6
					C307.7,1165.4,309.7,1167.5,311.8,1169.5"/>
			</g>
			<g>
				<path fill="none" stroke="#000000" stroke-width="25" stroke-linejoin="round" stroke-miterlimit="10" d="M275.3,795.9
					c-44.2,12.8-68.1,64.4-68.1,64.4s47.8,31,92,18.2c44.2-12.8,68.1-64.4,68.1-64.4S319.5,783.2,275.3,795.9z"/>
				<path fill="none" stroke="#000000" stroke-width="25" stroke-linejoin="round" stroke-miterlimit="10" d="M458.4,877.5
					c-19.4-41.7-74.1-57.4-74.1-57.4s-23.3,52-3.9,93.7c19.4,41.7,74.1,57.4,74.1,57.4S477.8,919.3,458.4,877.5z"/>
			</g>
			<g>
				<path fill="none" stroke="#000000" stroke-width="25" stroke-linejoin="round" stroke-miterlimit="10" d="M381.7,672.2
					c-45.9,2.6-80.8,47.6-80.8,47.6s39.6,40.9,85.6,38.3c45.9-2.6,80.8-47.6,80.8-47.6S427.7,669.7,381.7,672.2z"/>
				<path fill="none" stroke="#000000" stroke-width="25" stroke-linejoin="round" stroke-miterlimit="10" d="M541.9,792.7
					c-9.6-45-59.4-72.5-59.4-72.5s-34.3,45.4-24.7,90.4c9.6,45,59.4,72.5,59.4,72.5S551.4,837.7,541.9,792.7z"/>
			</g>
			<g>
				<path fill="none" stroke="#000000" stroke-width="25" stroke-linejoin="round" stroke-miterlimit="10" d="M513.5,571
					c-45.6-5.9-88.2,31.9-88.2,31.9s31.4,47.5,77.1,53.4c45.6,5.9,88.2-31.9,88.2-31.9S559.1,577,513.5,571z"/>
				<path fill="none" stroke="#000000" stroke-width="25" stroke-linejoin="round" stroke-miterlimit="10" d="M648.7,719
					c-1.1-46-45-82.2-45-82.2s-42.1,38.3-40.9,84.3s45,82.2,45,82.2S649.8,764.9,648.7,719z"/>
			</g>
			<path fill="none" stroke="#000000" stroke-width="25" stroke-linejoin="round" stroke-miterlimit="10" d="M401,983.1
				c-29.4-35.4-86.3-36.7-86.3-36.7s-9.3,56.2,20.1,91.6c29.4,35.4,86.3,36.7,86.3,36.7S430.4,1018.5,401,983.1z"/>
			<path fill="none" stroke="#000000" stroke-width="25" stroke-linecap="round" stroke-miterlimit="10" d="M294.6,1236.2
				C248.2,1117,277.2,985.7,341,878.8C411.2,761.1,520,668.6,639.4,603.6"/>
		</g>
		<g>
			
				<path fill="none" stroke="#000000" stroke-width="25" stroke-linecap="round" stroke-linejoin="round" stroke-miterlimit="10" d="
				M876.2,503.1c-10.9,0-20,0.5-33.7,1.8v-67c11.8,1.8,20.5,2.3,34.2,2.3h17.8v-31c0-23.7-0.5-33.3-2.3-46.9h72
				c-1.8,14.1-2.3,22.3-2.3,46.5v31.4H976c7.3,0,12.8-0.5,20.5-1.4v65.6l-3.2-0.5c-6.8-0.5-11.8-0.9-17.3-0.9h-14.1v50.1
				c13.2-3.2,16.4-4.1,33.3-8.7v61.5c-16.4,5.5-19.6,6.4-33.3,10.5v118c0,40.1-18.7,54.2-73.4,54.2c-8.7,0-16.4-0.5-33.7-1.4
				c-2.3-26.9-5.5-39.6-15-67.9c19.6,1.8,31,2.7,41.9,2.7c10.9,0,12.8-2.3,12.8-14.1v-73.4c-23.2,5.9-37.8,10-45.6,12.8l-10.9-70.6
				c12.3-0.5,15-0.5,26.4-2.7c2.3-0.5,3.2-0.5,30.1-5.5v-65.6H876.2z M1077.6,430.2c12.3-31.9,16.9-48.3,19.6-69.2l76.5,7.3
				c-2.7,7.3-2.7,7.3-12.3,34.6c-0.5,2.3-4.6,11.4-11.4,27.3h47.8c28.7,0,35.5-0.5,49.7-1.8c-1.8,15-2.3,26.4-2.3,48.7v248.3
				c0,20,0.9,42.4,2.7,62.9h-72.4v-20h-101.1v20h-70.6c1.8-20.5,2.7-45.6,2.7-62.4V477.6c0-26.4,0-34.2-1.4-49.2
				c13.7,1.4,22.8,1.8,50.6,1.8H1077.6z M1074.4,564.6h101.1v-69.7h-101.1V564.6z M1074.4,703.6h101.1V627h-101.1V703.6z"/>
		</g>
		<g>
			<g>
				
					<path fill="none" stroke="#000000" stroke-width="25" stroke-linecap="round" stroke-linejoin="round" stroke-miterlimit="10" d="
					M1807.2,1905.6v693.9H1514c-22.8,231.4-218.6,412.8-455.9,412.8S625,2831,602.2,2599.6H309V1650"/>
				
					<line fill="none" stroke="#000000" stroke-width="25" stroke-linecap="round" stroke-linejoin="round" stroke-miterlimit="10" x1="1807.2" y1="1163.1" x2="1807.2" y2="1459.1"/>
				
					<path fill="none" stroke="#000000" stroke-width="25" stroke-linecap="round" stroke-linejoin="round" stroke-miterlimit="10" d="
					M309,691.3V558.2h293.2c22.8-231.4,218.6-412.8,455.9-412.8s433.1,181.4,455.9,412.8h293.2v149"/>
				
					<line fill="none" stroke="#000000" stroke-width="25" stroke-linecap="round" stroke-linejoin="round" stroke-miterlimit="10" x1="309" y1="1318.7" x2="309" y2="1180.3"/>
				
					<line fill="none" stroke="#000000" stroke-width="25" stroke-linecap="round" stroke-linejoin="round" stroke-miterlimit="10" x1="354.3" y1="1200.7" x2="354.3" y2="1286.7"/>
				
					<path fill="none" stroke="#000000" stroke-width="25" stroke-linecap="round" stroke-linejoin="round" stroke-miterlimit="10" d="
					M354.3,1200.7"/>
				
					<path fill="none" stroke="#000000" stroke-width="25" stroke-linecap="round" stroke-linejoin="round" stroke-miterlimit="10" d="
					M354.3,678.7"/>
				
					<polyline fill="none" stroke="#000000" stroke-width="25" stroke-linecap="round" stroke-linejoin="round" stroke-miterlimit="10" points="
					425.4,603.5 354.3,603.5 354.3,678.7 				"/>
				
					<path fill="none" stroke="#000000" stroke-width="25" stroke-linecap="round" stroke-linejoin="round" stroke-miterlimit="10" d="
					M1539.6,603.5H1471c0-228-184.8-412.8-412.8-412.8c-228,0-412.8,184.8-412.8,412.8h-72.4"/>
				
					<polyline fill="none" stroke="#000000" stroke-width="25" stroke-linecap="round" stroke-linejoin="round" stroke-miterlimit="10" points="
					1761.9,677.3 1761.9,603.5 1684.9,603.5 				"/>
				
					<path fill="none" stroke="#000000" stroke-width="25" stroke-linecap="round" stroke-linejoin="round" stroke-miterlimit="10" d="
					M1761.9,1302.7"/>
				
					<path fill="none" stroke="#000000" stroke-width="25" stroke-linecap="round" stroke-linejoin="round" stroke-miterlimit="10" d="
					M1761.9,2078.1"/>
				
					<path fill="none" stroke="#000000" stroke-width="25" stroke-linecap="round" stroke-linejoin="round" stroke-miterlimit="10" d="
					M354.3,1682.9v871.3h291c0,228,184.8,412.8,412.8,412.8s412.8-184.8,412.8-412.8h291v-283.7"/>
			</g>
		</g>
		<g>
			<path fill="none" stroke="#000000" stroke-width="25" stroke-linejoin="round" stroke-miterlimit="10" d="M966.8,2620.8
				c-19.2-13.4-45.9-8.4-59.5,11c13.6-19.4,9-46.3-10.2-59.7c-19.2-13.4-45.9-8.4-59.5,11l-38.1,54.5c-13.6,19.4-9,46.3,10.2,59.7
				c19.2,13.4,45.9,8.4,59.5-11c-13.6,19.4-9,46.3,10.2,59.7c19.2,13.4,45.9,8.4,59.5-11c-13.6,19.4-9,46.3,10.2,59.7
				c19.2,13.4,45.9,8.4,59.5-11c-13.6,19.4-9,46.3,10.2,59.7c19.2,13.4,45.9,8.4,59.5-11l38.1-54.5c13.6-19.4,9-46.3-10.2-59.7
				s-45.9-8.4-59.5,11c13.6-19.4,9-46.3-10.2-59.7c-19.2-13.4-45.9-8.4-59.5,11C990.5,2661,985.9,2634.2,966.8,2620.8z"/>
			
				<line fill="none" stroke="#000000" stroke-width="25" stroke-linejoin="round" stroke-miterlimit="10" x1="867.1" y1="2689" x2="907.1" y2="2631.7"/>
			
				<line fill="none" stroke="#000000" stroke-width="25" stroke-linejoin="round" stroke-miterlimit="10" x1="936.8" y1="2737.7" x2="978.7" y2="2677.6"/>
			
				<line fill="none" stroke="#000000" stroke-width="25" stroke-linejoin="round" stroke-miterlimit="10" x1="1008.6" y1="2783.6" x2="1048.5" y2="2726.4"/>
			<g>
				
					<path fill="none" stroke="#000000" stroke-width="25" stroke-linecap="round" stroke-linejoin="round" stroke-miterlimit="10" d="
					M1274.9,2338.3l-46.7,34.4c-10.9,8-25.2,9.8-37.7,4.8l-107-43.2c-8-3.2-17.1-2.1-24,3l-134.2,99.1c-8.3,6.2-10.1,17.9-4,26.3
					l79.1,107.4c14.1,19.1,40.9,23.4,59.8,9.5s22.7-40.8,8.7-59.9l-45.6-62.4l32.5-23.9c0,0,75.6,12.8,100.4,30.7
					c24.8,17.9,104,79.5,104,79.5"/>
				
					<path fill="none" stroke="#000000" stroke-width="25" stroke-linecap="round" stroke-linejoin="round" stroke-miterlimit="10" d="
					M1320.5,2587.8c-1.6-9.5,14.6-43.3,22.3-49l51.7-38"/>
			</g>
			<g>
				
					<path fill="none" stroke="#000000" stroke-width="25" stroke-linecap="round" stroke-linejoin="round" stroke-miterlimit="10" d="
					M1260,2543.6l51,35.2c19.5,13.5,24.6,40.2,11.3,59.5c-13.3,19.2-40.1,23.9-59.6,10.5c19.5,13.5,24.6,40.2,11.3,59.5
					c-13.3,19.2-40.1,23.9-59.6,10.5c19.5,13.5,24.6,40.2,11.3,59.5c-13.3,19.2-40.1,23.9-59.6,10.5c19.5,13.5,0.8,37.1-4,44
					c-7.6,11-40.1,23.9-59.6,10.5l-23.7-11.5"/>
				
					<line fill="none" stroke="#000000" stroke-width="25" stroke-linecap="round" stroke-linejoin="round" stroke-miterlimit="10" x1="1264.3" y1="2649.8" x2="1229.1" y2="2625.5"/>
				
					<line fill="none" stroke="#000000" stroke-width="25" stroke-linecap="round" stroke-linejoin="round" stroke-miterlimit="10" x1="1215.9" y1="2719.8" x2="1180.7" y2="2695.6"/>
				
					<line fill="none" stroke="#000000" stroke-width="25" stroke-linecap="round" stroke-linejoin="round" stroke-miterlimit="10" x1="1167.7" y1="2789.7" x2="1166.1" y2="2788.6"/>
			</g>
			
				<path fill="none" stroke="#000000" stroke-width="25" stroke-linecap="round" stroke-linejoin="round" stroke-miterlimit="10" d="
				M867,2357.7l50.8,35.1c9.7,6.7,21.1,10.7,32.9,11.4l16.9,1.1"/>
			
				<path fill="none" stroke="#000000" stroke-width="25" stroke-linecap="round" stroke-linejoin="round" stroke-miterlimit="10" d="
				M770.5,2497.3"/>
			
				<path fill="none" stroke="#000000" stroke-width="25" stroke-linecap="round" stroke-linejoin="round" stroke-miterlimit="10" d="
				M811.9,2619.9c-0.2-3.8,0-7.6,0.5-11.4l3-21.2c1.6-11.2-3.3-22.4-12.6-28.8l-50.4-34.8"/>
			
				<line fill="none" stroke="#000000" stroke-width="25" stroke-linecap="round" stroke-linejoin="round" stroke-miterlimit="10" x1="1167.7" y1="2789.7" x2="1140.5" y2="2772.5"/>
		</g>
		<path fill="none" stroke="#000000" stroke-width="25" stroke-linecap="round" stroke-linejoin="round" stroke-miterlimit="10" d="
			M1761.9,1947.2"/>
		<path fill="none" stroke="#000000" stroke-width="25" stroke-linecap="round" stroke-linejoin="round" stroke-miterlimit="10" d="
			M1615.8,2064.5"/>
		
			<line fill="none" stroke="#000000" stroke-width="25" stroke-linecap="round" stroke-linejoin="round" stroke-miterlimit="10" x1="1553.1" y1="2115" x2="1615.8" y2="2064.5"/>
		<path fill="none" stroke="#000000" stroke-width="25" stroke-linecap="round" stroke-linejoin="round" stroke-miterlimit="10" d="
			M1553.1,2115"/>
		<path fill="none" stroke="#000000" stroke-width="25" stroke-linecap="round" stroke-linejoin="round" stroke-miterlimit="10" d="
			M1348.9,2278.9"/>
		
			<line fill="none" stroke="#000000" stroke-width="25" stroke-linecap="round" stroke-linejoin="round" stroke-miterlimit="10" x1="1274.9" y1="2338.3" x2="1348.9" y2="2278.9"/>
		<path fill="none" stroke="#000000" stroke-width="25" stroke-linecap="round" stroke-linejoin="round" stroke-miterlimit="10" d="
			M1761.9,2224"/>
		
			<line fill="none" stroke="#000000" stroke-width="25" stroke-linecap="round" stroke-linejoin="round" stroke-miterlimit="10" x1="1394.5" y1="2500.8" x2="1701" y2="2269.9"/>
		
			<line fill="none" stroke="#000000" stroke-width="25" stroke-linecap="round" stroke-linejoin="round" stroke-miterlimit="10" x1="867" y1="2357.7" x2="354.3" y2="1973"/>
		
			<line fill="none" stroke="#000000" stroke-width="25" stroke-linecap="round" stroke-linejoin="round" stroke-miterlimit="10" x1="752.3" y1="2523.6" x2="354.3" y2="2266.3"/>
		<path fill="none" stroke="#000000" stroke-width="25" stroke-linecap="round" stroke-linejoin="round" stroke-miterlimit="10" d="
			M1600.9,2599.6c-29.5,273.7-261.2,486.9-542.8,486.9c-281.6,0-513.3-213.1-542.8-486.9"/>
	</g>
	<g>
		<g>
			
				<line fill="none" stroke="#000000" stroke-width="25" stroke-linecap="round" stroke-linejoin="round" stroke-miterlimit="10" x1="1309.9" y1="2411.3" x2="1368.7" y2="2367.2"/>
		</g>
		
			<line fill="none" stroke="#000000" stroke-width="25" stroke-linecap="round" stroke-linejoin="round" stroke-miterlimit="10" x1="1339.3" y1="2441.9" x2="1398.1" y2="2397.8"/>
	</g>
	<g>
		<path fill="url(#_x36__dpi_30_x25_)" d="M1455.7,1927.6c58.1-4.8,98.6-9,173.4-5.4c17.3-9.4,41.7-29.3,61.4-29.3
			c31.1,0,71.7,19.2,75.3,23.9c84-22,204.3-81,206-220c2.1-168.2-139-221.7-231.5-270c-87.7-45.8-247.9-57.4-318.5-58.3
			c-70.6-0.9-43.2,13.5-94.6,12.9c-22-0.3-100.1-1.4-203.6-2.9c-2,2.6-44.8,44.5-44.8,44.5l-48.5-45.8c0,0-58.8-0.9-90-1.4
			c-0.8,1.7-44,44.9-44,44.9l-47.2-46.3l-33,9.5c0,0-145.8,34.7-190.5,54.8c-44.8,20.1-124.9,73.1-124.9,73.1s15.7,42.8,70.8,58.2
			c55.2,15.3,97.2,25.6,97.2,25.6s384.1-57.9,508.2-56.4c124.2,1.5,247.3-2.4,335,14.1c87.7,16.5,210.1,48.6,209.4,105.2
			c-0.7,56.6,20,117.6-304.8,118.9c-324.8,1.3-662.7,12.9-662.7,12.9s-211.7,35.8-213.9,219.4c-2.3,183.7,199.9,231.5,305.2,232.8
			c105.3,1.3,431.7-30.5,431.7-30.5s36.7,86.1,156.8,93.8c120.1,7.7,149.8-27.8,149.8-27.8s182.9,21.3,199.2-16.6
			c16.3-37.9,13.3-65,13.3-65s-32.5,33.3-89.1,16.5c-56.6-16.8-64.4-73.1-93.6-78.5c-29.2-5.4-55.3-13-55.3-13s-31.6-31.1-76.3-41.8
			c-44.6-10.8-148.9,24.2-148.9,24.2S1383.5,1933.5,1455.7,1927.6z M1461.9,2167.9c28.3,0.3,51,23.6,50.6,51.9
			c-0.3,28.3-23.6,51-51.9,50.6c-28.3-0.3-51-23.6-50.6-51.9C1410.3,2190.2,1433.6,2167.5,1461.9,2167.9z M1344.5,1972.8
			c-73.2,94.9-80.2,96.3-80.2,96.3L813.1,2090c0,0-56.2-3.6-55.5-62.3c0.7-58.7,81.1-64.3,102.9-64.1
			c21.8,0.3,477.3-16.3,477.3-16.3s11.7-0.4,30.9-1.2C1360.3,1954.1,1352.1,1962.9,1344.5,1972.8z"/>
		<path fill="url(#_x36__dpi_30_x25_)" d="M373.3,1701.2c0,0-27.9,141.8,87.8,208c115.6,66.2,93.1,47.1,93.1,47.1
			s13.4-38.3,29.2-55.5s23.1-25.9,23.1-25.9s-32.5,0.7-52.5-34.8c-20.1-35.6-13.3-77.6-13.3-77.6L373.3,1701.2z"/>
		<g>
			<g>
				<g>
					<path fill="#181818" stroke="#000000" stroke-width="25" stroke-miterlimit="10" d="M929,948.5c1,23-12.6,42.3-12.6,42.3
						s-15.2-18-16.2-41c-1-23,12.6-42.3,12.6-42.3S928,925.5,929,948.5z"/>
					<circle fill="none" stroke="#000000" stroke-width="25" stroke-miterlimit="10" cx="914.6" cy="947.8" r="54.5"/>
				</g>
				<g>
					<path fill="#181818" stroke="#000000" stroke-width="25" stroke-miterlimit="10" d="M1455.7,2214.2c1.1-21.9,15.7-39,15.7-39
						s12.9,18.5,11.8,40.4c-1.1,21.9-15.7,39-15.7,39S1454.6,2236.1,1455.7,2214.2z"/>
					<circle fill="none" stroke="#000000" stroke-width="25" stroke-miterlimit="10" cx="1469.4" cy="2216.1" r="52"/>
				</g>
				<g>
					
						<path fill="none" stroke="#000000" stroke-width="25" stroke-linecap="round" stroke-linejoin="round" stroke-miterlimit="10" d="
						M842.8,1380.4c-45.7,0-87.2,0-120,0c-92.7,0-115,8-115,8s-113,20.7-113,99c0,52.7,24.3,75.2,86,95c62.5,20,165,31,409,31
						c144,0,454.3-11.4,550.5-58.6"/>
					
						<path fill="none" stroke="#000000" stroke-width="25" stroke-linecap="round" stroke-linejoin="round" stroke-miterlimit="10" d="
						M1026,1380.4c-31.8,0-45.2,0-76.9,0"/>
					
						<path fill="none" stroke="#000000" stroke-width="25" stroke-linecap="round" stroke-linejoin="round" stroke-miterlimit="10" d="
						M1026,1380.4"/>
					
						<path fill="none" stroke="#000000" stroke-width="25" stroke-linecap="round" stroke-linejoin="round" stroke-miterlimit="10" d="
						M1128.8,1380.4"/>
					
						<path fill="none" stroke="#000000" stroke-width="25" stroke-linecap="round" stroke-linejoin="round" stroke-miterlimit="10" d="
						M1523,948.3c57.6,32.1,106.9,84.9,106.9,171.6c0,179.5-189,260.5-317.5,260.5c-15.8,0-90,0-183.5,0"/>
					
						<path fill="none" stroke="#000000" stroke-width="25" stroke-linecap="round" stroke-linejoin="round" stroke-miterlimit="10" d="
						M1523,948.3"/>
					
						<path fill="none" stroke="#000000" stroke-width="25" stroke-linecap="round" stroke-linejoin="round" stroke-miterlimit="10" d="
						M1465,922.9"/>
					
						<path fill="none" stroke="#000000" stroke-width="25" stroke-linecap="round" stroke-linejoin="round" stroke-miterlimit="10" d="
						M1376.3,902.8c25.3,0,87.3,15.1,107.3,24.8"/>
					
						<path fill="none" stroke="#000000" stroke-width="25" stroke-linecap="round" stroke-linejoin="round" stroke-miterlimit="10" d="
						M1376.3,902.8"/>
					
						<path fill="none" stroke="#000000" stroke-width="25" stroke-linecap="round" stroke-linejoin="round" stroke-miterlimit="10" d="
						M1331.3,898.8"/>
					
						<path fill="none" stroke="#000000" stroke-width="25" stroke-linecap="round" stroke-linejoin="round" stroke-miterlimit="10" d="
						M740.9,1148c0,0-92.6-28.6-92.6-62.1s20.5-38.5,47-47.5s83.5-38,93-95s63.9-96.9,124.3-102.4c64.9-5.9,167.1,25,198.2,49.9
						c0,0,129.5-2.7,220.5,7.9"/>
					
						<path fill="none" stroke="#000000" stroke-width="25" stroke-linecap="round" stroke-linejoin="round" stroke-miterlimit="10" d="
						M1200.3,1209.3c37.3,0.4,72.2,0.7,102.9,0.7c126.7,0,147-53.4,147-87c0-31.4-21.6-58.1-50.3-73.3
						c-25.4-13.5-127.4-23.7-195.3-28.3c-98.3-6.7-138.8,29.1-138.8,29.1c-16,53.1-53.9,76.2-98.6,93.7
						C914.6,1164.7,850,1158,850,1158s30-7.3,73.9-36.3c45-29.7,71.8-91.4,71.8-91.4s-38.2,30.7-60.2,40.7s-51.3,9.3-97.3,9.3
						s-68,49.3-68,49.3"/>
					
						<path fill="none" stroke="#000000" stroke-width="25" stroke-linecap="round" stroke-linejoin="round" stroke-miterlimit="10" d="
						M1021.3,1206.7c37.2,0.6,74.7,1.2,111,1.7"/>
					
						<path fill="none" stroke="#000000" stroke-width="25" stroke-linecap="round" stroke-linejoin="round" stroke-miterlimit="10" d="
						M837.8,1204.1c36.5,0.4,76.8,1,118.5,1.6"/>
					
						<path fill="none" stroke="#000000" stroke-width="25" stroke-linecap="round" stroke-linejoin="round" stroke-miterlimit="10" d="
						M255.3,1399.8c59.2-129.1,257-185.5,416.8-193.8c0.1,0,0.1,0,0.2,0c15.4-1.8,53.3-2.4,104.4-2.2"/>
					
						<path fill="none" stroke="#000000" stroke-width="25" stroke-linecap="round" stroke-linejoin="round" stroke-miterlimit="10" d="
						M266.1,1590.7c-18.7-32.4-28.3-68.8-28.3-109.2c0-15,1.6-29.3,4.5-42.9"/>
					
						<path fill="none" stroke="#000000" stroke-width="25" stroke-linecap="round" stroke-linejoin="round" stroke-miterlimit="10" d="
						M792.2,1789.9c-242.8-16.3-412.5-68.4-495.8-158.4"/>
					
						<path fill="none" stroke="#000000" stroke-width="25" stroke-linecap="round" stroke-linejoin="round" stroke-miterlimit="10" d="
						M1712.5,1630.7c-16.3,57-229.3,133.3-405.3,145.2"/>
					
						<path fill="none" stroke="#000000" stroke-width="25" stroke-linecap="round" stroke-linejoin="round" stroke-miterlimit="10" d="
						M853.2,1387.2c-172,20.5-304.2,85.4-353.5,134.7"/>
					
						<path fill="none" stroke="#000000" stroke-width="25" stroke-linecap="round" stroke-linejoin="round" stroke-miterlimit="10" d="
						M1920.1,1553.7c-75.7-101.8-239.4-186.2-513.2-186.2"/>
					
						<path fill="none" stroke="#000000" stroke-width="25" stroke-linecap="round" stroke-linejoin="round" stroke-miterlimit="10" d="
						M1936,1808.4c22-31.6,34.8-68.6,34.8-110.9c0-32.5-7.6-66.3-23.6-99.3"/>
					
						<path fill="none" stroke="#000000" stroke-width="25" stroke-linecap="round" stroke-linejoin="round" stroke-miterlimit="10" d="
						M1936,1808.4"/>
					
						<path fill="none" stroke="#000000" stroke-width="25" stroke-linecap="round" stroke-linejoin="round" stroke-miterlimit="10" d="
						M1887.9,1858.8"/>
					
						<path fill="none" stroke="#000000" stroke-width="25" stroke-linecap="round" stroke-linejoin="round" stroke-miterlimit="10" d="
						M1768.1,1919.1c45-13.7,104-47.3,137.5-73.7"/>
					
						<path fill="none" stroke="#000000" stroke-width="25" stroke-linecap="round" stroke-linejoin="round" stroke-miterlimit="10" d="
						M1277.2,1953.5"/>
					<g>
						
							<path fill="none" stroke="#000000" stroke-width="25" stroke-linecap="round" stroke-linejoin="round" stroke-miterlimit="10" d="
							M1019.5,2232.1c116.7-8.3,232.5-14.3,242-14.2c9.9,0.1,20.6-1.6,26.4,6.4c16.9,22.8,61.6,69.7,149.4,79
							c80.6,8.5,150.6-29.6,150.6-29.6s95.7-1.1,158.8-2.6c78.4-1.8,56.5-98.7,54.4-112.9"/>
						
							<path fill="none" stroke="#000000" stroke-width="25" stroke-linecap="round" stroke-linejoin="round" stroke-miterlimit="10" d="
							M974.3,2237.4c-34.4,1.9-91,7.6-128.1,3.8"/>
						
							<path fill="none" stroke="#000000" stroke-width="25" stroke-linecap="round" stroke-linejoin="round" stroke-miterlimit="10" d="
							M799.3,1789.9c-135,15.3-267.8,87.8-253.4,244.5c13.5,146.8,172.5,192.1,251.7,202.1"/>
						
							<path fill="none" stroke="#000000" stroke-width="25" stroke-linecap="round" stroke-linejoin="round" stroke-miterlimit="10" d="
							M664.6,1599.9c72.4-35,417.6-58.9,561.6-58.9c244,0,327.8,11,390.3,31c61.7,19.8,104.7,42.3,104.7,95c0,78.3-113,99-113,99
							s-22.3,8-115,8c-165.3,0-598.1,12.8-636.5,12.8c-19.3,0-38.5,1-57.5,3.2"/>
						
							<path fill="none" stroke="#000000" stroke-width="25" stroke-linecap="round" stroke-linejoin="round" stroke-miterlimit="10" d="
							M1801.2,2158.1c0,0-16.3,57.2-59.6,54s-69.8-21.8-87.5-46.7c-17.7-24.9-33.3-42.7-65.3-40.6c-31.9,2.1-65.5-46.3-106.3-48.5
							c-75.3-4.1-156.2,32.7-156.2,32.7s33.4-104.2,77.8-154.8c41.6-47.4,139.5-81.5,139.5-81.5s-117,17.7-163.2,54.8
							c-42.3,33.9-83.9,133.6-104.5,139.9c-7.1,2.2-372,23.6-414.8,23.6c-52.8,0-98.2-10.2-104.8-59.5c-4.5-33.3,36-67.1,104.4-71
							c27.5-1.6,308.8-3.8,488.6-7.1"/>
						
							<path fill="none" stroke="#000000" stroke-width="25" stroke-linecap="round" stroke-linejoin="round" stroke-miterlimit="10" d="
							M1801.2,2158.1c0,0,1,3-13.4-13.4c-8.1-9.2-22.7-21.7-37.3-27.2c16.9,14.8,28.8,72.4,22.7,84.4
							C1773.2,2201.9,1797.3,2170.7,1801.2,2158.1z"/>
						
							<path fill="none" stroke="#000000" stroke-width="25" stroke-linecap="round" stroke-linejoin="round" stroke-miterlimit="10" d="
							M1402.8,2084.3c0,0,12.5-76,22.1-96.8c24.3-52.3,65.1-92.5,113.4-112.9"/>
						
							<path fill="none" stroke="#000000" stroke-width="25" stroke-linecap="round" stroke-linejoin="round" stroke-miterlimit="10" d="
							M1466.6,2037.6c0,0,10.6-60,40.2-89.1c19.9-19.5,19.7-17.7,63.9-38l40.5,10.1"/>
						
							<path fill="none" stroke="#000000" stroke-width="25" stroke-linecap="round" stroke-linejoin="round" stroke-miterlimit="10" d="
							M1590.1,1890.5"/>
					</g>
					
						<path fill="none" stroke="#000000" stroke-width="25" stroke-linecap="round" stroke-linejoin="round" stroke-miterlimit="10" d="
						M1288.8,1106.8"/>
					
						<path fill="none" stroke="#000000" stroke-width="25" stroke-linecap="round" stroke-linejoin="round" stroke-miterlimit="10" d="
						M1362.2,1108.4"/>
					
						<path fill="none" stroke="#000000" stroke-width="25" stroke-linecap="round" stroke-linejoin="round" stroke-miterlimit="10" d="
						M375.6,1697.6c-31.5,105.1,55.1,222.4,177.2,241.7"/>
					
						<path fill="none" stroke="#000000" stroke-width="25" stroke-linecap="round" stroke-linejoin="round" stroke-miterlimit="10" d="
						M533.8,1752.3c-16.4,37.6,18.6,110.3,78.6,110.3"/>
					<g>
						
							<path fill="none" stroke="#000000" stroke-width="25" stroke-linecap="round" stroke-linejoin="round" stroke-miterlimit="10" d="
							M1801.2,1443.5c18-103.4-73.9-245.7-171.4-276.4"/>
						
							<path fill="none" stroke="#000000" stroke-width="25" stroke-linecap="round" stroke-linejoin="round" stroke-miterlimit="10" d="
							M1641.8,1392.4c18.1-68.2-25-114.1-51.7-136.4"/>
					</g>
					
						<path fill="none" stroke="#000000" stroke-width="25" stroke-linecap="round" stroke-linejoin="round" stroke-miterlimit="10" d="
						M1449.8,1130.8c-45.1,8.7-125.9,3.9-166.3-4.2c-24.9-5.1-75.1-15.2-85.3-53.5c-6.2,15.5,0.2,65.3,90.6,85.7
						c38.4,8.7,78.4,19.4,133.1,19.4"/>
				</g>
			</g>
			
				<path fill="none" stroke="#000000" stroke-width="26" stroke-linecap="round" stroke-linejoin="round" stroke-miterlimit="10" d="
				M750.9,907.9c0-29.2-23.7-52.9-52.9-52.9c-16.3,0-30.8,7.4-40.5,18.9c-9.7-11.6-24.2-18.9-40.5-18.9c-29.2,0-52.9,23.7-52.9,52.9
				c0,66.2,93.4,103.5,93.4,103.5S750.9,980.1,750.9,907.9z"/>
			<g>
				
					<line fill="none" stroke="#000000" stroke-width="26" stroke-linecap="round" stroke-linejoin="round" stroke-miterlimit="10" x1="448.8" y1="1053" x2="583.7" y2="1053"/>
				
					<line fill="none" stroke="#000000" stroke-width="26" stroke-linecap="round" stroke-linejoin="round" stroke-miterlimit="10" x1="474.5" y1="1106.5" x2="609.4" y2="1106.5"/>
				
					<line fill="none" stroke="#000000" stroke-width="26" stroke-linecap="round" stroke-linejoin="round" stroke-miterlimit="10" x1="501.3" y1="1155.1" x2="636.2" y2="1155.1"/>
			</g>
			
				<circle fill="none" stroke="#000000" stroke-width="26" stroke-linecap="round" stroke-linejoin="round" stroke-miterlimit="10" cx="1695.9" cy="1993" r="102.5"/>
			<g>
				<path stroke="#000000" stroke-miterlimit="10" d="M1693.1,1972.4c-12.4,0.2-22.6-9.6-22.8-22.1c-0.2-12.4,9.6-22.6,22.1-22.8
					c12.4-0.2,22.6,9.6,22.8,22.1C1715.4,1962,1705.5,1972.2,1693.1,1972.4z M1692.5,2059.2c-3.9,0.1-9.3-2.8-9.4-7.1
					c-0.1-3.2,9-14.4,8.9-21.8c-0.1-8-20.5-3.7-20.8-26.2c-0.2-11.9,9.3-22.6,21.3-22.8c16.9-0.3,24.9,15.9,25.2,30.7
					C1718,2028.6,1707.1,2059,1692.5,2059.2z"/>
			</g>
		</g>
		<g>
			
				<rect x="756.4" y="1201.2" transform="matrix(0.7071 0.7071 -0.7071 0.7071 1120.9677 -203.7983)" fill="none" stroke="#000000" stroke-width="25" stroke-linecap="round" stroke-linejoin="round" stroke-miterlimit="10" width="100.1" height="100.1"/>
			
				<polyline fill="none" stroke="#000000" stroke-width="25" stroke-linecap="round" stroke-linejoin="round" stroke-miterlimit="10" points="
				1011.5,1206.6 1056.2,1251.2 985.4,1322 914.6,1251.2 961.2,1204.7 			"/>
			
				<polyline fill="none" stroke="#000000" stroke-width="25" stroke-linecap="round" stroke-linejoin="round" stroke-miterlimit="10" points="
				961.2,1204.7 985.4,1180.4 1011.5,1206.6 			"/>
			
				<rect x="1114.2" y="1201.2" transform="matrix(0.7071 0.7071 -0.7071 0.7071 1225.7588 -456.7837)" fill="none" stroke="#000000" stroke-width="25" stroke-linecap="round" stroke-linejoin="round" stroke-miterlimit="10" width="100.1" height="100.1"/>
			
				<rect x="846.2" y="1309.3" transform="matrix(0.7071 0.7071 -0.7071 0.7071 1223.7019 -235.6372)" fill="none" stroke="#000000" stroke-width="25" stroke-linecap="round" stroke-linejoin="round" stroke-miterlimit="10" width="100.1" height="100.1"/>
			
				<rect x="1025.7" y="1309.3" transform="matrix(0.7071 0.7071 -0.7071 0.7071 1276.2562 -362.5172)" fill="none" stroke="#000000" stroke-width="25" stroke-linecap="round" stroke-linejoin="round" stroke-miterlimit="10" width="100.1" height="100.1"/>
		</g>
		
			<line fill="none" stroke="#000000" stroke-width="25" stroke-linecap="round" stroke-linejoin="round" stroke-miterlimit="10" x1="1572.3" y1="1908.9" x2="1598.4" y2="1875.8"/>
		<g>
			<g>
				
					<line fill="#FFFFFF" stroke="#000000" stroke-width="25" stroke-linecap="round" stroke-linejoin="round" stroke-miterlimit="10" x1="338.2" y1="1443.2" x2="432.5" y2="1553.6"/>
				
					<line fill="#FFFFFF" stroke="#000000" stroke-width="25" stroke-linecap="round" stroke-linejoin="round" stroke-miterlimit="10" x1="432.5" y1="1443.2" x2="338.2" y2="1553.6"/>
			</g>
			<g>
				
					<line fill="none" stroke="#000000" stroke-width="25" stroke-linecap="round" stroke-linejoin="round" stroke-miterlimit="10" x1="318.5" y1="1439.7" x2="353.7" y2="1439.7"/>
				
					<line fill="none" stroke="#000000" stroke-width="25" stroke-linecap="round" stroke-linejoin="round" stroke-miterlimit="10" x1="417" y1="1439.7" x2="452.2" y2="1439.7"/>
			</g>
			<g>
				
					<line fill="none" stroke="#000000" stroke-width="25" stroke-linecap="round" stroke-linejoin="round" stroke-miterlimit="10" x1="318.5" y1="1558.6" x2="353.7" y2="1558.6"/>
				
					<line fill="none" stroke="#000000" stroke-width="25" stroke-linecap="round" stroke-linejoin="round" stroke-miterlimit="10" x1="417" y1="1558.6" x2="452.2" y2="1558.6"/>
			</g>
		</g>
		
			<line fill="none" stroke="#000000" stroke-width="25" stroke-linecap="round" stroke-miterlimit="10" x1="691.2" y1="1082.6" x2="704.3" y2="1073"/>
	</g>
</g>
<g id="圖層_2">
</g>
<g id="圖層_3">
</g>
</svg>
