<?xml version="1.0" encoding="utf-8"?>
<!-- Generator: Adobe Illustrator 17.1.0, SVG Export Plug-In . SVG Version: 6.00 Build 0)  -->
<!DOCTYPE svg PUBLIC "-//W3C//DTD SVG 1.1//EN" "http://www.w3.org/Graphics/SVG/1.1/DTD/svg11.dtd" [
	<!ENTITY ns_flows "http://ns.adobe.com/Flows/1.0/">
	<!ENTITY ns_extend "http://ns.adobe.com/Extensibility/1.0/">
	<!ENTITY ns_ai "http://ns.adobe.com/AdobeIllustrator/10.0/">
	<!ENTITY ns_graphs "http://ns.adobe.com/Graphs/1.0/">
]>
<svg version="1.1" xmlns:x="&ns_extend;" xmlns:i="&ns_ai;" xmlns:graph="&ns_graphs;"
	 xmlns="http://www.w3.org/2000/svg" xmlns:xlink="http://www.w3.org/1999/xlink" xmlns:a="http://ns.adobe.com/AdobeSVGViewerExtensions/3.0/"
	 x="0px" y="0px" viewBox="0 0 2000 2000" enable-background="new 0 0 2000 2000" xml:space="preserve">
<pattern  x="-1500" y="-3000" width="48" height="48" patternUnits="userSpaceOnUse" id="_x36__dpi_30_x25_" viewBox="3.6 -51.6 48 48" overflow="visible">
	<g>
		<polygon fill="none" points="3.6,-3.6 3.6,-51.6 51.6,-51.6 51.6,-3.6 		"/>
		<path d="M3.6,0c2,0,3.6-1.6,3.6-3.6c0-2-1.6-3.6-3.6-3.6C1.6-7.2,0-5.6,0-3.6C0-1.6,1.6,0,3.6,0z"/>
		<path d="M27.6,0c2,0,3.6-1.6,3.6-3.6c0-2-1.6-3.6-3.6-3.6c-2,0-3.6,1.6-3.6,3.6C24-1.6,25.6,0,27.6,0z"/>
		<path d="M51.6,0c2,0,3.6-1.6,3.6-3.6c0-2-1.6-3.6-3.6-3.6c-2,0-3.6,1.6-3.6,3.6C48-1.6,49.6,0,51.6,0z"/>
		<path d="M3.6-24c2,0,3.6-1.6,3.6-3.6c0-2-1.6-3.6-3.6-3.6c-2,0-3.6,1.6-3.6,3.6C0-25.6,1.6-24,3.6-24z"/>
		<path d="M27.6-24c2,0,3.6-1.6,3.6-3.6c0-2-1.6-3.6-3.6-3.6c-2,0-3.6,1.6-3.6,3.6C24-25.6,25.6-24,27.6-24z"/>
		<path d="M51.6-24c2,0,3.6-1.6,3.6-3.6c0-2-1.6-3.6-3.6-3.6c-2,0-3.6,1.6-3.6,3.6C48-25.6,49.6-24,51.6-24z"/>
		<path d="M3.6-48c2,0,3.6-1.6,3.6-3.6c0-2-1.6-3.6-3.6-3.6c-2,0-3.6,1.6-3.6,3.6C0-49.6,1.6-48,3.6-48z"/>
		<path d="M27.6-48c2,0,3.6-1.6,3.6-3.6c0-2-1.6-3.6-3.6-3.6c-2,0-3.6,1.6-3.6,3.6C24-49.6,25.6-48,27.6-48z"/>
		<path d="M51.6-48c2,0,3.6-1.6,3.6-3.6c0-2-1.6-3.6-3.6-3.6c-2,0-3.6,1.6-3.6,3.6C48-49.6,49.6-48,51.6-48z"/>
		<path d="M39.6-12c2,0,3.6-1.6,3.6-3.6c0-2-1.6-3.6-3.6-3.6c-2,0-3.6,1.6-3.6,3.6C36-13.6,37.6-12,39.6-12z"/>
		<path d="M15.6-12c2,0,3.6-1.6,3.6-3.6c0-2-1.6-3.6-3.6-3.6c-2,0-3.6,1.6-3.6,3.6C12-13.6,13.6-12,15.6-12z"/>
		<path d="M39.6-36c2,0,3.6-1.6,3.6-3.6c0-2-1.6-3.6-3.6-3.6c-2,0-3.6,1.6-3.6,3.6C36-37.6,37.6-36,39.6-36z"/>
		<path d="M15.6-36c2,0,3.6-1.6,3.6-3.6c0-2-1.6-3.6-3.6-3.6c-2,0-3.6,1.6-3.6,3.6C12-37.6,13.6-36,15.6-36z"/>
	</g>
</pattern>
<g id="圖層_1">
	<g>
		<pattern  id="SVGID_1_" xlink:href="#_x36__dpi_30_x25_" patternTransform="matrix(1 0 0 1 0 288)">
		</pattern>
		<path fill="url(#SVGID_1_)" d="M1341.4,1354c58.1-4.8,98.6-9,173.4-5.4c17.3-9.4,41.7-29.3,61.4-29.3c31.1,0,71.7,19.2,75.3,23.9
			c84-22,204.3-81,206-220c2.1-168.2-139-221.7-231.5-270c-87.7-45.8-247.9-57.4-318.5-58.3c-70.6-0.9-43.2,13.5-94.6,12.9
			c-22-0.3-100.1-1.4-203.6-2.9c-2,2.6-44.8,44.5-44.8,44.5L916,803.6c0,0-58.8-0.9-90-1.4c-0.8,1.7-44,44.9-44,44.9l-47.2-46.3
			l-33,9.5c0,0-145.8,34.7-190.5,54.8c-44.8,20.1-124.9,73.1-124.9,73.1s15.7,42.8,70.8,58.2c55.2,15.3,97.2,25.6,97.2,25.6
			s384.1-57.9,508.2-56.4c124.2,1.5,247.3-2.4,335,14.1c87.7,16.5,210.1,48.6,209.4,105.2c-0.7,56.6,20,117.6-304.8,118.9
			c-324.8,1.3-662.7,12.9-662.7,12.9s-211.7,35.8-213.9,219.4c-2.3,183.7,199.9,231.5,305.2,232.8c105.3,1.3,431.7-30.5,431.7-30.5
			s36.7,86.1,156.8,93.8c120.1,7.7,149.8-27.8,149.8-27.8s182.9,21.3,199.2-16.6c16.3-37.9,13.3-65,13.3-65s-32.5,33.3-89.1,16.5
			c-56.6-16.8-64.4-73.1-93.6-78.5c-29.2-5.4-55.3-13-55.3-13s-31.6-31.1-76.3-41.8c-44.6-10.8-148.9,24.2-148.9,24.2
			S1269.2,1359.9,1341.4,1354z M1347.6,1594.3c28.3,0.3,51,23.6,50.6,51.9c-0.3,28.3-23.6,51-51.9,50.6c-28.3-0.3-51-23.6-50.6-51.9
			C1296,1616.6,1319.3,1594,1347.6,1594.3z M1230.2,1399.2c-73.2,94.9-80.2,96.3-80.2,96.3l-451.1,20.9c0,0-56.2-3.6-55.5-62.3
			c0.7-58.7,81.1-64.3,102.9-64.1c21.8,0.3,477.3-16.3,477.3-16.3s11.7-0.4,30.9-1.2C1246,1380.5,1237.8,1389.4,1230.2,1399.2z"/>
		<pattern  id="SVGID_2_" xlink:href="#_x36__dpi_30_x25_" patternTransform="matrix(1 0 0 1 0 288)">
		</pattern>
		<path fill="url(#SVGID_2_)" d="M259,1127.6c0,0-27.9,141.8,87.8,208s93.1,47.1,93.1,47.1s13.4-38.3,29.2-55.5
			c15.8-17.2,23.1-25.9,23.1-25.9s-32.5,0.7-52.5-34.8c-20.1-35.6-13.3-77.6-13.3-77.6L259,1127.6z"/>
		<g>
			<g>
				<g>
					<path fill="#181818" stroke="#000000" stroke-width="25" stroke-miterlimit="10" d="M814.7,374.9c1,23-12.6,42.3-12.6,42.3
						s-15.2-18-16.2-41c-1-23,12.6-42.3,12.6-42.3S813.7,351.9,814.7,374.9z"/>
					<circle fill="none" stroke="#000000" stroke-width="25" stroke-miterlimit="10" cx="800.3" cy="374.2" r="54.5"/>
				</g>
				<g>
					<path fill="#181818" stroke="#000000" stroke-width="25" stroke-miterlimit="10" d="M1341.4,1640.6c1.1-21.9,15.7-39,15.7-39
						s12.9,18.5,11.8,40.4c-1.1,21.9-15.7,39-15.7,39S1340.4,1662.5,1341.4,1640.6z"/>
					<circle fill="none" stroke="#000000" stroke-width="25" stroke-miterlimit="10" cx="1355.1" cy="1642.5" r="52"/>
				</g>
				<g>
					
						<path fill="none" stroke="#000000" stroke-width="25" stroke-linecap="round" stroke-linejoin="round" stroke-miterlimit="10" d="
						M728.5,806.8c-45.7,0-87.2,0-120,0c-92.7,0-115,8-115,8s-113,20.7-113,99c0,52.7,24.3,75.2,86,95c62.5,20,165,31,409,31
						c144,0,454.3-11.4,550.5-58.6"/>
					
						<path fill="none" stroke="#000000" stroke-width="25" stroke-linecap="round" stroke-linejoin="round" stroke-miterlimit="10" d="
						M911.7,806.8c-31.8,0-45.2,0-76.9,0"/>
					
						<path fill="none" stroke="#000000" stroke-width="25" stroke-linecap="round" stroke-linejoin="round" stroke-miterlimit="10" d="
						M911.7,806.8"/>
					
						<path fill="none" stroke="#000000" stroke-width="25" stroke-linecap="round" stroke-linejoin="round" stroke-miterlimit="10" d="
						M1014.5,806.8"/>
					
						<path fill="none" stroke="#000000" stroke-width="25" stroke-linecap="round" stroke-linejoin="round" stroke-miterlimit="10" d="
						M1408.7,374.8c57.6,32.1,106.9,84.9,106.9,171.6c0,179.5-189,260.5-317.5,260.5c-15.8,0-90,0-183.5,0"/>
					
						<path fill="none" stroke="#000000" stroke-width="25" stroke-linecap="round" stroke-linejoin="round" stroke-miterlimit="10" d="
						M1408.7,374.8"/>
					
						<path fill="none" stroke="#000000" stroke-width="25" stroke-linecap="round" stroke-linejoin="round" stroke-miterlimit="10" d="
						M1350.7,349.3"/>
					
						<path fill="none" stroke="#000000" stroke-width="25" stroke-linecap="round" stroke-linejoin="round" stroke-miterlimit="10" d="
						M1262,329.2c25.3,0,87.3,15.1,107.3,24.8"/>
					
						<path fill="none" stroke="#000000" stroke-width="25" stroke-linecap="round" stroke-linejoin="round" stroke-miterlimit="10" d="
						M1262,329.2"/>
					
						<path fill="none" stroke="#000000" stroke-width="25" stroke-linecap="round" stroke-linejoin="round" stroke-miterlimit="10" d="
						M1217,325.2"/>
					
						<path fill="none" stroke="#000000" stroke-width="25" stroke-linecap="round" stroke-linejoin="round" stroke-miterlimit="10" d="
						M626.6,574.5c0,0-92.6-28.6-92.6-62.1s20.5-38.5,47-47.5s83.5-38,93-95s63.9-96.9,124.3-102.4c64.9-5.9,167.1,25,198.2,49.9
						c0,0,129.5-2.7,220.5,7.9"/>
					
						<path fill="none" stroke="#000000" stroke-width="25" stroke-linecap="round" stroke-linejoin="round" stroke-miterlimit="10" d="
						M1086,635.8c37.3,0.4,72.2,0.7,102.9,0.7c126.7,0,147-53.4,147-87c0-31.4-21.6-58.1-50.3-73.3
						c-25.4-13.5-127.4-23.7-195.3-28.3c-98.3-6.7-138.8,29.1-138.8,29.1c-16,53.1-53.9,76.2-98.6,93.7
						c-52.5,20.6-117.1,13.9-117.1,13.9s30-7.3,73.9-36.3c45-29.7,71.8-91.4,71.8-91.4s-38.2,30.7-60.2,40.7s-51.3,9.3-97.3,9.3
						s-68,49.3-68,49.3"/>
					
						<path fill="none" stroke="#000000" stroke-width="25" stroke-linecap="round" stroke-linejoin="round" stroke-miterlimit="10" d="
						M907,633.2c37.2,0.6,74.7,1.2,111,1.7"/>
					
						<path fill="none" stroke="#000000" stroke-width="25" stroke-linecap="round" stroke-linejoin="round" stroke-miterlimit="10" d="
						M723.5,630.5c36.5,0.4,76.8,1,118.5,1.6"/>
					
						<path fill="none" stroke="#000000" stroke-width="25" stroke-linecap="round" stroke-linejoin="round" stroke-miterlimit="10" d="
						M141,826.2c59.2-129.1,257-185.5,416.8-193.8c0.1,0,0.1,0,0.2,0c15.4-1.8,53.3-2.4,104.4-2.2"/>
					
						<path fill="none" stroke="#000000" stroke-width="25" stroke-linecap="round" stroke-linejoin="round" stroke-miterlimit="10" d="
						M151.8,1017.1c-18.7-32.4-28.3-68.8-28.3-109.2c0-15,1.6-29.3,4.5-42.9"/>
					
						<path fill="none" stroke="#000000" stroke-width="25" stroke-linecap="round" stroke-linejoin="round" stroke-miterlimit="10" d="
						M677.9,1216.4c-242.8-16.3-412.5-68.4-495.8-158.4"/>
					
						<path fill="none" stroke="#000000" stroke-width="25" stroke-linecap="round" stroke-linejoin="round" stroke-miterlimit="10" d="
						M1598.2,1057.1c-16.3,57-229.3,133.3-405.3,145.2"/>
					
						<path fill="none" stroke="#000000" stroke-width="25" stroke-linecap="round" stroke-linejoin="round" stroke-miterlimit="10" d="
						M738.9,813.7c-172,20.5-304.2,85.4-353.5,134.7"/>
					
						<path fill="none" stroke="#000000" stroke-width="25" stroke-linecap="round" stroke-linejoin="round" stroke-miterlimit="10" d="
						M1805.8,980.1C1730.2,878.3,1566.5,794,1292.6,794"/>
					
						<path fill="none" stroke="#000000" stroke-width="25" stroke-linecap="round" stroke-linejoin="round" stroke-miterlimit="10" d="
						M1821.7,1234.8c22-31.6,34.8-68.6,34.8-110.9c0-32.5-7.6-66.3-23.6-99.3"/>
					
						<path fill="none" stroke="#000000" stroke-width="25" stroke-linecap="round" stroke-linejoin="round" stroke-miterlimit="10" d="
						M1821.7,1234.8"/>
					
						<path fill="none" stroke="#000000" stroke-width="25" stroke-linecap="round" stroke-linejoin="round" stroke-miterlimit="10" d="
						M1773.6,1285.2"/>
					
						<path fill="none" stroke="#000000" stroke-width="25" stroke-linecap="round" stroke-linejoin="round" stroke-miterlimit="10" d="
						M1653.8,1345.5c45-13.7,104-47.3,137.5-73.7"/>
					
						<path fill="none" stroke="#000000" stroke-width="25" stroke-linecap="round" stroke-linejoin="round" stroke-miterlimit="10" d="
						M1162.9,1379.9"/>
					<g>
						
							<path fill="none" stroke="#000000" stroke-width="25" stroke-linecap="round" stroke-linejoin="round" stroke-miterlimit="10" d="
							M905.2,1658.5c116.7-8.3,232.5-14.3,242-14.2c9.9,0.1,20.6-1.6,26.4,6.4c16.9,22.8,61.6,69.7,149.4,79
							c80.6,8.5,150.6-29.6,150.6-29.6s95.7-1.1,158.8-2.6c78.4-1.8,56.5-98.7,54.4-112.9"/>
						
							<path fill="none" stroke="#000000" stroke-width="25" stroke-linecap="round" stroke-linejoin="round" stroke-miterlimit="10" d="
							M860,1663.9c-34.4,1.9-91,7.6-128.1,3.8"/>
						
							<path fill="none" stroke="#000000" stroke-width="25" stroke-linecap="round" stroke-linejoin="round" stroke-miterlimit="10" d="
							M685,1216.4c-135,15.3-267.8,87.8-253.4,244.5c13.5,146.8,172.5,192.1,251.7,202.1"/>
						
							<path fill="none" stroke="#000000" stroke-width="25" stroke-linecap="round" stroke-linejoin="round" stroke-miterlimit="10" d="
							M550.3,1026.3c72.4-35,417.6-58.9,561.6-58.9c244,0,327.8,11,390.3,31c61.7,19.8,104.7,42.3,104.7,95c0,78.3-113,99-113,99
							s-22.3,8-115,8c-165.3,0-598.1,12.8-636.5,12.8c-19.3,0-38.5,1-57.5,3.2"/>
						
							<path fill="none" stroke="#000000" stroke-width="25" stroke-linecap="round" stroke-linejoin="round" stroke-miterlimit="10" d="
							M1686.9,1584.6c0,0-16.3,57.2-59.6,54c-43.3-3.2-69.8-21.8-87.5-46.7c-17.7-24.9-33.3-42.7-65.3-40.6
							c-31.9,2.1-65.5-46.3-106.3-48.5c-75.3-4.1-156.2,32.7-156.2,32.7s33.4-104.2,77.8-154.8c41.6-47.4,139.5-81.5,139.5-81.5
							s-117,17.7-163.2,54.8c-42.3,33.9-83.9,133.6-104.5,139.9c-7.1,2.2-372,23.6-414.8,23.6c-52.8,0-98.2-10.2-104.8-59.5
							c-4.5-33.3,36-67.1,104.4-71c27.5-1.6,308.8-3.8,488.6-7.1"/>
						
							<path fill="none" stroke="#000000" stroke-width="25" stroke-linecap="round" stroke-linejoin="round" stroke-miterlimit="10" d="
							M1686.9,1584.6c0,0,1,3-13.4-13.4c-8.1-9.2-22.7-21.7-37.3-27.2c16.9,14.8,28.8,72.4,22.7,84.4
							C1658.9,1628.3,1683,1597.1,1686.9,1584.6z"/>
						
							<path fill="none" stroke="#000000" stroke-width="25" stroke-linecap="round" stroke-linejoin="round" stroke-miterlimit="10" d="
							M1288.5,1510.8c0,0,12.5-76,22.1-96.8c24.3-52.3,65.1-92.5,113.4-112.9"/>
						
							<path fill="none" stroke="#000000" stroke-width="25" stroke-linecap="round" stroke-linejoin="round" stroke-miterlimit="10" d="
							M1352.3,1464c0,0,10.6-60,40.2-89.1c19.9-19.5,19.7-17.7,63.9-38l40.5,10.1"/>
						
							<path fill="none" stroke="#000000" stroke-width="25" stroke-linecap="round" stroke-linejoin="round" stroke-miterlimit="10" d="
							M1475.8,1317"/>
					</g>
					
						<path fill="none" stroke="#000000" stroke-width="25" stroke-linecap="round" stroke-linejoin="round" stroke-miterlimit="10" d="
						M1174.5,533.2"/>
					
						<path fill="none" stroke="#000000" stroke-width="25" stroke-linecap="round" stroke-linejoin="round" stroke-miterlimit="10" d="
						M1247.9,534.8"/>
					
						<path fill="none" stroke="#000000" stroke-width="25" stroke-linecap="round" stroke-linejoin="round" stroke-miterlimit="10" d="
						M261.3,1124.1c-31.5,105.1,55.1,222.4,177.2,241.7"/>
					
						<path fill="none" stroke="#000000" stroke-width="25" stroke-linecap="round" stroke-linejoin="round" stroke-miterlimit="10" d="
						M419.5,1178.7c-16.4,37.6,18.6,110.3,78.6,110.3"/>
					<g>
						
							<path fill="none" stroke="#000000" stroke-width="25" stroke-linecap="round" stroke-linejoin="round" stroke-miterlimit="10" d="
							M1686.9,869.9c18-103.4-73.9-245.7-171.4-276.4"/>
						
							<path fill="none" stroke="#000000" stroke-width="25" stroke-linecap="round" stroke-linejoin="round" stroke-miterlimit="10" d="
							M1527.5,818.9c18.1-68.2-25-114.1-51.7-136.4"/>
					</g>
					
						<path fill="none" stroke="#000000" stroke-width="25" stroke-linecap="round" stroke-linejoin="round" stroke-miterlimit="10" d="
						M1335.5,557.2c-45.1,8.7-125.9,3.9-166.3-4.2c-24.9-5.1-75.1-15.2-85.3-53.5c-6.2,15.5,0.2,65.3,90.6,85.7
						c38.4,8.7,78.4,19.4,133.1,19.4"/>
				</g>
			</g>
			
				<path fill="none" stroke="#000000" stroke-width="25" stroke-linecap="round" stroke-linejoin="round" stroke-miterlimit="10" d="
				M636.6,334.3c0-29.2-23.7-52.9-52.9-52.9c-16.3,0-30.8,7.4-40.5,18.9c-9.7-11.6-24.2-18.9-40.5-18.9c-29.2,0-52.9,23.7-52.9,52.9
				c0,66.2,93.4,103.5,93.4,103.5S636.6,406.5,636.6,334.3z"/>
			<g>
				
					<line fill="none" stroke="#000000" stroke-width="25" stroke-linecap="round" stroke-linejoin="round" stroke-miterlimit="10" x1="334.5" y1="479.5" x2="469.4" y2="479.5"/>
				
					<line fill="none" stroke="#000000" stroke-width="25" stroke-linecap="round" stroke-linejoin="round" stroke-miterlimit="10" x1="360.2" y1="533" x2="495.1" y2="533"/>
				
					<line fill="none" stroke="#000000" stroke-width="25" stroke-linecap="round" stroke-linejoin="round" stroke-miterlimit="10" x1="387" y1="581.5" x2="521.9" y2="581.5"/>
			</g>
			
				<circle fill="none" stroke="#000000" stroke-width="25" stroke-linecap="round" stroke-linejoin="round" stroke-miterlimit="10" cx="1581.6" cy="1419.5" r="102.5"/>
			<g>
				<path d="M1578.8,1398.9c-12.4,0.2-22.6-9.6-22.8-22.1c-0.2-12.4,9.6-22.6,22.1-22.8c12.4-0.2,22.6,9.6,22.8,22.1
					C1601.1,1388.5,1591.2,1398.6,1578.8,1398.9z M1578.2,1485.7c-3.9,0.1-9.3-2.8-9.4-7.1c-0.1-3.2,9-14.4,8.9-21.8
					c-0.1-8-20.5-3.7-20.8-26.2c-0.2-11.9,9.3-22.6,21.3-22.8c16.9-0.3,24.9,15.9,25.2,30.7
					C1603.7,1455,1592.8,1485.4,1578.2,1485.7z"/>
			</g>
		</g>
		<g>
			
				<rect x="642.1" y="627.6" transform="matrix(0.7071 0.7071 -0.7071 0.7071 681.9174 -290.9762)" fill="none" stroke="#000000" stroke-width="25" stroke-linecap="round" stroke-linejoin="round" stroke-miterlimit="10" width="100.1" height="100.1"/>
			
				<polyline fill="none" stroke="#000000" stroke-width="25" stroke-linecap="round" stroke-linejoin="round" stroke-miterlimit="10" points="
				897.2,633 941.9,677.7 871.1,748.5 800.3,677.7 846.9,631.1 			"/>
			
				<polyline fill="none" stroke="#000000" stroke-width="25" stroke-linecap="round" stroke-linejoin="round" stroke-miterlimit="10" points="
				846.9,631.1 871.1,606.9 897.2,633 			"/>
			
				<rect x="999.9" y="627.6" transform="matrix(0.7071 0.7071 -0.7071 0.7071 786.7074 -543.9618)" fill="none" stroke="#000000" stroke-width="25" stroke-linecap="round" stroke-linejoin="round" stroke-miterlimit="10" width="100.1" height="100.1"/>
			
				<rect x="731.9" y="735.7" transform="matrix(0.7071 0.7071 -0.7071 0.7071 784.6505 -322.8157)" fill="none" stroke="#000000" stroke-width="25" stroke-linecap="round" stroke-linejoin="round" stroke-miterlimit="10" width="100.1" height="100.1"/>
			
				<rect x="911.4" y="735.7" transform="matrix(0.7071 0.7071 -0.7071 0.7071 837.2058 -449.6955)" fill="none" stroke="#000000" stroke-width="25" stroke-linecap="round" stroke-linejoin="round" stroke-miterlimit="10" width="100.1" height="100.1"/>
		</g>
		
			<line fill="none" stroke="#000000" stroke-width="25" stroke-linecap="round" stroke-linejoin="round" stroke-miterlimit="10" x1="1458" y1="1335.3" x2="1484.1" y2="1302.2"/>
		<g>
			<g>
				
					<line fill="#FFFFFF" stroke="#000000" stroke-width="25" stroke-linecap="round" stroke-linejoin="round" stroke-miterlimit="10" x1="223.9" y1="869.6" x2="318.2" y2="980"/>
				
					<line fill="#FFFFFF" stroke="#000000" stroke-width="25" stroke-linecap="round" stroke-linejoin="round" stroke-miterlimit="10" x1="318.2" y1="869.6" x2="223.9" y2="980"/>
			</g>
			<g>
				
					<line fill="none" stroke="#000000" stroke-width="25" stroke-linecap="round" stroke-linejoin="round" stroke-miterlimit="10" x1="204.2" y1="866.1" x2="239.4" y2="866.1"/>
				
					<line fill="none" stroke="#000000" stroke-width="25" stroke-linecap="round" stroke-linejoin="round" stroke-miterlimit="10" x1="302.7" y1="866.1" x2="337.9" y2="866.1"/>
			</g>
			<g>
				
					<line fill="none" stroke="#000000" stroke-width="25" stroke-linecap="round" stroke-linejoin="round" stroke-miterlimit="10" x1="204.2" y1="985" x2="239.4" y2="985"/>
				
					<line fill="none" stroke="#000000" stroke-width="25" stroke-linecap="round" stroke-linejoin="round" stroke-miterlimit="10" x1="302.7" y1="985" x2="337.9" y2="985"/>
			</g>
		</g>
		
			<line fill="none" stroke="#000000" stroke-width="25" stroke-linecap="round" stroke-miterlimit="10" x1="576.9" y1="509" x2="590" y2="499.4"/>
	</g>
</g>
<g id="圖層_2">
</g>
<g id="圖層_3">
</g>
</svg>
